<svg width="26" height="26" viewBox="0 0 26 26" fill="none" xmlns="http://www.w3.org/2000/svg">
<path d="M22.1166 6.23785C22.2299 5.69828 22.153 5.1168 21.8564 4.60321C21.2173 3.49616 19.7962 3.1154 18.6892 3.75456L14.792 6.00461C14.5017 4.61046 13.7691 2.96125 13.3844 2.29506L12.9983 1.62619C12.1461 0.15012 10.2514 -0.357567 8.77528 0.49464L8.10597 0.88107C7.79898 1.05831 7.65182 1.42171 7.74939 1.7628L8.22699 3.43194C8.89547 5.76967 8.57473 8.95993 7.13258 10.3387C6.40882 9.76421 5.37781 9.65504 4.53001 10.1445L0.514111 12.4631C0.144648 12.6764 0.017915 13.1494 0.231224 13.5188L7.18696 25.5665C7.40027 25.936 7.87325 26.0627 8.24271 25.8494L12.2586 23.5308C13.0569 23.07 13.4774 22.2031 13.4103 21.3399L16.1527 20.7787C17.0493 20.5954 17.9063 20.2702 18.6992 19.8124L24.3063 16.5751C25.4134 15.936 25.7941 14.5149 25.155 13.4079C25.0043 13.1468 24.81 12.9258 24.5868 12.7495C25.304 12.0254 25.4817 10.8823 24.9479 9.95774C24.6514 9.44416 24.1862 9.08681 23.6623 8.91512C23.7756 8.37555 23.6987 7.79407 23.4022 7.28048C23.1056 6.76689 22.6405 6.40954 22.1166 6.23785ZM11.7686 21.1365C11.9817 21.5055 11.8548 21.9792 11.4857 22.1922L8.13917 24.1244L1.95629 13.4153L5.30287 11.4832C5.67188 11.2701 6.14556 11.397 6.35861 11.766L11.7686 21.1365ZM19.6691 8.54331L21.0078 7.77045C21.3768 7.5574 21.8505 7.68432 22.0635 8.05334C22.2766 8.42236 22.1496 8.89603 21.7806 9.10909L20.442 9.88195C20.0725 10.0953 19.9458 10.5682 20.1591 10.9377C20.3724 11.3072 20.8454 11.4339 21.2149 11.2206L22.5535 10.4477C22.9225 10.2347 23.3962 10.3616 23.6092 10.7306C23.8223 11.0996 23.6954 11.5733 23.3264 11.7864L21.9877 12.5592C21.6183 12.7725 21.4915 13.2455 21.7048 13.615C21.9181 13.9844 22.3911 14.1112 22.7606 13.8978C23.1296 13.6848 23.6033 13.8117 23.8163 14.1807C24.0294 14.5497 23.9025 15.0234 23.5334 15.2365L17.9264 18.4737C17.2776 18.8483 16.5763 19.1145 15.8425 19.2645L12.8288 19.8813L8.04709 11.5991C8.98187 10.7935 9.62564 9.53535 9.92498 7.91145C10.2171 6.3256 10.138 4.49243 9.71302 3.00711L9.40134 1.91803L9.54814 1.83327C10.2862 1.40717 11.2335 1.66101 11.6596 2.39905L12.0458 3.06792C12.5647 3.96658 13.2787 5.8526 13.3632 6.82951L11.996 7.61885C11.6266 7.83216 11.4998 8.30514 11.7131 8.6746C11.9265 9.04406 12.3994 9.1708 12.7689 8.95749L19.4621 5.09319C19.8311 4.88014 20.3047 5.00706 20.5178 5.37607C20.7309 5.74509 20.6039 6.21877 20.2349 6.43182L18.8963 7.20468C18.5268 7.41799 18.4001 7.89096 18.6134 8.26043C18.8267 8.62989 19.2997 8.75662 19.6691 8.54331Z" fill="#88C057"/>
</svg>
