<svg width="58" height="59" viewBox="0 0 58 59" fill="none" xmlns="http://www.w3.org/2000/svg">
<path d="M14.5 18.4375C14.5 17.4198 13.688 16.5938 12.6875 16.5938H1.8125C0.812 16.5938 0 17.4198 0 18.4375C0 19.4553 0.812 20.2812 1.8125 20.2812H12.6875C13.688 20.2812 14.5 19.4553 14.5 18.4375Z" fill="#88C057"/>
<path d="M12.6875 23.9688H5.4375C4.437 23.9688 3.625 24.7948 3.625 25.8125C3.625 26.8303 4.437 27.6562 5.4375 27.6562H12.6875C13.688 27.6562 14.5 26.8303 14.5 25.8125C14.5 24.7948 13.688 23.9688 12.6875 23.9688Z" fill="#88C057"/>
<path d="M12.6875 31.3438H9.0625C8.062 31.3438 7.25 32.1698 7.25 33.1875C7.25 34.2053 8.062 35.0312 9.0625 35.0312H12.6875C13.688 35.0312 14.5 34.2053 14.5 33.1875C14.5 32.1698 13.688 31.3438 12.6875 31.3438Z" fill="#88C057"/>
<path d="M57.7426 30.3961L52.3051 21.1773C51.9789 20.6205 51.388 20.2812 50.75 20.2812H38.0625C37.062 20.2812 36.25 21.1073 36.25 22.125V40.5625C36.25 41.5802 37.062 42.4062 38.0625 42.4062H56.1875C57.188 42.4062 58 41.5802 58 40.5625V31.3438C58 31.0082 57.913 30.68 57.7426 30.3961Z" fill="#FF7400"/>
<path d="M43.5 23.9688H49.7241L54.0741 31.3438H43.5V23.9688Z" fill="#FAFAFA"/>
<path d="M38.0625 12.9062H12.6875C11.687 12.9062 10.875 13.7323 10.875 14.75V40.5625C10.875 41.5802 11.687 42.4062 12.6875 42.4062H39.875V14.75C39.875 13.7323 39.063 12.9062 38.0625 12.9062Z" fill="#88C057"/>
<path d="M48.9375 44.25C50.9395 44.25 52.5625 42.5991 52.5625 40.5625C52.5625 38.5259 50.9395 36.875 48.9375 36.875C46.9355 36.875 45.3125 38.5259 45.3125 40.5625C45.3125 42.5991 46.9355 44.25 48.9375 44.25Z" fill="#FAFAFA"/>
<path d="M48.9375 46.0938C45.9396 46.0938 43.5 43.6121 43.5 40.5625C43.5 37.5129 45.9396 35.0312 48.9375 35.0312C51.9354 35.0312 54.375 37.5129 54.375 40.5625C54.375 43.6121 51.9354 46.0938 48.9375 46.0938ZM48.9375 38.7188C47.9406 38.7188 47.125 39.5484 47.125 40.5625C47.125 41.5766 47.9406 42.4062 48.9375 42.4062C49.9344 42.4062 50.75 41.5766 50.75 40.5625C50.75 39.5484 49.9344 38.7188 48.9375 38.7188Z" fill="#455A64"/>
<path d="M39.875 42.4062H12.6875C11.687 42.4062 10.875 41.5802 10.875 40.5625V35.0312H39.875V42.4062Z" fill="#FF7400"/>
<path d="M23.5625 44.25C25.5645 44.25 27.1875 42.5991 27.1875 40.5625C27.1875 38.5259 25.5645 36.875 23.5625 36.875C21.5605 36.875 19.9375 38.5259 19.9375 40.5625C19.9375 42.5991 21.5605 44.25 23.5625 44.25Z" fill="#FAFAFA"/>
<path d="M23.5625 46.0938C20.5646 46.0938 18.125 43.6121 18.125 40.5625C18.125 37.5129 20.5646 35.0312 23.5625 35.0312C26.5604 35.0312 29 37.5129 29 40.5625C29 43.6121 26.5604 46.0938 23.5625 46.0938ZM23.5625 38.7188C22.562 38.7188 21.75 39.5484 21.75 40.5625C21.75 41.5766 22.562 42.4062 23.5625 42.4062C24.563 42.4062 25.375 41.5766 25.375 40.5625C25.375 39.5484 24.563 38.7188 23.5625 38.7188Z" fill="#455A64"/>
</svg>
