<svg width="46" height="46" viewBox="0 0 46 46" fill="none" xmlns="http://www.w3.org/2000/svg">
<path d="M23.0045 0C13.8136 0 6.09607 7.14267 5.3952 16.1719L7.04824 18.8672H8.18027V17.5195C8.18027 13.6154 9.70671 9.90258 12.4784 7.06504L12.5003 7.04258L12.5228 7.02057C15.3775 4.23137 19.1 2.69531 23.0045 2.69531C31.1687 2.69531 37.8107 9.34546 37.8107 17.5195V17.5555L37.7758 18.8672H38.7451L40.596 16.1719C39.8951 7.14267 32.1954 0 23.0045 0Z" fill="#FF7400"/>
<path d="M23.0045 0V2.69531C31.1687 2.69531 37.8108 9.34546 37.8108 17.5195V17.5555L37.7758 18.8672H38.7451L40.596 16.1719C39.8951 7.14267 32.1954 0 23.0045 0Z" fill="#FF7400"/>
<path d="M37.2626 20.0801L23.0045 20.3496L8.61146 20.6192L6.83264 41.0495L23.0045 41.1844L39.4458 41.3191L37.2626 20.0801Z" fill="#384949"/>
<path d="M39.4458 41.3192L23.0045 41.1845V20.3496L37.2626 20.0801L39.4458 41.3192Z" fill="#293939"/>
<path d="M5.32332 16.1719C5.29637 16.603 5.28729 17.0614 5.28729 17.5195V26.9531H13.4989V16.1719H5.32332Z" fill="#FF7400"/>
<path d="M31.4679 37.8421C29.9046 41.0226 26.6431 43.3047 23.0046 43.3047C19.6085 43.3047 16.5089 41.2922 14.8646 38.4082L16.3202 34.9581L16.5357 34.9314L17.6139 30.7805L19.0693 31.4813C20.2822 32.0474 21.6569 32.3438 23.0046 32.3438C24.3522 32.3438 25.7268 32.0473 26.9398 31.4813L28.3952 30.7805L29.4734 34.9314L29.6889 34.9581L31.4679 37.8421Z" fill="#FFBD86"/>
<path d="M40.596 16.1719H32.3662V26.9531H34.3683L34.784 28.166L38.0533 26.9531H40.596C40.596 26.9531 40.6229 16.603 40.596 16.1719Z" fill="#FF7400"/>
<path d="M31.4679 37.8421C29.9045 41.0226 26.6431 43.3047 23.0045 43.3047V32.3438C24.3522 32.3438 25.7268 32.0473 26.9398 31.4813L28.3951 30.7805L29.4734 34.9314L29.6889 34.9581L31.4679 37.8421Z" fill="#FFBD86"/>
<path d="M35.0794 18.8672L35.0974 22.9102C35.0974 26.3333 33.624 29.5945 31.0905 31.8857C28.8533 33.9341 26.0502 35.0391 23.0315 35.0391H23.0045C22.6001 35.0391 22.223 35.0121 21.8186 34.9851C15.6734 34.3922 10.8756 28.8937 10.8756 22.452V18.8672L13.4632 16.1719H14.2718C17.4523 16.1719 20.3902 14.3391 21.7916 11.536L23.0045 9.08322L24.2174 11.536C25.6188 14.3391 28.5568 16.1719 31.7372 16.1719H33.1118L35.0794 18.8672Z" fill="#FED2A4"/>
<path d="M35.0794 18.8672L35.0974 22.9102C35.0974 26.3333 33.624 29.5945 31.0905 31.8857C28.8533 33.9341 26.0502 35.0391 23.0315 35.0391H23.0045V9.08322L24.2174 11.536C25.6188 14.3391 28.5568 16.1719 31.7372 16.1719H33.1118L35.0794 18.8672Z" fill="#FED2A4"/>
<path d="M23.0045 5.39062C19.7971 5.39062 16.7514 6.65733 14.4065 8.94844C12.1423 11.2664 10.8756 14.3121 10.8756 17.5195V18.8672H14.2717C17.7486 18.8672 20.929 17.3038 23.0045 14.6355C25.08 17.3039 28.2604 18.8672 31.7373 18.8672H35.0795L35.1155 17.5195C35.1155 10.8352 29.6889 5.39062 23.0045 5.39062Z" fill="#384949"/>
<path d="M35.1155 17.5195L35.0795 18.8672H31.7373C28.2605 18.8672 25.08 17.3038 23.0045 14.6355V5.39062C29.6889 5.39062 35.1155 10.8352 35.1155 17.5195Z" fill="#293939"/>
<path d="M38.0533 26.9531C37.5142 28.5165 36.0048 29.6484 34.253 29.6484H24.4241V26.9531H38.0533Z" fill="#FF7400"/>
<path d="M43.2373 44.5983C43.1563 42.4151 42.249 40.1332 40.7667 38.4621C39.365 36.9527 37.3166 35.9555 34.9447 35.6319L29.6889 34.9581L29.3385 35.9823C28.3951 38.6509 25.8615 40.4297 23.0045 40.4297C20.1744 40.4297 17.6138 38.6509 16.6706 35.9823L16.3202 34.9581L11.0373 35.6319C8.69236 35.9555 6.64393 36.9528 5.26932 38.4621C3.78689 40.0792 2.92439 42.3613 2.78972 44.5714L2.70868 46H43.2912L43.2373 44.5983Z" fill="#88C057"/>
<path d="M43.2913 46H23.0045V40.4297C25.8615 40.4297 28.3951 38.6509 29.3384 35.9823L29.6888 34.9581L34.9447 35.6319C37.3165 35.9555 39.365 36.9528 40.7666 38.4621C42.249 40.1332 43.1563 42.4151 43.2372 44.5983L43.2913 46Z" fill="#88C057"/>
</svg>
