<svg width="48" height="48" viewBox="0 0 48 48" fill="none" xmlns="http://www.w3.org/2000/svg">
<path d="M14.4869 29.5372L7.94494 44.112C7.71928 44.6146 8.1285 45.1712 8.67544 45.1057L12.3409 44.6675L14.4532 47.6966C14.7682 48.1483 15.4554 48.0838 15.6809 47.5814L22.3041 32.8254L14.4869 29.5372Z" fill="#88C057"/>
<path d="M33.5131 29.5372L40.0551 44.112C40.2807 44.6146 39.8715 45.1712 39.3246 45.1057L35.6592 44.6675L33.5467 47.6966C33.2317 48.1483 32.5445 48.0838 32.319 47.5814L25.6959 32.8254L33.5131 29.5372Z" fill="#88C057"/>
<path d="M40.0551 44.112L35.4517 33.8563L35.2983 33.5143C35.2983 33.5143 34.3862 33.8563 33.6957 35.1282C33.3645 35.7382 32.852 36.187 32.5115 36.4393C32.3115 36.5877 32.2415 36.8545 32.3433 37.0818L35.7486 44.6784L39.3244 45.1059C39.8716 45.1712 40.2807 44.6147 40.0551 44.112Z" fill="#88C057"/>
<path d="M14.4869 29.5372L7.94494 44.112C7.71928 44.6146 8.1285 45.1711 8.67544 45.1057L12.2512 44.6782L15.5492 37.3212C15.724 36.9311 16.1679 36.7693 16.5726 36.9075C16.9375 37.0321 17.3235 37.0992 17.7176 37.0992C17.9047 37.0992 18.0935 37.0845 18.2784 37.0554L20.2597 36.7436C20.2669 36.7434 20.2737 36.7432 20.2803 36.7432C20.3407 36.7432 20.3755 36.7539 20.4063 36.7727L20.5053 36.833L22.3041 32.8253L14.4869 29.5372Z" fill="#88C057"/>
<path d="M42.0456 19.3209L40.9998 21.0361C40.7639 21.423 40.673 21.8813 40.7434 22.329L41.0551 24.3102C41.1667 25.0195 40.8716 25.7318 40.2908 26.1541L38.6697 27.3333C38.3026 27.6003 38.0425 27.989 37.9358 28.4301L37.4638 30.3806C37.2951 31.0773 36.7513 31.6211 36.0546 31.7897L34.1041 32.2616C33.663 32.3683 33.2742 32.6286 33.0073 32.9955L31.8284 34.6162C31.406 35.197 30.6938 35.4921 29.9844 35.3805L28.0039 35.0688C27.5562 34.9983 27.0979 35.0891 26.7108 35.3252L24.9959 36.3709C24.3845 36.7437 23.6159 36.7437 23.0046 36.3709L21.2894 35.3251C20.9025 35.0892 20.4443 34.9983 19.9965 35.0687L18.0153 35.3804C17.306 35.492 16.5938 35.1969 16.1714 34.6161L14.9923 32.995C14.7253 32.6279 14.3366 32.3678 13.8955 32.2611L11.9449 31.789C11.2483 31.6204 10.7044 31.0765 10.5358 30.3799L10.0639 28.4294C9.95722 27.9883 9.69697 27.5994 9.33003 27.3325L7.70928 26.1535C7.1285 25.7311 6.83338 25.0189 6.94494 24.3095L7.25666 22.329C7.32716 21.8813 7.23631 21.423 7.00025 21.0359L5.95438 19.3209C5.58153 18.7095 5.58153 17.9409 5.95438 17.3296L7.00016 15.6144C7.23603 15.2275 7.32697 14.7693 7.25656 14.3215L6.94485 12.3403C6.83328 11.631 7.12841 10.9188 7.70919 10.4964L9.33031 9.31726C9.69735 9.05026 9.9575 8.66157 10.0642 8.22048L10.5362 6.26991C10.7049 5.57326 11.2487 5.02941 11.9454 4.86085L13.8958 4.38891C14.3369 4.28223 14.7258 4.02198 14.9927 3.65504L16.1716 2.03438C16.5941 1.4536 17.3063 1.15848 18.0157 1.27004L19.9962 1.58176C20.4439 1.65226 20.9022 1.56141 21.2893 1.32535L23.0041 0.279663C23.6156 -0.0931804 24.3841 -0.0931804 24.9955 0.279663L26.7107 1.32544C27.0976 1.56132 27.5559 1.65226 28.0036 1.58185L29.9848 1.27013C30.6942 1.15857 31.4064 1.45369 31.8287 2.03448L33.0079 3.6556C33.2749 4.02263 33.6636 4.28279 34.1047 4.38948L36.0553 4.86151C36.7519 5.03016 37.2958 5.57401 37.4643 6.27066L37.9363 8.22113C38.0429 8.66223 38.3032 9.0511 38.6701 9.31801L40.2908 10.4968C40.8716 10.9193 41.1667 11.6315 41.0551 12.3409L40.7434 14.3214C40.6729 14.7691 40.7638 15.2274 40.9998 15.6144L42.0455 17.3293C42.4184 17.941 42.4184 18.7095 42.0456 19.3209Z" fill="#FF7400"/>
<path d="M24.0006 31.8909C31.4927 31.8909 37.5662 25.8174 37.5662 18.3253C37.5662 10.8332 31.4927 4.75967 24.0006 4.75967C16.5085 4.75967 10.4349 10.8332 10.4349 18.3253C10.4349 25.8174 16.5085 31.8909 24.0006 31.8909Z" fill="#FF7400"/>
<path d="M24 24.0292L19.065 26.7916C18.5515 27.079 17.9373 26.6326 18.0519 26.0556L19.1542 20.5084L15.0019 16.6686C14.5699 16.269 14.8045 15.5469 15.3888 15.4776L21.0051 14.8117L23.3738 9.67613C23.6202 9.14185 24.3797 9.14185 24.6262 9.67613L26.9949 14.8117L32.6112 15.4776C33.1955 15.5469 33.4301 16.269 32.9981 16.6686L28.8458 20.5084L29.9481 26.0556C30.0627 26.6326 29.4484 27.079 28.935 26.7916L24 24.0292Z" fill="white"/>
<path d="M23.9878 9.27869C23.7406 9.28309 23.495 9.41341 23.3739 9.676L21.0051 14.8116L15.3888 15.4775C14.8045 15.5468 14.5699 16.269 15.0019 16.6684L19.1542 20.5083L18.0519 26.0555C17.9373 26.6326 18.5516 27.079 19.065 26.7916L19.8461 26.3544L21.1702 20.3008C21.2305 20.0246 21.1594 19.736 20.9775 19.5196L19.575 17.8511C19.3381 17.5694 19.477 17.137 19.8337 17.046L22.0725 16.4743C22.4146 16.3869 22.6754 16.1099 22.7421 15.7632L23.9878 9.27869Z" fill="#88C057"/>
<path d="M29.7278 26.6994L27.0039 23.6728C26.5558 23.1749 25.8254 23.0478 25.2354 23.3649L24 24.029L28.935 26.7915C29.2156 26.9486 29.5223 26.8822 29.7278 26.6994Z" fill="#88C057"/>
</svg>
