<svg width="46" height="46" viewBox="0 0 46 46" fill="none" xmlns="http://www.w3.org/2000/svg">
<g clip-path="url(#clip0)">
<path d="M45.966 22.9828C45.966 35.676 35.676 45.966 22.9828 45.966C10.2899 45.966 0 35.676 0 22.9828C0 10.2899 10.2899 0 22.9828 0C35.676 0 45.966 10.2899 45.966 22.9828Z" fill="#88C057"/>
<path d="M24.1199 31.5099L33.5226 42.2038V30.7754" fill="#FF7400"/>
<path d="M42.1473 34.7713L2.48053 30.6715L2.30997 10.2162L46 3.76328L42.1473 34.7713Z" fill="#FF7400"/>
<path d="M11.7913 14.2136C11.7948 13.963 12.0464 13.8138 12.2974 13.79L13.8419 13.6433C14.6151 13.5699 15.3942 13.7893 15.3654 14.9432C15.3489 15.5977 15.0874 16.0417 14.6705 16.253C15.1411 16.4063 15.463 16.6825 15.443 17.4827L15.4388 17.6501C15.4068 18.9051 14.714 19.3764 13.8542 19.4035L12.2107 19.4551C11.9064 19.4645 11.7215 19.3038 11.7243 19.1143L11.7913 14.2136ZM12.9091 15.8992L13.6991 15.8434C13.9886 15.823 14.1399 15.5342 14.1458 15.2633C14.1515 14.9836 14.0114 14.7158 13.7208 14.74L12.928 14.8056L12.9091 15.8992ZM13.6117 18.3566C13.9893 18.3404 14.2224 18.1113 14.2332 17.608L14.236 17.482C14.2476 16.9454 14.0223 16.7692 13.6426 16.792L12.8926 16.8373L12.8659 18.3889L13.6117 18.3566Z" fill="white"/>
<path d="M17.8863 15.7949L19.1487 15.7089C19.4052 15.6914 19.5421 15.9255 19.5319 16.1943C19.5231 16.421 19.3929 16.6958 19.1118 16.712L17.8537 16.7846L17.8077 18.1765L20.0682 18.0793C20.3279 18.068 20.4647 18.3295 20.4518 18.639C20.4405 18.9061 20.3072 19.2016 20.0225 19.2104L17.0545 19.3034C16.7808 19.3118 16.512 19.1928 16.5193 18.9367L16.6692 13.771C16.6766 13.5064 16.9587 13.3474 17.2381 13.3207L20.2707 13.0329C20.5616 13.0052 20.6732 13.2961 20.6616 13.5723C20.6483 13.891 20.4872 14.1788 20.2236 14.2006L17.9326 14.3908L17.8863 15.7949Z" fill="white"/>
<path d="M24.38 17.3707C24.4372 16.308 21.5127 16.6586 21.6025 14.6473C21.6605 13.3442 22.8828 12.7318 24.0557 12.6199C24.5614 12.5714 25.9758 12.5276 25.9347 13.2386C25.9203 13.4839 25.7154 13.997 25.2872 14.0314C24.9398 14.0595 24.7755 13.7334 23.9946 13.7991C23.3278 13.8549 23.0457 14.1328 23.032 14.4055C22.9892 15.2818 26.014 14.9 25.8821 17.1563C25.8077 18.4316 24.7643 19.1483 23.4103 19.1897C22.2181 19.2258 21.2621 18.718 21.2867 18.1614C21.2993 17.874 21.585 17.4374 21.9251 17.4205C22.3494 17.3998 22.5912 18.0217 23.444 17.9856C23.8715 17.9677 24.3575 17.7901 24.38 17.3707Z" fill="white"/>
<path d="M32.1213 11.9078C32.488 11.8727 32.6168 12.2086 32.5916 12.5297C32.5628 12.8982 32.3491 13.233 32.0174 13.2604L30.5181 13.3843L30.1525 18.4538C30.1314 18.7475 29.7131 18.9068 29.3088 18.9195C28.9073 18.9321 28.5184 18.8002 28.5381 18.511L28.8725 13.5201L27.4582 13.6369C27.1557 13.6619 27.0037 13.3734 27.0251 13.0242C27.0437 12.7203 27.2052 12.3746 27.5393 12.3426L32.1213 11.9078Z" fill="white"/>
<path d="M10.3145 21.427C10.3163 21.2428 10.4773 21.0785 10.7216 21.0754L12.1935 21.0557C13.1579 21.0427 13.9233 21.5081 13.8963 22.7901L13.8956 22.828C13.8689 24.0988 13.0642 24.5596 12.0686 24.534L11.3681 24.5157L11.3477 26.0859C11.3449 26.3172 11.0722 26.4197 10.8023 26.407C10.5345 26.394 10.2692 26.2673 10.2717 26.0389L10.3145 21.427ZM11.3993 22.0787L11.3793 23.6366L12.0819 23.6478C12.4844 23.6542 12.7347 23.4194 12.7434 22.9105L12.7448 22.828C12.7536 22.317 12.5104 22.0766 12.1058 22.0773L11.3993 22.0787Z" fill="white"/>
<path d="M14.8969 21.3842C14.9015 21.1905 15.0517 21.0178 15.2756 21.0147L16.9061 20.9929C18.0176 20.9782 18.9058 21.379 18.8574 22.6919C18.8244 23.5875 18.3854 24.0887 17.808 24.2898L18.7416 26.0554C18.7728 26.1038 18.7791 26.1593 18.7777 26.1982C18.7661 26.5039 18.3296 26.8121 17.9572 26.7942C17.7965 26.7864 17.6459 26.7173 17.5634 26.5509L16.5404 24.4561L16.0235 24.4438L15.9719 26.2877C15.9652 26.5309 15.6613 26.6383 15.363 26.6239C15.0664 26.6099 14.7748 26.4758 14.7804 26.2358L14.8969 21.3842ZM16.0894 22.07L16.0491 23.5173L16.8292 23.5278C17.2764 23.5342 17.5557 23.3566 17.574 22.8042C17.5919 22.2497 17.323 22.0679 16.8735 22.0686L16.0894 22.07Z" fill="white"/>
<path d="M20.1169 21.3354C20.1278 21.0648 20.4686 20.9455 20.8066 20.9409C21.147 20.9364 21.4846 21.0483 21.4723 21.3228L21.2382 26.5179C21.2267 26.7745 20.8855 26.8868 20.5521 26.871C20.2215 26.8552 19.898 26.713 19.9085 26.4597L20.1169 21.3354Z" fill="white"/>
<path d="M25.1405 22.0535C24.6039 22.0546 24.2814 22.3269 24.2501 22.9035L24.1294 25.1296C24.0985 25.696 24.3877 25.9729 24.9254 25.9926C25.6767 26.0203 25.7547 25.5072 25.8027 25.1777C25.8501 24.8643 26.18 24.7874 26.565 24.7969C27.089 24.8099 27.3259 24.9366 27.2925 25.4528C27.2188 26.591 26.1389 27.1876 24.7959 27.123C23.5959 27.0651 22.6449 26.4976 22.7147 25.0892L22.8235 22.894C22.8951 21.4523 23.9216 20.8992 25.15 20.8831C26.5257 20.8648 27.5484 21.486 27.4764 22.601C27.4427 23.125 27.189 23.2446 26.6713 23.2397C26.2649 23.2359 25.9438 23.1379 25.9431 22.8284C25.9466 22.6045 25.9508 22.0521 25.1405 22.0535Z" fill="white"/>
<path d="M30.4062 23.5626L31.9928 23.5822C32.316 23.5865 32.4785 23.8528 32.4547 24.1438C32.435 24.3891 32.2606 24.6755 31.9068 24.6677L30.3269 24.6323L30.2153 26.1354L33.0541 26.2386C33.3815 26.2505 33.543 26.5474 33.5146 26.8819C33.49 27.1707 33.3103 27.4785 32.952 27.4617L29.2305 27.2844C28.8883 27.2679 28.5577 27.1142 28.577 26.8384L28.9617 21.2617C28.9817 20.9754 29.34 20.8273 29.6909 20.8227L33.5103 20.7718C33.8781 20.7669 34.0073 21.0933 33.9817 21.393C33.9522 21.7387 33.7374 22.0377 33.4047 22.0384L30.5188 22.0437L30.4062 23.5626Z" fill="white"/>
</g>
<defs>
<clipPath id="clip0">
<rect width="46" height="46" fill="white"/>
</clipPath>
</defs>
</svg>
