<svg width="170" height="34" viewBox="0 0 170 34" fill="none" xmlns="http://www.w3.org/2000/svg">
<path d="M11.0711 24.5551V24.2883C9.80393 24.7774 8.60345 25.022 7.46966 25.022C5.26878 25.0664 3.46806 24.3106 2.0675 22.7544C0.689165 21.176 0 19.1085 0 16.5519C0.0222311 14.9957 0.289005 13.6507 0.800321 12.5169C1.33387 11.3609 2.04526 10.4717 2.93451 9.8492C3.84599 9.2045 4.84639 8.73764 5.93571 8.44864C7.02504 8.15963 8.2144 8.02625 9.50381 8.04848C11.6602 8.07071 14.0056 8.5598 16.54 9.51573V24.6551C16.54 27.523 15.7508 29.6905 14.1723 31.1577C12.6162 32.625 10.6154 33.3475 8.16994 33.3253C5.96906 33.3253 3.70148 32.7139 1.36721 31.4912L2.03415 27.2562C3.9238 28.2344 5.68005 28.7123 7.30293 28.6901C9.81505 28.6456 11.0711 27.2673 11.0711 24.5551ZM11.0044 19.6531V12.9838C10.0707 12.8059 9.38154 12.717 8.93692 12.717C7.89205 12.717 7.08062 13.0838 6.50261 13.8175C5.94683 14.5289 5.66894 15.4403 5.66894 16.5519C5.66894 17.6857 5.94683 18.5638 6.50261 19.1863C7.05839 19.8088 7.85871 20.12 8.90357 20.12C9.59274 20.12 10.293 19.9644 11.0044 19.6531Z" fill="#88C057"/>
<path d="M54.2375 19.4185H59.773C59.773 19.9076 59.9509 20.2744 60.3066 20.519C60.6845 20.7413 61.1291 20.8524 61.6404 20.8524C62.1517 20.8524 62.5853 20.7413 62.9409 20.519C63.3189 20.2966 63.5078 19.9854 63.5078 19.5852C63.5078 19.274 63.4078 19.0295 63.2077 18.8516C63.0299 18.6738 62.8298 18.5626 62.6075 18.5182C62.4074 18.4515 62.1184 18.3959 61.7405 18.3514C60.9401 18.2625 60.2732 18.1736 59.7397 18.0846C59.2284 17.9957 58.5948 17.8401 57.8389 17.6178C57.1053 17.3732 56.5273 17.0954 56.1049 16.7841C55.6825 16.4507 55.3046 16.006 54.9711 15.4503C54.6599 14.8722 54.5042 14.2053 54.5042 13.4495C54.5042 11.6932 55.2045 10.3482 56.6051 9.4145C58.0279 8.45856 59.7174 7.98059 61.6738 7.98059C63.6523 7.98059 65.353 8.48079 66.7758 9.48119C68.1986 10.4594 68.8655 11.7821 68.7766 13.4495H63.808C63.7635 13.0715 63.5412 12.7714 63.141 12.5491C62.7409 12.3268 62.2962 12.2267 61.8072 12.249C61.3181 12.2712 60.9068 12.3824 60.5733 12.5824C60.2621 12.7603 60.1065 13.0048 60.1065 13.3161C60.1065 13.4272 60.1065 13.5273 60.1065 13.6162C60.1287 13.7051 60.1621 13.7829 60.2065 13.8496C60.2732 13.9163 60.3288 13.983 60.3733 14.0497C60.4177 14.0942 60.4844 14.1386 60.5733 14.1831C60.6845 14.2053 60.7734 14.2387 60.8401 14.2831C60.9068 14.3053 60.9957 14.3276 61.1069 14.3498C61.2403 14.3498 61.3403 14.3609 61.407 14.3832C61.4737 14.3832 61.5737 14.3943 61.7071 14.4165C61.8405 14.4387 61.9294 14.4499 61.9739 14.4499C62.8854 14.5388 63.6079 14.6277 64.1414 14.7166C64.675 14.8056 65.3086 14.9723 66.0422 15.2168C66.7981 15.4391 67.3761 15.717 67.7762 16.0505C68.1986 16.384 68.5543 16.8508 68.8433 17.4511C69.1323 18.0513 69.2657 18.7627 69.2435 19.5852C69.199 21.297 68.4543 22.6309 67.0092 23.5869C65.5642 24.5206 63.8524 24.9874 61.8739 24.9874C56.8718 24.9874 54.3264 23.1311 54.2375 19.4185Z" fill="#88C057"/>
<path d="M50.9925 22.5179V22.3179C50.1477 24.0519 48.7027 24.9411 46.6574 24.9856C44.2787 25.0301 42.4002 24.252 41.0218 22.6513C39.6435 21.0507 38.9543 19.0165 38.9543 16.5489C38.9543 14.1702 39.7213 12.1694 41.2553 10.5465C42.7892 8.90137 44.6344 8.07882 46.7908 8.07882C47.8134 8.07882 48.8472 8.29002 49.8921 8.71241V0.209H55.561V19.5834C55.561 19.9614 55.561 20.1948 55.561 20.2837C55.561 20.3726 55.5832 20.5283 55.6277 20.7506C55.6722 20.9729 55.7388 21.1174 55.8278 21.1841C55.9167 21.2285 56.0501 21.2841 56.2279 21.3508C56.4058 21.3953 56.6281 21.4175 56.8949 21.4175V24.5521C56.2502 24.7077 55.6277 24.8078 55.0275 24.8522C54.4494 24.9189 53.8381 24.9078 53.1934 24.8189C52.5487 24.7522 52.0262 24.5299 51.6261 24.1519C51.2259 23.7518 51.0147 23.2071 50.9925 22.5179ZM50.0254 17.1491V13.581C49.2696 13.2476 48.5471 13.0808 47.8579 13.0808C46.9464 13.1031 46.2017 13.4254 45.6237 14.0479C45.0679 14.6481 44.79 15.4818 44.79 16.5489C44.79 17.5938 45.0123 18.4274 45.4569 19.0499C45.9238 19.6724 46.6352 19.9836 47.5911 19.9836C48.347 19.9836 48.9361 19.7057 49.3585 19.1499C49.8031 18.5942 50.0254 17.9272 50.0254 17.1491Z" fill="#88C057"/>
<path d="M28.0784 10.2803C29.7902 11.7698 30.6461 13.8484 30.6461 16.5162C30.6461 19.1839 29.8013 21.2625 28.1117 22.752C26.4444 24.2192 24.4547 24.964 22.1427 24.9862C20.6532 25.0085 19.2637 24.7194 17.9743 24.1192C16.7071 23.4967 15.6512 22.5297 14.8064 21.218C13.9616 19.8842 13.5392 18.3169 13.5392 16.5162C13.5392 13.8484 14.3729 11.7698 16.0402 10.2803C17.7298 8.79084 19.7306 8.0461 22.0426 8.0461C24.3769 8.0461 26.3888 8.79084 28.0784 10.2803ZM20.0752 13.9151C19.4971 14.5376 19.2081 15.4046 19.2081 16.5162C19.2081 17.6277 19.4971 18.4947 20.0752 19.1172C20.6532 19.7397 21.3423 20.0398 22.1427 20.0176C22.9207 19.9953 23.5877 19.6841 24.1435 19.0839C24.7215 18.4614 25.0105 17.6055 25.0105 16.5162C25.0105 15.4268 24.7215 14.5821 24.1435 13.9818C23.5877 13.3593 22.9207 13.037 22.1427 13.0148C21.3423 12.9925 20.6532 13.2926 20.0752 13.9151Z" fill="#88C057"/>
<path d="M39.9907 10.2803C41.7025 11.7698 42.5584 13.8484 42.5584 16.5162C42.5584 19.1839 41.7136 21.2625 40.0241 22.752C38.3567 24.2192 36.3671 24.964 34.055 24.9862C32.5655 25.0085 31.1761 24.7194 29.8867 24.1192C28.6195 23.4967 27.5635 22.5297 26.7187 21.218C25.874 19.8842 25.4516 18.3169 25.4516 16.5162C25.4516 13.8484 26.2852 11.7698 27.9526 10.2803C29.6421 8.79084 31.6429 8.0461 33.955 8.0461C36.2892 8.0461 38.3012 8.79084 39.9907 10.2803ZM31.9875 13.9151C31.4095 14.5376 31.1205 15.4046 31.1205 16.5162C31.1205 17.6277 31.4095 18.4947 31.9875 19.1172C32.5655 19.7397 33.2547 20.0398 34.055 20.0176C34.8331 19.9953 35.5 19.6841 36.0558 19.0839C36.6338 18.4614 36.9228 17.6055 36.9228 16.5162C36.9228 15.4268 36.6338 14.5821 36.0558 13.9818C35.5 13.3593 34.8331 13.037 34.055 13.0148C33.2547 12.9925 32.5655 13.2926 31.9875 13.9151Z" fill="#88C057"/>
<path d="M164.176 3.44623V8.58115H169.242V12.7166H164.176V18.5064C164.176 19.4483 164.486 20.1261 165.106 20.5396C165.727 20.9532 166.416 21.137 167.174 21.091C167.932 21.0451 168.713 20.8728 169.518 20.5741L170 24.9508C168.507 25.3644 167.094 25.5827 165.761 25.6056C164.429 25.6286 163.199 25.4448 162.074 25.0542C160.948 24.6407 160.052 23.894 159.386 22.8142C158.742 21.7114 158.421 20.3214 158.421 18.6442V12.7166L152.821 12.3376V8.58115H158.421L159.075 3.44623H164.176Z" fill="#FF7400"/>
<path d="M150.003 8.13316C153.104 8.17911 155.287 9.13258 156.551 10.9936C157.837 12.8545 158.101 15.2784 157.343 18.2651H147.039C147.269 20.0342 148.647 20.9188 151.174 20.9188C152.139 20.9188 153.162 20.8154 154.242 20.6086C155.344 20.3789 156.195 20.1261 156.792 19.8504L157.447 24.0893C155.264 25.1002 153.047 25.6172 150.795 25.6401C147.947 25.6401 145.626 24.859 143.834 23.2967C142.065 21.7344 141.18 19.5747 141.18 16.8177C141.18 14.9108 141.628 13.2796 142.524 11.924C143.42 10.5685 144.512 9.60356 145.798 9.02919C147.108 8.43184 148.509 8.13316 150.003 8.13316ZM147.073 14.75H152.45C152.519 14.0607 152.289 13.5323 151.76 13.1647C151.255 12.7971 150.658 12.6133 149.968 12.6133C149.302 12.6133 148.682 12.8086 148.107 13.1992C147.556 13.5668 147.211 14.0837 147.073 14.75Z" fill="#FF7400"/>
<path d="M144.692 25.1921H138.799V15.6804C138.822 14.7844 138.593 14.0951 138.11 13.6127C137.651 13.1072 137.076 12.843 136.387 12.82C135.629 12.82 134.974 13.0842 134.423 13.6127C133.871 14.1181 133.596 14.8418 133.596 15.7838V25.1921H127.737V13.6471C127.737 13.2106 127.725 12.9234 127.702 12.7856C127.702 12.6477 127.656 12.4754 127.565 12.2686C127.496 12.0389 127.358 11.901 127.151 11.8551C126.967 11.7861 126.692 11.7517 126.324 11.7517V8.54667C126.99 8.38585 127.679 8.28246 128.392 8.23651C129.127 8.16758 129.885 8.17907 130.666 8.27097C131.447 8.36287 132.091 8.62708 132.596 9.06361C133.125 9.50013 133.4 10.0975 133.423 10.8557C133.883 10.0056 134.549 9.3508 135.422 8.8913C136.295 8.4318 137.226 8.20205 138.213 8.20205C140.488 8.20205 142.142 8.8913 143.176 10.2698C144.233 11.6253 144.738 13.4289 144.692 15.6804V25.1921Z" fill="#FF7400"/>
<path d="M122.512 22.8831C122.076 23.7792 121.352 24.4454 120.341 24.882C119.353 25.2955 118.296 25.5023 117.171 25.5023C115.562 25.5023 114.161 25.0198 112.966 24.0549C111.795 23.0899 111.186 21.8263 111.14 20.264C111.048 18.2422 111.599 16.7143 112.794 15.6805C113.989 14.6236 115.585 14.0952 117.584 14.0952C119.101 14.0952 120.341 14.4053 121.306 15.0257V14.5087C121.306 13.2451 120.112 12.6133 117.722 12.6133C115.838 12.6133 114.31 12.912 113.139 13.5093L112.449 9.33935C114.241 8.53523 116.344 8.13316 118.756 8.13316C121.237 8.13316 123.236 8.6501 124.752 9.68398C126.269 10.6949 127.027 12.3606 127.027 14.681V20.0227C127.027 20.5282 127.038 20.8958 127.061 21.1255C127.107 21.3323 127.234 21.5276 127.441 21.7114C127.647 21.8722 127.969 21.9526 128.406 21.9526V25.1577C124.752 26.0077 122.788 25.2496 122.512 22.8831ZM121.272 18.9544V18.6098C120.514 18.0584 119.641 17.8056 118.653 17.8516C118.009 17.8975 117.515 18.0928 117.171 18.4375C116.849 18.7821 116.746 19.2531 116.861 19.8504C116.952 20.6316 117.469 21.0222 118.411 21.0222C119.101 21.0222 119.744 20.8384 120.341 20.4708C120.962 20.1032 121.272 19.5977 121.272 18.9544Z" fill="#FF7400"/>
<path d="M105.407 0H111.197V18.5753C111.197 19.6322 111.438 20.3329 111.921 20.6775C112.426 21.0221 113.15 21.1255 114.092 20.9877L114.264 25.3644C111.461 25.8699 109.279 25.6286 107.716 24.6407C106.177 23.6528 105.407 21.6425 105.407 18.6098V0Z" fill="#FF7400"/>
<path d="M94.5937 10.6834V10.8212C95.0532 9.94819 95.708 9.27043 96.5581 8.78795C97.4311 8.30548 98.3731 8.06424 99.384 8.06424C101.727 8.11019 103.554 8.96026 104.864 10.6145C106.173 12.2687 106.828 14.3134 106.828 16.7488C106.828 18.7706 106.288 20.5626 105.208 22.125C104.151 23.6643 102.796 24.6867 101.142 25.1921C99.5104 25.6746 97.7068 25.5597 95.731 24.8475V33.7044H89.8724V13.6816C89.8724 13.2221 89.8609 12.9235 89.8379 12.7856C89.8379 12.6478 89.792 12.464 89.7001 12.2342C89.6311 12.0045 89.4933 11.8666 89.2865 11.8207C89.1027 11.7517 88.8385 11.7173 88.4939 11.7173V8.51225C89.1142 8.3744 89.723 8.2825 90.3204 8.23655C90.9407 8.16763 91.5955 8.16763 92.2847 8.23655C92.974 8.30548 93.5254 8.54671 93.9389 8.96026C94.3755 9.37382 94.5937 9.94819 94.5937 10.6834ZM95.5931 16.1629V19.8504C97.0176 20.5167 98.2582 20.5626 99.3151 19.9883C100.395 19.4139 100.935 18.3341 100.935 16.7488C100.935 15.7838 100.682 14.9453 100.177 14.233C99.6942 13.5208 99.0049 13.1877 98.1089 13.2336C97.3507 13.2336 96.7419 13.5323 96.2824 14.1296C95.8229 14.704 95.5931 15.3818 95.5931 16.1629Z" fill="#FF7400"/>
<g clip-path="url(#clip0)">
<path d="M74.0901 30.5846C78.9982 30.5846 82.9771 26.6057 82.9771 21.6975C82.9771 16.7894 78.9982 12.8105 74.0901 12.8105C69.1819 12.8105 65.203 16.7894 65.203 21.6975C65.203 26.6057 69.1819 30.5846 74.0901 30.5846Z" fill="#285680"/>
<path d="M74.0901 12.8105C72.8551 12.8105 71.6796 13.0627 70.611 13.5178C70.5623 13.8086 70.3192 14.3054 70.3266 14.4638C70.3609 14.4706 72.586 12.1961 72.3099 13.7314C72.1319 14.7197 70.3131 14.7139 70.3913 15.7089C72.3023 16.4582 72.9688 14.2864 74.5921 14.2953C75.1336 14.2983 76.5202 13.4421 76.7847 13.6165C77.8561 14.3222 76.5399 16.8241 75.7201 15.9915C74.9319 15.2033 73.8072 16.2676 73.8578 17.4967C74.2675 17.5151 74.4425 16.3335 74.8109 16.7275C75.2166 17.1618 75.0701 18.0361 74.5087 18.2368C73.9436 18.4388 71.7271 16.7383 72.2716 18.0272C72.8704 19.4577 70.4777 20.5631 72.8931 19.9863C74.0319 19.7133 73.6534 20.5799 74.1906 20.9933C74.8305 21.4846 74.5473 20.3148 75.0137 20.4929C75.6925 20.7555 74.897 21.4322 75.9601 20.9409C77.207 20.3721 76.7384 21.259 77.1203 21.8388C77.8361 22.9212 79.5955 23.9601 80.5176 22.5296C80.7348 22.1922 80.5954 19.5242 81.964 21.3139C82.8331 22.4508 82.5349 19.9707 82.6526 19.3192C81.6125 15.5664 78.1741 12.8105 74.0901 12.8105Z" fill="#24AE5F"/>
<path d="M75.291 25.7066L73.6522 24.4783L72.5535 24.5215L71.4139 24.163L70.5218 23.5479L68.4983 24.0156L67.6638 24.4192L66.7353 25.6701L67.0638 27.1361C67.1576 27.2572 67.2547 27.3758 67.3546 27.4919L69.0732 28.2942L70.2331 28.4508L70.9232 29.8672L70.9441 30.0097C71.9222 30.3802 72.9823 30.5846 74.0901 30.5846C74.8544 30.5846 75.596 30.4881 76.3039 30.3064L76.5371 28.9139L77.5971 28.0537L78.0374 26.6805L75.8243 26.6713L75.291 25.7066Z" fill="#FAC176"/>
<path d="M65.318 23.1217C65.3602 23.118 65.3658 23.1143 65.3694 23.1106C65.7669 22.7135 66.0979 22.647 66.4291 22.0509C66.7604 21.4549 66.3629 21.4549 66.4291 20.4614C66.4953 19.4679 66.3629 19.9315 66.4291 18.8718C66.453 18.4906 66.4129 18.281 65.9495 18.1311C65.4706 19.2233 65.203 20.4289 65.203 21.6976C65.203 22.1824 65.2432 22.6577 65.318 23.1217Z" fill="#88C057"/>
<path d="M74.3965 29.0524C74.0646 29.0269 72.8388 28.6439 72.5578 28.133C72.2768 27.6222 71.6639 26.754 71.6385 26.9072C71.621 27.0114 68.8464 26.0666 66.9403 25.394L66.7353 25.6701L67.0638 27.1361C67.1576 27.2572 67.2547 27.3758 67.3546 27.4919L69.0732 28.2942L70.2331 28.4508L70.9232 29.8672L70.9441 30.0097C71.9222 30.3802 72.9823 30.5846 74.0901 30.5846C74.8544 30.5846 75.596 30.4881 76.3039 30.3063L76.4807 29.2506C76.3247 29.2019 76.1448 29.1376 75.9288 29.0524C75.086 28.7205 74.7284 29.0778 74.3965 29.0524Z" fill="#FAC176"/>
<path d="M77.597 28.0537L78.0374 26.6805L75.8242 26.6713L75.2907 25.7066L73.6518 24.4783L72.5532 24.5215L71.4135 24.163L70.5214 23.5479L68.498 24.0156L67.6638 24.4192L66.9403 25.3937C68.8464 26.0666 71.621 27.0114 71.6385 26.9072C71.6639 26.754 72.2768 27.6222 72.5578 28.133C72.8388 28.6439 74.0646 29.0269 74.3965 29.0524C74.7284 29.0778 75.086 28.7205 75.9287 29.0524C76.1448 29.1376 76.3247 29.2019 76.4807 29.2506L76.537 28.9139L77.597 28.0537Z" fill="#88C057"/>
<path d="M77.438 13.4703C77.3786 14.5919 77.3348 15.4025 77.3348 15.4025L75.6223 17.1149C75.6223 17.1149 77.2275 19.4157 77.3348 19.6832C77.4417 19.9508 78.7794 20.2719 79.0472 20.1114C79.3147 19.9508 80.3315 19.0946 80.7596 19.6832C81.0575 20.093 81.0192 20.4506 81.2024 20.7022C81.3287 20.704 81.4865 20.7889 81.6833 20.9872C81.9615 21.0705 82.2787 21.1524 82.5612 21.2207C82.655 20.6722 82.5855 19.6937 82.6529 19.3192C81.9143 16.6561 79.9653 14.5009 77.438 13.4703Z" fill="#88C057"/>
<path d="M78.4815 13.9769C78.4257 15.0354 78.3804 15.875 78.3804 15.875L77.1546 17.1008C77.1546 17.1008 78.3037 18.748 78.3804 18.9395C78.457 19.1311 79.4146 19.3609 79.6062 19.246C79.7977 19.1311 80.5255 18.5182 80.8319 18.9395C81.1384 19.3609 80.9469 19.7057 81.4448 19.8589C81.8656 19.9885 82.446 20.1169 82.617 20.1537C82.6195 19.8129 82.6204 19.4976 82.6526 19.3192C82.0197 17.0356 80.4958 15.1258 78.4815 13.9769Z" fill="#FAC176"/>
</g>
<g clip-path="url(#clip1)">
<path d="M90.0315 5.40198C90.062 5.43312 90.0923 5.46453 90.1223 5.49613C90.0923 5.46453 90.062 5.43312 90.0315 5.40198Z" fill="#FFD042"/>
<path d="M90.4318 5.83781C90.4879 5.90292 90.5431 5.96885 90.5974 6.03551C90.5431 5.96885 90.4879 5.90295 90.4318 5.83781Z" fill="#FFD042"/>
<path d="M90.1465 5.52164C90.2038 5.58232 90.2604 5.64377 90.3161 5.70601C90.2604 5.64377 90.2038 5.58232 90.1465 5.52164Z" fill="#FFD042"/>
<path d="M88.8521 4.38503C88.8813 4.40619 88.9104 4.42736 88.9393 4.44883C88.9104 4.42732 88.8813 4.40615 88.8521 4.38503Z" fill="#FFD042"/>
<path d="M89.7202 5.09871C89.7509 5.12726 89.7813 5.15608 89.8117 5.18502C89.7813 5.15608 89.7509 5.12726 89.7202 5.09871Z" fill="#FFD042"/>
<path d="M89.0062 4.4994C89.0525 4.53447 89.0985 4.56991 89.1441 4.60581C89.0985 4.56991 89.0525 4.53447 89.0062 4.4994Z" fill="#FFD042"/>
<path d="M90.6099 6.0509C90.6389 6.08661 90.6676 6.12255 90.696 6.15872C90.6676 6.12255 90.6389 6.08661 90.6099 6.0509Z" fill="#FFD042"/>
<path d="M89.1973 4.64803C89.2622 4.69992 89.3265 4.75253 89.3899 4.80606C89.3264 4.75253 89.2622 4.69992 89.1973 4.64803Z" fill="#FFD042"/>
<path d="M89.5283 4.92555C89.5892 4.97908 89.6494 5.03329 89.7089 5.08834C89.6494 5.03325 89.5892 4.97904 89.5283 4.92555Z" fill="#FFD042"/>
<path d="M89.3945 4.80994C89.425 4.83575 89.4553 4.86187 89.4855 4.88806C89.4553 4.86187 89.425 4.83575 89.3945 4.80994Z" fill="#FFD042"/>
<path d="M90.3283 5.71956C90.3582 5.7531 90.3879 5.78683 90.4173 5.82079C90.3878 5.78687 90.3582 5.7531 90.3283 5.71956Z" fill="#FFD042"/>
<path d="M84.8973 20.7588C84.7504 20.783 84.6023 20.8036 84.4531 20.821C84.6023 20.8037 84.7504 20.7829 84.8973 20.7588Z" fill="#FFD042"/>
<path d="M84.3396 20.8337C84.3066 20.8372 84.2734 20.8402 84.2403 20.8433C84.2734 20.8402 84.3066 20.8372 84.3396 20.8337Z" fill="#FFD042"/>
<path d="M85.1054 20.7222C85.0555 20.7315 85.0056 20.7407 84.9554 20.7493C85.0056 20.7407 85.0555 20.7315 85.1054 20.7222Z" fill="#FFD042"/>
<path d="M84.1184 20.8538C84.0867 20.8564 84.055 20.8587 84.0233 20.861C84.055 20.8587 84.0867 20.8564 84.1184 20.8538Z" fill="#FFD042"/>
<path d="M83.8931 20.869C83.8635 20.8707 83.8338 20.8724 83.8041 20.8738C83.8338 20.8724 83.8635 20.8707 83.8931 20.869Z" fill="#FFD042"/>
<path d="M85.3141 20.6806C85.2613 20.6918 85.2083 20.7025 85.1552 20.7128C85.2083 20.7025 85.2613 20.6917 85.3141 20.6806Z" fill="#FFD042"/>
<path d="M92.5994 10.9753C92.6019 11.0045 92.6046 11.0336 92.6068 11.063C92.6046 11.0336 92.6019 11.0045 92.5994 10.9753Z" fill="#FFD042"/>
<path d="M92.619 11.2523C92.6203 11.2759 92.6213 11.2997 92.6224 11.3234C92.6213 11.2997 92.6203 11.2759 92.619 11.2523Z" fill="#FFD042"/>
<path d="M92.6281 11.4713C92.6288 11.4932 92.6294 11.5151 92.63 11.5371C92.6295 11.5151 92.6288 11.4932 92.6281 11.4713Z" fill="#FFD042"/>
<path d="M92.5775 10.75C92.5816 10.7871 92.5855 10.8243 92.5891 10.8616C92.5855 10.8243 92.5816 10.7871 92.5775 10.75Z" fill="#FFD042"/>
<path d="M88.1228 3.90634C88.1496 3.92222 88.1764 3.93813 88.2031 3.95427C88.1764 3.93813 88.1496 3.92222 88.1228 3.90634Z" fill="#FFD042"/>
<path d="M85.6598 2.89359C85.6774 2.89807 85.6948 2.90274 85.7123 2.9073C85.6948 2.90274 85.6774 2.89807 85.6598 2.89359Z" fill="#FFD042"/>
<path d="M85.4228 2.83743C85.4391 2.8411 85.4554 2.8447 85.4716 2.84848C85.4554 2.84473 85.4391 2.84114 85.4228 2.83743Z" fill="#FFD042"/>
<path d="M86.0956 3.01453C86.1151 3.02055 86.1345 3.02669 86.1539 3.03284C86.1345 3.02669 86.1151 3.02051 86.0956 3.01453Z" fill="#FFD042"/>
<path d="M85.2152 2.79327C85.2306 2.7964 85.246 2.79973 85.2613 2.80293C85.2459 2.79973 85.2306 2.7964 85.2152 2.79327Z" fill="#FFD042"/>
<path d="M88.6747 4.2594C88.7127 4.28567 88.7505 4.31224 88.7881 4.33908C88.7505 4.31224 88.7127 4.28567 88.6747 4.2594Z" fill="#FFD042"/>
<path d="M86.2989 3.07895C86.3152 3.0844 86.3316 3.08969 86.3479 3.09521C86.3316 3.08969 86.3152 3.0844 86.2989 3.07895Z" fill="#FFD042"/>
<path d="M84.3022 2.65697C84.3119 2.65793 84.3215 2.65909 84.3312 2.6601C84.3215 2.65909 84.3119 2.65793 84.3022 2.65697Z" fill="#FFD042"/>
<path d="M83.8349 2.62234C83.841 2.62263 83.847 2.62309 83.8531 2.62338C83.847 2.62309 83.841 2.62263 83.8349 2.62234Z" fill="#FFD042"/>
<path d="M84.7624 2.71419C84.7753 2.71616 84.7881 2.71828 84.8011 2.72029C84.7881 2.71828 84.7753 2.71616 84.7624 2.71419Z" fill="#FFD042"/>
<path d="M84.9716 2.74808C84.988 2.75097 85.0045 2.75376 85.0209 2.75673C85.0045 2.75376 84.988 2.75094 84.9716 2.74808Z" fill="#FFD042"/>
<path d="M85.8654 2.94794C85.8816 2.95246 85.8979 2.95686 85.9141 2.9615C85.8979 2.95686 85.8816 2.95246 85.8654 2.94794Z" fill="#FFD042"/>
<path d="M86.522 3.15544C86.5433 3.16302 86.5644 3.17078 86.5856 3.17851C86.5644 3.17075 86.5433 3.16302 86.522 3.15544Z" fill="#FFD042"/>
<path d="M87.5398 3.5892C87.5703 3.60439 87.6006 3.61977 87.6308 3.63527C87.6005 3.61977 87.5702 3.60439 87.5398 3.5892Z" fill="#FFD042"/>
<path d="M87.7394 3.69177C87.7651 3.70533 87.7906 3.71895 87.8161 3.73277C87.7906 3.71895 87.7651 3.70533 87.7394 3.69177Z" fill="#FFD042"/>
<path d="M88.4939 4.13765C88.5219 4.15604 88.5498 4.17446 88.5777 4.19312C88.5498 4.17443 88.5219 4.15604 88.4939 4.13765Z" fill="#FFD042"/>
<path d="M88.3098 4.01987C88.3458 4.04237 88.3817 4.06509 88.4174 4.08809C88.3817 4.06509 88.3458 4.04233 88.3098 4.01987Z" fill="#FFD042"/>
<path d="M87.9309 3.79601C87.9647 3.81489 87.9983 3.83404 88.0318 3.8533C87.9983 3.83404 87.9647 3.81489 87.9309 3.79601Z" fill="#FFD042"/>
<path d="M86.7231 3.23001C86.7394 3.23625 86.7558 3.24231 86.7721 3.24867C86.7558 3.24235 86.7394 3.23625 86.7231 3.23001Z" fill="#FFD042"/>
<path d="M87.3446 3.49472C87.3688 3.5061 87.393 3.5176 87.4171 3.52921C87.393 3.5176 87.3688 3.5061 87.3446 3.49472Z" fill="#FFD042"/>
<path d="M86.9385 3.31567C86.9613 3.32508 86.9841 3.33463 87.0068 3.34423C86.9841 3.33463 86.9614 3.32512 86.9385 3.31567Z" fill="#FFD042"/>
<path d="M87.1366 3.40019C87.1621 3.41139 87.1875 3.42269 87.2129 3.43411C87.1875 3.42269 87.162 3.41139 87.1366 3.40019Z" fill="#FFD042"/>
<path d="M90.0201 5.3904C89.9625 5.33181 89.904 5.27402 89.8449 5.21695C89.904 5.27406 89.9625 5.33181 90.0201 5.3904Z" fill="#FFD042"/>
<path d="M90.9815 6.54273C91.0259 6.60569 91.0696 6.66916 91.1124 6.73323C91.0359 6.61871 90.9571 6.50595 90.8756 6.39513C90.9112 6.44359 90.9462 6.49251 90.9808 6.5417C90.981 6.54204 90.9813 6.54238 90.9815 6.54273Z" fill="#FFD042"/>
<path d="M83.3614 15.0105C82.0945 15.0105 80.8854 14.927 79.7784 14.7755C79.8561 15.2369 79.9687 15.6867 80.1137 16.122C77.8615 15.8467 75.9974 15.295 74.8834 14.586C74.8816 14.5849 74.8799 14.5838 74.8782 14.5826C74.8427 14.56 74.8081 14.5372 74.7742 14.5142C74.7695 14.511 74.7647 14.5079 74.7601 14.5047C74.7249 14.4807 74.6905 14.4565 74.657 14.4322C74.6537 14.4298 74.6506 14.4274 74.6474 14.4251C74.6183 14.4039 74.5901 14.3825 74.5624 14.361C74.5549 14.3552 74.5475 14.3494 74.54 14.3435C74.5097 14.3197 74.48 14.2957 74.4513 14.2716C74.7411 15.2666 75.1973 16.1916 75.7891 17.0161C76.2514 17.2174 76.7812 17.3998 77.3671 17.5594C77.5716 17.6151 77.7824 17.6682 78.0001 17.7181C78.1204 17.7457 78.2426 17.7723 78.3667 17.798C78.3667 17.798 78.3661 17.7969 78.365 17.7947C78.3629 17.7903 78.3587 17.7816 78.353 17.7692C78.3328 17.7258 78.2931 17.6371 78.252 17.5276C78.2403 17.4963 78.2284 17.4633 78.2169 17.4292C78.2054 17.3951 78.1942 17.3599 78.1838 17.3241C78.1744 17.2918 78.1657 17.2591 78.1578 17.2264C78.135 17.1321 78.1198 17.0375 78.1198 16.9528C78.1198 16.9365 78.1204 16.9205 78.1216 16.905C78.1238 16.8768 78.1283 16.8503 78.1348 16.8254C78.1409 16.8021 78.1494 16.7807 78.1599 16.761C78.1648 16.7518 78.1702 16.743 78.1762 16.7347C78.2187 16.6756 78.2878 16.64 78.3946 16.6421C78.4164 16.6425 78.4383 16.6433 78.4603 16.6445C78.4664 16.6448 78.4725 16.6453 78.4786 16.6457C78.4945 16.6467 78.5104 16.6477 78.5264 16.649C78.5348 16.6497 78.5433 16.6507 78.5517 16.6515C78.5654 16.6528 78.579 16.6541 78.5927 16.6556C78.6025 16.6568 78.6123 16.6581 78.6222 16.6594C78.6346 16.661 78.6471 16.6625 78.6597 16.6643C78.6699 16.6657 78.6802 16.6675 78.6905 16.6691C78.7027 16.671 78.7148 16.6727 78.727 16.6748C78.7377 16.6767 78.7484 16.6787 78.759 16.6807C78.771 16.6828 78.7829 16.685 78.7949 16.6873C78.8059 16.6895 78.8169 16.6919 78.8278 16.6941C78.8396 16.6966 78.8513 16.699 78.8632 16.7016C78.8744 16.704 78.8857 16.7067 78.897 16.7094C78.9086 16.7121 78.9203 16.7147 78.932 16.7176C78.9434 16.7204 78.955 16.7234 78.9665 16.7264C78.978 16.7293 78.9895 16.7322 79.001 16.7353C79.0126 16.7384 79.0243 16.7417 79.036 16.7449C79.0476 16.7481 79.0591 16.7513 79.0707 16.7546C79.0823 16.7579 79.0938 16.7614 79.1054 16.7649C79.1172 16.7684 79.129 16.7718 79.1408 16.7755C79.1524 16.779 79.1639 16.7827 79.1755 16.7864C79.1874 16.7902 79.1994 16.794 79.2113 16.7978C79.2229 16.8016 79.2345 16.8055 79.2462 16.8094C79.2582 16.8135 79.2703 16.8175 79.2823 16.8216C79.2938 16.8255 79.3053 16.8296 79.3168 16.8337C79.3292 16.838 79.3415 16.8423 79.3539 16.8468C79.3652 16.8508 79.3765 16.855 79.3878 16.8592C79.4005 16.8638 79.4131 16.8684 79.4257 16.8732C79.4369 16.8774 79.4481 16.8816 79.4592 16.8859C79.4722 16.8909 79.4852 16.8958 79.4982 16.9009C79.5091 16.9051 79.52 16.9094 79.5309 16.9137C79.5443 16.919 79.5576 16.9243 79.571 16.9296C79.5816 16.9339 79.5923 16.9383 79.6029 16.9426C79.6168 16.9483 79.6306 16.9539 79.6444 16.9596C79.6546 16.9638 79.6648 16.9681 79.675 16.9724C79.6894 16.9784 79.7039 16.9845 79.7184 16.9906C79.728 16.9947 79.7377 16.9989 79.7474 17.003C79.7625 17.0095 79.7777 17.016 79.7928 17.0226C79.8019 17.0266 79.8111 17.0306 79.8202 17.0346C79.836 17.0415 79.8518 17.0485 79.8677 17.0555C79.8763 17.0593 79.8849 17.0632 79.8936 17.067C79.9102 17.0745 79.9269 17.0819 79.9435 17.0895C79.9511 17.0929 79.9586 17.0963 79.9661 17.0997C79.9843 17.1079 80.0025 17.1162 80.0207 17.1246C80.0267 17.1273 80.0326 17.1301 80.0386 17.1329C80.0584 17.142 80.0783 17.1511 80.0981 17.1604C80.1027 17.1625 80.1073 17.1646 80.1119 17.1668C80.1335 17.1768 80.155 17.1869 80.1766 17.197C80.1793 17.1983 80.1821 17.1996 80.1848 17.2009C80.346 17.2767 80.5094 17.3557 80.675 17.4351C80.4563 17.0154 80.2663 16.5788 80.1148 16.1246C81.1289 16.2484 82.222 16.3158 83.3614 16.3158C84.4017 16.3158 85.4033 16.2596 86.3415 16.1556L87.5515 15.9896C89.6872 15.6371 91.3799 15.0234 92.2717 14.2708C91.982 15.2657 91.5261 16.1905 90.9345 17.015C89.1772 17.7806 86.4396 18.3197 83.3614 18.2738C82.4313 18.2599 81.5229 17.8417 80.6691 17.4323C81.074 18.2103 81.5887 18.9236 82.1932 19.5523C82.1949 19.5523 82.1964 19.5524 82.198 19.5525C82.1989 19.5534 82.1999 19.5543 82.2008 19.5553C82.5812 19.5709 82.9685 19.5791 83.3614 19.5791C85.506 19.5791 87.4834 19.3388 89.0817 18.935C88.0027 19.7703 86.7316 20.3755 85.3442 20.6742C89.5117 19.7792 92.6327 16.1228 92.6327 11.7474C92.6327 12.0526 92.6168 12.3543 92.5871 12.6519C91.4327 14.0139 87.7408 15.0105 83.3614 15.0105Z" fill="#FFD042"/>
<path d="M83.6253 2.6144C83.6086 2.61393 83.5918 2.61351 83.5751 2.61316C83.5764 2.6132 83.5777 2.61324 83.579 2.61328C83.5944 2.61358 83.6099 2.61393 83.6253 2.6144Z" fill="#FFD042"/>
<path d="M90.8055 6.30089C90.8084 6.30482 90.8112 6.30885 90.8141 6.31277C90.8306 6.33466 90.8471 6.35652 90.8633 6.37856C90.8098 6.30603 90.7553 6.23431 90.6997 6.16342C90.7354 6.20888 90.7705 6.25483 90.8053 6.30097C90.8054 6.30093 90.8054 6.30093 90.8055 6.30089Z" fill="#FFD042"/>
<path d="M84.0972 2.63905C84.0853 2.63812 84.0734 2.63712 84.0615 2.63623C84.0681 2.63673 84.0747 2.63735 84.0813 2.63785C84.0866 2.63828 84.0919 2.63866 84.0972 2.63905Z" fill="#FFD042"/>
<path d="M91.2749 6.98915C91.3383 7.09167 91.4005 7.19503 91.46 7.30007C89.7549 8.20802 86.7658 8.81048 83.3614 8.81048C82.5083 8.81048 81.6813 8.77264 80.8941 8.70164C80.4962 9.37918 80.1842 10.1116 79.9725 10.8848C79.9732 10.8849 79.9739 10.885 79.9746 10.8851C79.9745 10.8853 79.9745 10.8854 79.9745 10.8856C80.2969 10.9269 80.6272 10.9628 80.9652 10.9923L80.9651 10.992C82.7281 11.1098 83.8806 11.8454 84.9694 12.0375C85.2605 12.0889 85.4731 11.7742 85.3072 11.5329L84.9741 11.0488C88.2658 10.8597 90.9851 10.1008 92.2306 9.08147C92.3892 9.59462 92.5034 10.1268 92.5687 10.6737C92.3982 9.23855 91.8904 7.9052 91.1252 6.75243C91.177 6.83036 91.2276 6.90909 91.2769 6.98869C91.2763 6.98888 91.2756 6.989 91.2749 6.98915ZM83.8249 11.1382C83.5689 11.1382 83.3614 11.0019 83.3614 10.8337C83.3614 10.6655 83.5689 10.5291 83.8249 10.5291C84.0809 10.5291 84.2885 10.6655 84.2885 10.8337C84.2885 11.0019 84.0809 11.1382 83.8249 11.1382Z" fill="#FFD042"/>
<path d="M84.5624 2.68668C84.5459 2.68455 84.5293 2.68254 84.5127 2.6805C84.5281 2.68239 84.5436 2.68428 84.5589 2.68625C84.5601 2.68641 84.5612 2.68656 84.5624 2.68668Z" fill="#FFD042"/>
<path d="M83.5834 20.8815C83.6083 20.881 83.6331 20.8799 83.6579 20.8792C83.6331 20.8799 83.6083 20.881 83.5834 20.8815Z" fill="#FFD042"/>
<path d="M81.5678 20.7128C81.5145 20.7025 81.4613 20.6917 81.4083 20.6805C81.4613 20.6917 81.5145 20.7025 81.5678 20.7128Z" fill="#FF9300"/>
<path d="M83.1393 20.8815C83.1144 20.881 83.0896 20.8799 83.0648 20.8792C83.0896 20.8799 83.1144 20.881 83.1393 20.8815Z" fill="#FF9300"/>
<path d="M81.7674 20.7493C81.7171 20.7407 81.667 20.7315 81.617 20.7221C81.667 20.7315 81.7171 20.7407 81.7674 20.7493Z" fill="#FF9300"/>
<path d="M82.2703 20.821C82.1207 20.8037 81.9722 20.783 81.825 20.7587C81.9723 20.7829 82.1207 20.8037 82.2703 20.821Z" fill="#FF9300"/>
<path d="M82.6995 20.861C82.6677 20.8587 82.6359 20.8564 82.6042 20.8538C82.6359 20.8564 82.6677 20.8587 82.6995 20.861Z" fill="#FF9300"/>
<path d="M82.4828 20.8433C82.4495 20.8402 82.4162 20.8372 82.383 20.8337C82.4162 20.8372 82.4495 20.8402 82.4828 20.8433Z" fill="#FF9300"/>
<path d="M82.9186 20.8738C82.8889 20.8724 82.8593 20.8707 82.8297 20.869C82.8593 20.8707 82.8889 20.8724 82.9186 20.8738Z" fill="#FF9300"/>
<path d="M78.3134 19.409C78.1681 19.3158 78.0256 19.2186 77.8861 19.1178C77.8707 19.1067 77.8555 19.0956 77.8402 19.0844C77.7732 19.0354 77.7067 18.9859 77.6412 18.9351C77.6411 18.9351 77.641 18.935 77.641 18.935C77.641 18.935 77.6411 18.935 77.6411 18.935C77.7157 18.9539 77.7914 18.9722 77.8676 18.9903C77.8793 18.9931 77.891 18.9959 77.9028 18.9987C77.9815 19.0172 78.061 19.0354 78.1414 19.0531C78.1417 19.0532 78.1419 19.0532 78.1422 19.0533C79.336 19.3163 80.7131 19.4907 82.1932 19.5522C81.5887 18.9235 81.0739 18.2102 80.6691 17.4322C80.5056 17.3538 80.3441 17.2757 80.1849 17.2008C80.1821 17.1995 80.1794 17.1982 80.1767 17.197C80.1551 17.1869 80.1336 17.1768 80.112 17.1668C80.1074 17.1646 80.1028 17.1624 80.0982 17.1603C80.0784 17.1511 80.0585 17.1419 80.0387 17.1328C80.0327 17.1301 80.0267 17.1273 80.0208 17.1246C80.0026 17.1162 79.9844 17.1079 79.9662 17.0997C79.9587 17.0962 79.9511 17.0928 79.9437 17.0894C79.927 17.0819 79.9103 17.0744 79.8937 17.067C79.8851 17.0632 79.8764 17.0593 79.8678 17.0555C79.8519 17.0484 79.8361 17.0415 79.8203 17.0346C79.8112 17.0306 79.802 17.0265 79.7929 17.0226C79.7777 17.016 79.7626 17.0095 79.7475 17.003C79.7378 16.9989 79.7281 16.9947 79.7185 16.9906C79.704 16.9844 79.6895 16.9784 79.6751 16.9723C79.6649 16.9681 79.6547 16.9638 79.6445 16.9596C79.6307 16.9539 79.6168 16.9482 79.6031 16.9426C79.5924 16.9383 79.5817 16.9339 79.5711 16.9296C79.5577 16.9242 79.5444 16.9189 79.531 16.9137C79.5201 16.9094 79.5092 16.9051 79.4983 16.9008C79.4853 16.8958 79.4723 16.8908 79.4593 16.8859C79.4482 16.8816 79.437 16.8773 79.4259 16.8731C79.4132 16.8684 79.4006 16.8638 79.388 16.8591C79.3766 16.855 79.3653 16.8508 79.354 16.8467C79.3416 16.8423 79.3292 16.838 79.3169 16.8336C79.3054 16.8296 79.2939 16.8255 79.2824 16.8216C79.2703 16.8174 79.2583 16.8134 79.2463 16.8094C79.2347 16.8055 79.223 16.8016 79.2115 16.7978C79.1995 16.7939 79.1875 16.7902 79.1756 16.7864C79.1641 16.7827 79.1525 16.779 79.141 16.7755C79.1291 16.7718 79.1173 16.7683 79.1055 16.7648C79.0939 16.7614 79.0824 16.7579 79.0708 16.7546C79.0592 16.7512 79.0477 16.7481 79.0361 16.7449C79.0244 16.7417 79.0127 16.7383 79.0011 16.7353C78.9896 16.7322 78.9781 16.7293 78.9666 16.7263C78.9551 16.7234 78.9436 16.7204 78.9321 16.7176C78.9204 16.7147 78.9087 16.7121 78.8971 16.7093C78.8858 16.7067 78.8745 16.704 78.8633 16.7015C78.8515 16.6989 78.8397 16.6965 78.8279 16.6941C78.817 16.6918 78.806 16.6894 78.7951 16.6873C78.783 16.6849 78.7711 16.6828 78.7591 16.6806C78.7485 16.6787 78.7378 16.6766 78.7271 16.6748C78.7149 16.6727 78.7028 16.6709 78.6906 16.669C78.6803 16.6674 78.67 16.6657 78.6598 16.6642C78.6472 16.6624 78.6348 16.6609 78.6223 16.6593C78.6124 16.6581 78.6026 16.6567 78.5928 16.6556C78.5791 16.654 78.5654 16.6528 78.5518 16.6515C78.5433 16.6507 78.5349 16.6497 78.5265 16.649C78.5105 16.6476 78.4946 16.6466 78.4787 16.6457C78.4726 16.6453 78.4665 16.6448 78.4604 16.6444C78.4384 16.6433 78.4165 16.6424 78.3947 16.642C78.288 16.64 78.2188 16.6756 78.1763 16.7347C78.1703 16.743 78.165 16.7518 78.16 16.761C78.1495 16.7806 78.141 16.802 78.1349 16.8254C78.1284 16.8503 78.1239 16.8768 78.1217 16.905C78.1205 16.9205 78.12 16.9364 78.1199 16.9527C78.1199 17.0375 78.1351 17.132 78.1579 17.2264C78.1658 17.2591 78.1745 17.2918 78.1839 17.3241C78.1944 17.3598 78.2055 17.3951 78.217 17.4292C78.2285 17.4633 78.2404 17.4963 78.2521 17.5275C78.2932 17.637 78.3329 17.7258 78.3531 17.7691C78.3588 17.7815 78.363 17.7902 78.3651 17.7946C78.3662 17.7969 78.3668 17.798 78.3668 17.798C78.2427 17.7723 78.1205 17.7456 78.0002 17.7181C77.7826 17.6681 77.5716 17.6151 77.3672 17.5594C76.7813 17.3998 76.2515 17.2173 75.7892 17.0161C75.1974 16.1915 74.7412 15.2666 74.4514 14.2715C74.4514 14.2715 74.4514 14.2715 74.4514 14.2715C74.4801 14.2957 74.5099 14.3196 74.5401 14.3435C74.5476 14.3493 74.5551 14.3551 74.5625 14.3609C74.5902 14.3824 74.6184 14.4038 74.6475 14.425C74.6507 14.4273 74.6538 14.4297 74.6571 14.4321C74.6906 14.4565 74.725 14.4806 74.7602 14.5046C74.7649 14.5078 74.7696 14.511 74.7743 14.5141C74.8082 14.5371 74.8428 14.5599 74.8783 14.5826C74.88 14.5837 74.8818 14.5848 74.8835 14.5859C75.9975 15.295 77.8616 15.8467 80.1138 16.1219C79.9688 15.6866 79.8562 15.2368 79.7785 14.7754C77.4017 14.4501 75.4966 13.8108 74.5063 13.0087C74.5028 13.0058 74.4994 13.003 74.4959 13.0002C74.4661 12.9758 74.4372 12.9514 74.4091 12.9268C74.4045 12.9228 74.3999 12.9189 74.3954 12.9149C74.3652 12.8881 74.3359 12.8612 74.3077 12.8341C74.3036 12.8302 74.2998 12.8262 74.2957 12.8222C74.2724 12.7995 74.2498 12.7766 74.2279 12.7537C74.2212 12.7466 74.2145 12.7396 74.2079 12.7325C74.183 12.7058 74.1588 12.6789 74.1359 12.652C74.1358 12.6519 74.1358 12.6519 74.1358 12.6518C74.1059 12.3543 74.0901 12.0526 74.0901 11.7474C74.0901 16.1229 77.2112 19.7794 81.3789 20.6742C80.2768 20.437 79.2484 20.0061 78.3311 19.4203C78.3252 19.4165 78.3192 19.4128 78.3134 19.409ZM79.9619 17.5341C80.3353 17.7498 80.5993 18.01 80.58 18.4478C80.5607 18.8856 78.7837 17.9909 78.7257 17.5341C78.6678 17.0772 79.4903 17.2616 79.9619 17.5341Z" fill="#FF9300"/>
<path d="M83.918 2.62717C83.9548 2.62937 83.9915 2.63169 84.0282 2.63427C83.9915 2.63169 83.9548 2.62933 83.918 2.62717Z" fill="#FF9300"/>
<path d="M83.3614 2.61041C83.4168 2.61041 83.4722 2.61095 83.5275 2.61196C83.4722 2.61095 83.4168 2.61041 83.3614 2.61041Z" fill="#FF9300"/>
<path d="M82.688 2.6348C82.7323 2.63159 82.7767 2.62873 82.8212 2.62614C82.7767 2.62873 82.7323 2.63163 82.688 2.6348Z" fill="#FF9300"/>
<path d="M83.3614 2.61041C83.3069 2.61041 83.2526 2.61099 83.1984 2.61192C83.206 2.6118 83.2137 2.61184 83.2214 2.61169C83.268 2.61088 83.3146 2.61041 83.3614 2.61041Z" fill="#FF9300"/>
<path d="M91.2749 6.98913C91.2756 6.98902 91.2763 6.98887 91.2769 6.98875C91.2276 6.90918 91.177 6.83045 91.1252 6.75249C91.121 6.74605 91.1167 6.73966 91.1124 6.73326C91.0696 6.66915 91.0259 6.60569 90.9815 6.54276C91.0838 6.68834 91.1812 6.8375 91.2749 6.98913Z" fill="#FF9300"/>
<path d="M87.5075 3.57524C87.5118 3.57738 87.5161 3.57947 87.5204 3.5816C87.5514 3.59698 87.5823 3.61255 87.613 3.62824C87.6355 3.63966 87.6579 3.65112 87.6802 3.66269C87.6959 3.67088 87.7117 3.67914 87.7274 3.68744C87.7649 3.7072 87.8023 3.72718 87.8395 3.74744C87.8437 3.74976 87.848 3.75208 87.8522 3.7544C87.8736 3.76605 87.895 3.77751 87.9163 3.78935C87.9238 3.79354 87.9317 3.79716 87.9392 3.80138C88.1285 3.90752 88.3134 4.02025 88.494 4.13884C88.4964 4.14044 88.4988 4.14223 88.5012 4.14383C88.2377 4.15548 87.9772 4.1784 87.7199 4.21133C87.5288 4.24456 87.3341 4.27567 87.1359 4.3046C84.9902 4.71786 83.1101 5.86081 81.7708 7.46004C81.7712 7.46004 81.7717 7.46008 81.772 7.46012C81.772 7.46023 81.7719 7.46031 81.7718 7.46042C82.2888 7.48974 82.8197 7.50519 83.3613 7.50519C84.0323 7.50519 84.6872 7.48182 85.3194 7.43731C85.4401 7.42882 85.56 7.41954 85.6791 7.40952L86.8086 7.28861C88.3845 7.08257 89.7565 6.7383 90.8052 6.30098C90.7704 6.25484 90.7353 6.20893 90.6996 6.16343C90.6984 6.16187 90.6972 6.16027 90.696 6.15871C90.6675 6.12255 90.6388 6.08661 90.6099 6.0509C90.6057 6.04576 90.6015 6.04066 90.5974 6.03556C90.5431 5.96889 90.4879 5.90296 90.4318 5.83785C90.427 5.83218 90.4221 5.82651 90.4172 5.82084C90.3878 5.78688 90.3582 5.75311 90.3283 5.71961C90.3242 5.71504 90.3201 5.71055 90.3161 5.70602C90.2604 5.64377 90.2038 5.58236 90.1464 5.52164C90.1384 5.51315 90.1304 5.50459 90.1223 5.49613C90.0923 5.46453 90.062 5.43313 90.0315 5.40198C90.0277 5.3981 90.0239 5.39429 90.0201 5.39045C89.9625 5.33186 89.904 5.27407 89.8449 5.217C89.8338 5.20634 89.8228 5.19564 89.8117 5.18502C89.7813 5.15609 89.7509 5.12723 89.7202 5.09871C89.7164 5.09521 89.7126 5.09182 89.7089 5.08836C89.6494 5.03331 89.5892 4.9791 89.5283 4.92557C89.5141 4.91304 89.4998 4.90056 89.4855 4.88811C89.4553 4.86192 89.425 4.83576 89.3945 4.80999C89.3929 4.80869 89.3914 4.8074 89.3899 4.8061C89.3264 4.75254 89.2621 4.69992 89.1973 4.64807C89.1796 4.63395 89.1619 4.61986 89.1441 4.60585C89.0985 4.56995 89.0525 4.53451 89.0062 4.49945C88.9839 4.48254 88.9617 4.46556 88.9393 4.44889C88.9104 4.42742 88.8812 4.40625 88.8521 4.38508C88.8308 4.36966 88.8095 4.35436 88.7881 4.33913C88.7505 4.31229 88.7127 4.28576 88.6746 4.25945C88.6424 4.23722 88.6101 4.21502 88.5776 4.19317C88.5498 4.17447 88.5218 4.15609 88.4938 4.1377C88.4684 4.12102 88.4429 4.10454 88.4173 4.08813C88.3816 4.06517 88.3457 4.04241 88.3097 4.01991C88.2743 3.99783 88.2388 3.9759 88.203 3.95431C88.1764 3.93817 88.1495 3.92226 88.1227 3.90638C88.0925 3.88853 88.0621 3.8709 88.0317 3.85335C87.9982 3.83405 87.9646 3.81494 87.9309 3.79605C87.8927 3.77473 87.8545 3.7536 87.816 3.73278C87.7906 3.719 87.765 3.70537 87.7393 3.69178C87.7033 3.6727 87.6671 3.65394 87.6307 3.63532C87.6005 3.61982 87.5701 3.60444 87.5397 3.58925C87.499 3.56896 87.4581 3.54894 87.4171 3.52922C87.3929 3.51764 87.3687 3.50615 87.3445 3.49472C87.3008 3.4742 87.2569 3.45399 87.2128 3.43412C87.1874 3.42269 87.162 3.41139 87.1365 3.4002C87.0934 3.38124 87.0502 3.36258 87.0067 3.34423C86.984 3.33464 86.9613 3.32512 86.9385 3.31568C86.8832 3.29287 86.8278 3.27041 86.772 3.24867C86.7558 3.24232 86.7394 3.23626 86.7231 3.23002C86.6774 3.21251 86.6315 3.1953 86.5855 3.17847C86.5643 3.17074 86.5432 3.16302 86.522 3.1554C86.4642 3.13477 86.4062 3.11451 86.3479 3.09495C86.3316 3.0895 86.3152 3.08429 86.2989 3.07892C86.2507 3.06308 86.2024 3.04759 86.1539 3.03251C86.1344 3.02646 86.115 3.0204 86.0956 3.01446C86.0353 2.99615 85.9748 2.97837 85.9141 2.96128C85.8979 2.95671 85.8816 2.95237 85.8654 2.94792C85.8145 2.93391 85.7635 2.92028 85.7123 2.9071C85.6948 2.90257 85.6773 2.89797 85.6598 2.89359C85.5973 2.87787 85.5345 2.86275 85.4716 2.84832C85.4553 2.84459 85.439 2.84105 85.4228 2.83744C85.3691 2.82544 85.3153 2.81387 85.2613 2.80279C85.2459 2.79963 85.2306 2.79636 85.2152 2.79327C85.1507 2.78037 85.0859 2.76819 85.0209 2.75661C85.0045 2.75368 84.988 2.75094 84.9716 2.74808C84.9149 2.7383 84.8581 2.72901 84.801 2.72025C84.7882 2.71827 84.7753 2.71614 84.7624 2.71424C84.696 2.7043 84.6294 2.6952 84.5626 2.68668C85.6092 2.82046 86.6006 3.12696 87.5075 3.57524Z" fill="#FF9300"/>
<path d="M90.9808 6.54169C90.9462 6.49251 90.9112 6.44359 90.8756 6.39512C90.8715 6.38956 90.8674 6.38408 90.8633 6.37856C90.8471 6.35652 90.8306 6.33467 90.8141 6.31277C90.8708 6.38819 90.9265 6.46445 90.9808 6.54169Z" fill="#FF9300"/>
<path d="M83.8605 2.62381C83.8576 2.62366 83.8548 2.62346 83.8519 2.62331C83.8462 2.623 83.8406 2.62261 83.8349 2.62234C83.8072 2.62095 83.7794 2.61995 83.7517 2.61879C83.788 2.6203 83.8243 2.62188 83.8605 2.62381Z" fill="#FF9300"/>
<path d="M84.1982 2.64757C84.1646 2.64455 84.1309 2.6417 84.0972 2.63903C84.0919 2.63861 84.0866 2.63826 84.0813 2.63783C84.1203 2.64088 84.1593 2.64409 84.1982 2.64757Z" fill="#FF9300"/>
<path d="M84.5589 2.68617C84.5435 2.68423 84.5281 2.68237 84.5127 2.6805C84.4763 2.67605 84.4398 2.67174 84.4033 2.66771C84.4553 2.67346 84.5072 2.67959 84.5589 2.68617Z" fill="#FF9300"/>
<path d="M84.3728 2.66466C84.359 2.66316 84.3451 2.66161 84.3312 2.66014C84.3215 2.65914 84.3119 2.65798 84.3022 2.65701C84.2824 2.65501 84.2626 2.65331 84.2428 2.65141C84.2862 2.65555 84.3296 2.65995 84.3728 2.66466Z" fill="#FF9300"/>
<path d="M83.6938 2.6164C83.671 2.61558 83.6482 2.61501 83.6253 2.61435C83.6098 2.61392 83.5944 2.61354 83.5789 2.61319C83.6173 2.61412 83.6556 2.61504 83.6938 2.6164Z" fill="#FF9300"/>
<path d="M83.1504 2.61304C83.1494 2.61304 83.1485 2.61308 83.1475 2.61311C83.1326 2.61346 83.1178 2.61377 83.1029 2.61416C83.08 2.61478 83.057 2.61547 83.0341 2.61628C83.0728 2.61493 83.1116 2.61393 83.1504 2.61304Z" fill="#FF9300"/>
<path d="M82.9823 2.61833C82.9538 2.61949 82.9253 2.62061 82.8968 2.622C82.8854 2.62258 82.8739 2.62324 82.8625 2.62386C82.9023 2.62173 82.9423 2.61992 82.9823 2.61833Z" fill="#FF9300"/>
<path d="M83.3614 2.61041C83.3146 2.61041 83.268 2.61088 83.2214 2.61169C83.268 2.61103 83.3146 2.61041 83.3614 2.61041Z" fill="#FF7400"/>
<path d="M87.8395 3.74744C87.8023 3.72718 87.7649 3.7072 87.7274 3.68744C87.7649 3.70724 87.8023 3.72715 87.8395 3.74744Z" fill="#FF7400"/>
<path d="M88.5012 4.14382C88.4988 4.14222 88.4965 4.14043 88.494 4.13883C88.3134 4.02024 88.1285 3.90751 87.9392 3.80137C87.9317 3.79715 87.9238 3.79353 87.9163 3.78934C87.895 3.7775 87.8736 3.76604 87.8523 3.75439C88.04 3.85711 88.2237 3.96603 88.4031 4.08089C88.1814 4.12749 87.9531 4.17077 87.7199 4.21132C87.9772 4.17839 88.2377 4.15547 88.5012 4.14382Z" fill="#FF7400"/>
<path d="M87.5217 3.58227C87.5169 3.57991 87.5122 3.57755 87.5075 3.57523C87.5122 3.57759 87.5169 3.57991 87.5217 3.58227Z" fill="#FF7400"/>
<path d="M87.6802 3.66269C87.6579 3.65112 87.6355 3.63966 87.613 3.62823C87.6355 3.63969 87.6579 3.65108 87.6802 3.66269Z" fill="#FF7400"/>
<path d="M76.1212 6.38462C76.1572 6.39867 76.1934 6.41264 76.2301 6.42646C76.2504 6.43411 76.2709 6.44169 76.2913 6.44927C76.3258 6.46202 76.3606 6.47466 76.3957 6.48719C76.4169 6.4948 76.4381 6.50241 76.4595 6.50995C76.4969 6.52309 76.5348 6.53607 76.5728 6.54897C76.5918 6.55545 76.6106 6.56199 76.6298 6.56839C76.6843 6.58659 76.7394 6.60459 76.7951 6.62234C76.8189 6.62991 76.8432 6.63734 76.8672 6.64484C76.9011 6.65546 76.9351 6.66604 76.9695 6.67651C76.9991 6.68549 77.029 6.69433 77.0589 6.7032C77.088 6.7118 77.1173 6.72037 77.1467 6.7289C77.1793 6.73834 77.2121 6.7477 77.2451 6.75699C77.2713 6.76438 77.2978 6.77165 77.3244 6.77896C77.3603 6.78886 77.3963 6.79875 77.4326 6.80846C77.4511 6.81337 77.4698 6.81817 77.4884 6.82308C77.6329 6.86111 77.7806 6.89781 77.9315 6.93303C77.9448 6.93615 77.958 6.93927 77.9714 6.94236C78.0209 6.95378 78.0708 6.96505 78.121 6.9762C78.1329 6.97883 78.1448 6.98146 78.1567 6.98408C78.2105 6.99592 78.2647 7.00761 78.3193 7.01907C78.3199 7.01918 78.3205 7.01934 78.3211 7.01945C79.3568 7.23691 80.5231 7.38934 81.7709 7.46008C83.1102 5.86085 84.9903 4.71789 87.136 4.30463C85.9774 4.47378 84.7026 4.56835 83.3614 4.56835C81.5125 4.56835 79.7884 4.38942 78.3232 4.08169C78.9376 3.68842 79.602 3.36471 80.3049 3.12178C80.2213 3.15037 80.1381 3.17969 80.0557 3.21071C80.0082 3.22857 79.9611 3.24715 79.914 3.26573C79.7933 3.31347 79.6738 3.36368 79.5556 3.41626C79.5152 3.43423 79.4745 3.45174 79.4344 3.47024C79.2864 3.53862 79.1401 3.61007 78.9965 3.68583C78.9898 3.68934 78.9829 3.6925 78.9762 3.69604C78.8171 3.78048 78.6607 3.86953 78.5073 3.96268C78.4952 3.97007 78.4834 3.97803 78.4712 3.98549C78.3359 4.06852 78.2031 4.15506 78.0726 4.24464C78.0446 4.26382 78.017 4.28351 77.9893 4.303C77.8708 4.38622 77.7544 4.47199 77.6402 4.56047C77.616 4.57916 77.5917 4.59763 77.5678 4.61651C77.153 4.94445 76.7672 5.30646 76.4152 5.69878C76.4018 5.71378 76.3887 5.72905 76.3753 5.74416C76.2716 5.8613 76.1709 5.98111 76.0733 6.10343C76.0588 6.12159 76.0442 6.13964 76.0299 6.15787C75.9922 6.20584 75.9554 6.25461 75.9185 6.30323C75.9685 6.32405 76.0194 6.34465 76.0709 6.36505C76.0875 6.3716 76.1044 6.37807 76.1212 6.38462Z" fill="#FF7400"/>
<path d="M81.1017 2.88503C81.0878 2.88846 81.0736 2.89108 81.0597 2.89455C80.8883 2.93776 80.7189 2.98637 80.5514 3.03887C80.512 3.05121 80.4734 3.0651 80.4343 3.07793C80.4304 3.07919 80.4266 3.08056 80.4228 3.08182C80.6582 3.004 80.8977 2.93513 81.1411 2.87585C81.128 2.87901 81.1148 2.88179 81.1017 2.88503Z" fill="#FF7400"/>
<path d="M91.46 7.30007C91.4005 7.19503 91.3383 7.09167 91.2749 6.98914C91.1812 6.83755 91.0838 6.68835 90.9815 6.54273C90.9813 6.54239 90.9811 6.54204 90.9808 6.5417C90.9265 6.46445 90.8708 6.38824 90.8141 6.31278C90.8112 6.30886 90.8084 6.30482 90.8055 6.3009C90.8054 6.30094 90.8054 6.30094 90.8053 6.30098C89.7565 6.7383 88.3845 7.08257 86.8086 7.28861L85.6791 7.40952C85.5601 7.41957 85.4402 7.42882 85.3194 7.43731C84.6872 7.48182 84.0323 7.50519 83.3614 7.50519C82.8198 7.50519 82.2889 7.48973 81.7718 7.46042C81.4465 7.84878 81.1524 8.26325 80.8949 8.70167C80.8864 8.70091 80.8779 8.70004 80.8693 8.69928C80.8776 8.70004 80.8858 8.70087 80.8941 8.70164C81.6813 8.77264 82.5083 8.81048 83.3614 8.81048C86.7658 8.81048 89.7549 8.20801 91.46 7.30007Z" fill="#FFEDB9"/>
<path d="M75.9941 7.63897C75.9765 7.63178 75.9587 7.62462 75.9412 7.61739C75.9587 7.62462 75.9765 7.63178 75.9941 7.63897Z" fill="#FFEDB9"/>
<path d="M75.7807 7.54939C75.7782 7.54826 75.7756 7.54713 75.7731 7.54601C75.7756 7.54717 75.7782 7.54826 75.7807 7.54939Z" fill="#FFEDB9"/>
<path d="M75.6157 7.47493C75.5996 7.4675 75.5839 7.46 75.568 7.4525C75.5838 7.46 75.5996 7.4675 75.6157 7.47493Z" fill="#FFEDB9"/>
<path d="M79.2425 8.49556C79.2216 8.49212 79.2006 8.48872 79.1798 8.48524C79.2006 8.48872 79.2216 8.49212 79.2425 8.49556Z" fill="#FFEDB9"/>
<path d="M76.1735 7.7099C76.1552 7.70289 76.1371 7.69577 76.119 7.68869C76.1371 7.69577 76.1552 7.70289 76.1735 7.7099Z" fill="#FFEDB9"/>
<path d="M78.9687 8.44952C78.94 8.44442 78.9116 8.43917 78.883 8.43399C78.9115 8.43921 78.94 8.44442 78.9687 8.44952Z" fill="#FFEDB9"/>
<path d="M78.7271 8.40556C78.6989 8.40019 78.6707 8.39486 78.6427 8.38937C78.6707 8.39486 78.6989 8.40019 78.7271 8.40556Z" fill="#FFEDB9"/>
<path d="M75.2628 7.30006C75.264 7.30071 75.2653 7.30136 75.2665 7.30201C75.2653 7.30136 75.264 7.30071 75.2628 7.30006Z" fill="#FFEDB9"/>
<path d="M78.1939 8.2978C78.168 8.29208 78.1424 8.28625 78.1167 8.28046C78.1424 8.28625 78.168 8.29208 78.1939 8.2978Z" fill="#FFEDB9"/>
<path d="M77.6993 8.18251C77.6876 8.17958 77.6759 8.17668 77.6643 8.17371C77.6759 8.17668 77.6876 8.17958 77.6993 8.18251Z" fill="#FFEDB9"/>
<path d="M77.9658 8.24649C77.9403 8.24051 77.9147 8.23452 77.8894 8.22845C77.9147 8.23452 77.9403 8.24051 77.9658 8.24649Z" fill="#FFEDB9"/>
<path d="M78.4477 8.35104C78.4315 8.34772 78.4153 8.34439 78.3992 8.34103C78.4153 8.34439 78.4315 8.34772 78.4477 8.35104Z" fill="#FFEDB9"/>
<path d="M77.4671 8.12277C77.4438 8.11656 77.4207 8.11028 77.3975 8.10403C77.4207 8.11028 77.4438 8.11656 77.4671 8.12277Z" fill="#FFEDB9"/>
<path d="M79.5326 8.54046C79.502 8.53586 79.4713 8.53126 79.4408 8.52655C79.4713 8.53126 79.502 8.53586 79.5326 8.54046Z" fill="#FFEDB9"/>
<path d="M76.3606 7.77987C76.3564 7.77829 76.3521 7.77676 76.3478 7.77522C76.3521 7.77676 76.3564 7.77829 76.3606 7.77987Z" fill="#FFEDB9"/>
<path d="M76.5947 7.86145C76.5747 7.85467 76.5545 7.84793 76.5346 7.84108C76.5545 7.84789 76.5747 7.85463 76.5947 7.86145Z" fill="#FFEDB9"/>
<path d="M76.792 7.92637C76.7713 7.91974 76.7509 7.91308 76.7304 7.90642C76.7509 7.91304 76.7714 7.91974 76.792 7.92637Z" fill="#FFEDB9"/>
<path d="M77.2534 8.06441C77.2308 8.05805 77.208 8.05169 77.1855 8.04526C77.208 8.05169 77.2308 8.05801 77.2534 8.06441Z" fill="#FFEDB9"/>
<path d="M77.0024 7.99171C76.9948 7.98937 76.9871 7.98711 76.9795 7.98477C76.9871 7.98711 76.9948 7.98937 77.0024 7.99171Z" fill="#FFEDB9"/>
<path d="M75.4556 7.39841C75.4402 7.39083 75.4247 7.38326 75.4096 7.37564C75.4248 7.38326 75.4402 7.39079 75.4556 7.39841Z" fill="#FFEDB9"/>
<path d="M75.5506 6.82765C75.5652 6.80519 75.5796 6.78265 75.5944 6.7603C75.6969 6.60501 75.8032 6.45235 75.9151 6.30395C75.9155 6.30342 75.9159 6.30285 75.9162 6.30231C75.967 6.32344 76.0186 6.34431 76.0708 6.36498C76.0193 6.34457 75.9684 6.32402 75.9184 6.30315C75.9177 6.30285 75.9169 6.30258 75.9162 6.30228C75.677 6.61944 75.4593 6.95309 75.2627 7.29999C75.2628 7.29988 75.263 7.29965 75.263 7.29965C75.354 7.13922 75.4505 6.98218 75.5506 6.82765Z" fill="#FFEDB9"/>
<path d="M80.3778 8.64964C80.3452 8.64598 80.3125 8.6423 80.2801 8.63852C80.3125 8.6423 80.3452 8.64598 80.3778 8.64964Z" fill="#FFEDB9"/>
<path d="M79.7861 8.57661C79.7553 8.57232 79.7246 8.56792 79.694 8.56355C79.7246 8.56792 79.7553 8.57232 79.7861 8.57661Z" fill="#FFEDB9"/>
<path d="M80.6422 8.67764C80.6094 8.67432 80.5769 8.67084 80.5444 8.6674C80.5769 8.67084 80.6094 8.67432 80.6422 8.67764Z" fill="#FFEDB9"/>
<path d="M80.0768 8.61436C80.0529 8.61134 80.0289 8.60837 80.0051 8.60532C80.0289 8.60837 80.0529 8.61134 80.0768 8.61436Z" fill="#FFEDB9"/>
<path d="M78.1567 6.98416C78.1447 6.9815 78.1328 6.97883 78.1209 6.97617C78.1328 6.97883 78.1447 6.9815 78.1567 6.98416Z" fill="#FFEDB9"/>
<path d="M76.5728 6.54897C76.5348 6.53607 76.4969 6.52308 76.4595 6.50995C76.4969 6.52308 76.5348 6.53607 76.5728 6.54897Z" fill="#FFEDB9"/>
<path d="M76.7951 6.62238C76.7394 6.6046 76.6842 6.58663 76.6298 6.56844C76.6843 6.58663 76.7394 6.60464 76.7951 6.62238Z" fill="#FFEDB9"/>
<path d="M76.3957 6.48718C76.3606 6.47462 76.3258 6.46198 76.2914 6.44926C76.3258 6.46198 76.3606 6.47462 76.3957 6.48718Z" fill="#FFEDB9"/>
<path d="M77.4884 6.82326C77.4698 6.81832 77.4511 6.81345 77.4326 6.80843C77.4511 6.81345 77.4698 6.81832 77.4884 6.82326Z" fill="#FFEDB9"/>
<path d="M76.2301 6.42642C76.1934 6.4126 76.1572 6.39863 76.1212 6.38458C76.1572 6.39863 76.1934 6.4126 76.2301 6.42642Z" fill="#FFEDB9"/>
<path d="M77.9713 6.94245C77.958 6.93932 77.9448 6.93615 77.9315 6.93298C77.9448 6.93615 77.958 6.93932 77.9713 6.94245Z" fill="#FFEDB9"/>
<path d="M76.9696 6.6765C76.9352 6.66606 76.9012 6.65544 76.8672 6.64482C76.9012 6.65544 76.9352 6.66606 76.9696 6.6765Z" fill="#FFEDB9"/>
<path d="M77.1467 6.72884C77.1173 6.72035 77.088 6.71178 77.059 6.70314C77.088 6.71178 77.1173 6.72035 77.1467 6.72884Z" fill="#FFEDB9"/>
<path d="M77.3244 6.77892C77.2979 6.77161 77.2713 6.76434 77.2451 6.75696C77.2714 6.76434 77.2979 6.77165 77.3244 6.77892Z" fill="#FFEDB9"/>
<path d="M78.3215 7.01952C78.3207 7.01937 78.32 7.01918 78.3192 7.01903C78.32 7.01918 78.3207 7.01937 78.3215 7.01952Z" fill="#FFEDB9"/>
<path d="M81.1411 2.87584C80.8977 2.93512 80.6582 3.00395 80.4228 3.0818C80.3834 3.09486 80.3441 3.10819 80.3048 3.12174C79.602 3.36467 78.9376 3.68838 78.3232 4.08165C79.7884 4.38938 81.5124 4.56831 83.3614 4.56831C84.7025 4.56831 85.9773 4.47374 87.1359 4.30459C87.3341 4.27566 87.5288 4.24452 87.7199 4.21132C87.9531 4.17077 88.1814 4.12753 88.4031 4.08089C88.2237 3.96603 88.0399 3.85711 87.8523 3.7544C87.848 3.75207 87.8438 3.74975 87.8395 3.74743C87.8023 3.72714 87.7649 3.70723 87.7274 3.68743C87.7117 3.67913 87.696 3.67087 87.6802 3.66268C87.6579 3.65107 87.6355 3.63969 87.613 3.62823C87.5823 3.61255 87.5515 3.59694 87.5205 3.58159C87.5161 3.57946 87.5118 3.57737 87.5075 3.57524C86.6006 3.12699 85.6092 2.82049 84.5627 2.68667C84.5626 2.68667 84.5625 2.68667 84.5625 2.68663C84.5613 2.68648 84.5601 2.68636 84.559 2.68621C84.5073 2.67962 84.4553 2.6735 84.4033 2.66775C84.3932 2.66664 84.383 2.66561 84.3729 2.66451C84.3296 2.65987 84.2863 2.65553 84.2428 2.65145C84.228 2.65008 84.2131 2.64875 84.1983 2.64746C84.1594 2.64403 84.1204 2.64083 84.0814 2.63786C84.0748 2.63737 84.0682 2.63672 84.0616 2.63626C84.0505 2.63546 84.0393 2.63474 84.0282 2.63398C83.9915 2.63139 83.9548 2.62911 83.918 2.62697C83.8989 2.62587 83.8797 2.62469 83.8605 2.6237C83.8243 2.6218 83.788 2.62023 83.7517 2.61875C83.7324 2.61795 83.7132 2.61707 83.6939 2.61639C83.6557 2.61506 83.6173 2.61411 83.579 2.61323C83.5777 2.61319 83.5764 2.61315 83.5751 2.61312C83.5592 2.61273 83.5434 2.61224 83.5275 2.61194C83.4722 2.61095 83.4168 2.61041 83.3614 2.61041C83.3146 2.61041 83.268 2.61102 83.2214 2.61167C83.2138 2.61178 83.2061 2.61175 83.1984 2.6119C83.1824 2.61216 83.1664 2.61266 83.1504 2.613C83.1116 2.61384 83.0728 2.61487 83.034 2.61616C83.0168 2.61677 82.9996 2.61749 82.9823 2.61818C82.9423 2.61978 82.9024 2.62153 82.8625 2.62366C82.8487 2.62438 82.8349 2.62515 82.8212 2.62591C82.7767 2.62846 82.7323 2.63128 82.688 2.63444C82.6805 2.63497 82.6731 2.63542 82.6657 2.63596C82.1441 2.67433 81.6348 2.75561 81.1411 2.87584Z" fill="#D55A00"/>
<path d="M84.9741 11.0489L85.3072 11.533C85.4731 11.7742 85.2605 12.089 84.9694 12.0376C83.8806 11.8454 82.7281 11.1098 80.9651 10.992L80.9652 10.9923C80.6272 10.9628 80.2968 10.9269 79.9744 10.8856C79.7866 11.5718 79.6762 12.2894 79.6564 13.0294C79.6572 13.0295 79.658 13.0296 79.6588 13.0297C79.6588 13.03 79.6588 13.0303 79.6588 13.0306C80.8073 13.1816 82.0555 13.2644 83.3613 13.2644C87.4337 13.2644 90.9485 12.4594 92.6153 11.2928C92.623 11.4439 92.6327 11.5944 92.6327 11.7474C92.6327 11.6771 92.6316 11.607 92.63 11.5371C92.6295 11.5152 92.6288 11.4932 92.6281 11.4713C92.6266 11.4219 92.6247 11.3726 92.6224 11.3234C92.6212 11.2997 92.6203 11.2759 92.619 11.2523C92.6155 11.1891 92.6115 11.1259 92.6068 11.063C92.6046 11.0337 92.6019 11.0045 92.5994 10.9753C92.5961 10.9374 92.5929 10.8994 92.5891 10.8616C92.5855 10.8244 92.5816 10.7872 92.5775 10.7501C92.5747 10.7246 92.5716 10.6992 92.5686 10.6738C92.5033 10.1269 92.3892 9.59466 92.2306 9.08154C90.9851 10.1008 88.2658 10.8597 84.9741 11.0489Z" fill="#FF9300"/>
<path d="M74.1135 11.1299C74.1168 11.0804 74.1207 11.0312 74.1249 10.982C74.1418 10.7821 74.163 10.5834 74.1928 10.3874C74.193 10.3855 74.1932 10.3835 74.1935 10.3816C74.2253 10.1738 74.2656 9.96878 74.3113 9.76575C74.3184 9.73404 74.326 9.70251 74.3335 9.67095C74.3805 9.47204 74.4324 9.27487 74.4923 9.08113C75.5052 9.91038 77.4939 10.5668 79.9726 10.8848C80.1842 10.1116 80.4963 9.37918 80.8941 8.70164C80.8858 8.70088 80.8777 8.70004 80.8694 8.69928C80.7933 8.69235 80.7175 8.68508 80.6422 8.6775C80.6095 8.67423 80.577 8.6708 80.5444 8.66741C80.4887 8.66159 80.4331 8.65565 80.3778 8.64948C80.3452 8.64587 80.3126 8.64229 80.2802 8.63852C80.212 8.63067 80.1443 8.62257 80.0769 8.61419C80.0529 8.61122 80.029 8.60829 80.0052 8.60528C79.9317 8.59595 79.8587 8.58632 79.7861 8.57642C79.7553 8.5722 79.7247 8.56786 79.694 8.56356C79.6399 8.55594 79.5862 8.54821 79.5326 8.54026C79.502 8.53573 79.4713 8.5312 79.4409 8.52655C79.3744 8.51643 79.3083 8.50603 79.2426 8.49537C79.2217 8.49198 79.2007 8.48863 79.1799 8.48521C79.109 8.47352 79.0387 8.46153 78.9688 8.44927C78.9401 8.44424 78.9116 8.43907 78.8831 8.43396C78.8308 8.42456 78.7788 8.41504 78.7271 8.40533C78.6989 8.40004 78.6707 8.39479 78.6427 8.38938C78.5773 8.37678 78.5123 8.36399 78.4478 8.35089C78.4316 8.34762 78.4154 8.34435 78.3992 8.34103C78.3302 8.32683 78.2619 8.31229 78.194 8.29756C78.1681 8.29192 78.1425 8.28617 78.1167 8.28046C78.0661 8.26923 78.0158 8.25781 77.9659 8.24624C77.9404 8.24034 77.9148 8.23444 77.8894 8.22846C77.8255 8.21335 77.7621 8.198 77.6993 8.18239C77.6876 8.1795 77.6759 8.17664 77.6643 8.17371C77.5979 8.15704 77.5323 8.14002 77.4672 8.12278C77.4438 8.11657 77.4207 8.11029 77.3976 8.10404C77.3492 8.09099 77.3011 8.07778 77.2535 8.06437C77.2308 8.05802 77.2081 8.05166 77.1856 8.04523C77.1236 8.02748 77.0621 8.00952 77.0014 7.99128C76.9942 7.98907 76.9868 7.98694 76.9796 7.98473C76.9163 7.96558 76.8539 7.94605 76.7921 7.92633C76.7714 7.91971 76.751 7.91304 76.7304 7.90638C76.6848 7.89153 76.6396 7.87657 76.5947 7.86142C76.5747 7.85464 76.5546 7.84791 76.5347 7.84105C76.4758 7.8208 76.4174 7.80035 76.3601 7.77957C76.356 7.77808 76.3519 7.77664 76.3479 7.77519C76.2888 7.75372 76.2308 7.7319 76.1735 7.7099C76.1552 7.70289 76.1372 7.69578 76.119 7.68869C76.0769 7.67225 76.0353 7.65565 75.9942 7.63894C75.9765 7.63174 75.9587 7.62458 75.9413 7.61735C75.8868 7.59481 75.8329 7.57208 75.7802 7.54905C75.7778 7.54802 75.7754 7.547 75.7731 7.54597C75.7196 7.52255 75.6673 7.4988 75.6157 7.47485C75.5997 7.46743 75.5839 7.45993 75.568 7.45243C75.53 7.43453 75.4926 7.41649 75.4557 7.39829C75.4403 7.39072 75.4248 7.38314 75.4096 7.37553C75.3607 7.35101 75.3125 7.32634 75.2655 7.30136C75.2646 7.30091 75.2637 7.30045 75.2628 7.29999C75.4594 6.95309 75.677 6.61941 75.9163 6.30228C75.917 6.30258 75.9177 6.30289 75.9185 6.30315C75.9553 6.2545 75.9921 6.20577 76.0298 6.1578C76.0442 6.13956 76.0588 6.12148 76.0733 6.10336C76.1709 5.98108 76.2716 5.86127 76.3753 5.74409C76.3887 5.72901 76.4018 5.71371 76.4152 5.69871C76.7671 5.30635 77.153 4.94437 77.5678 4.61643C77.5917 4.59751 77.616 4.57909 77.6402 4.56039C77.7544 4.47192 77.8708 4.38615 77.9893 4.30292C78.017 4.28343 78.0446 4.26375 78.0725 4.24456C78.2031 4.15498 78.3359 4.06845 78.4712 3.98541C78.4833 3.97795 78.4952 3.97 78.5073 3.96261C78.6607 3.86945 78.8171 3.7804 78.9762 3.69596C78.9829 3.69242 78.9898 3.68926 78.9965 3.68576C79.1401 3.61004 79.2864 3.53854 79.4344 3.47017C79.4745 3.45166 79.5152 3.43415 79.5556 3.41618C79.6738 3.36361 79.7933 3.31343 79.914 3.26565C79.9611 3.24703 80.0082 3.22849 80.0557 3.21064C80.1381 3.17961 80.2213 3.15034 80.3048 3.12171C80.3441 3.10815 80.3834 3.09479 80.4228 3.08177C80.4267 3.08051 80.4305 3.07914 80.4343 3.07789C80.4734 3.06506 80.5121 3.05116 80.5514 3.03883C80.719 2.98637 80.8882 2.93771 81.0598 2.8945C81.0736 2.891 81.0879 2.88841 81.1017 2.88498C81.1148 2.88175 81.128 2.87901 81.1412 2.87581C81.6349 2.75558 82.1442 2.6743 82.6657 2.63593C82.6567 2.63657 82.6478 2.63714 82.6389 2.63783C82.5713 2.64297 82.5041 2.64895 82.437 2.65549C82.4204 2.65709 82.4038 2.65881 82.3873 2.66052C82.3204 2.66741 82.2537 2.6748 82.1872 2.68306C82.1777 2.68424 82.1683 2.68557 82.1588 2.68679C82.0995 2.69436 82.0403 2.70259 81.9813 2.71127C81.964 2.71382 81.9468 2.71629 81.9296 2.71892C81.8666 2.72855 81.8039 2.73879 81.7413 2.74964C81.7226 2.75288 81.7039 2.75634 81.6852 2.75969C81.6322 2.76925 81.5792 2.77922 81.5264 2.78965C81.5117 2.79259 81.4968 2.79533 81.4821 2.7983C81.4222 2.81048 81.3625 2.82342 81.3029 2.83675C81.2802 2.84185 81.2574 2.84699 81.2347 2.85224C81.1772 2.86553 81.1199 2.8792 81.0629 2.89355C81.0407 2.89911 81.0187 2.90501 80.9966 2.91072C80.9553 2.92145 80.9141 2.93246 80.8729 2.94373C80.8478 2.95062 80.8226 2.95739 80.7976 2.96451C80.7451 2.97936 80.6928 2.99474 80.6407 3.0105C80.6119 3.01922 80.5831 3.02817 80.5545 3.03711C80.5206 3.04774 80.4867 3.05859 80.453 3.06959C80.4073 3.08444 80.3619 3.09963 80.3166 3.11516C80.2875 3.12509 80.2585 3.13511 80.2296 3.14535C80.1963 3.15711 80.1631 3.16899 80.13 3.18113C80.1048 3.19039 80.0797 3.19994 80.0545 3.20938C79.9987 3.2304 79.9431 3.25191 79.8878 3.27395C79.8698 3.28115 79.8518 3.28838 79.8338 3.29569C79.7593 3.32595 79.6852 3.3571 79.6116 3.38919C79.6089 3.39037 79.6061 3.39151 79.6034 3.39273C79.5621 3.41081 79.521 3.4292 79.48 3.44786C79.4766 3.44938 79.4733 3.45098 79.4699 3.4525C79.3887 3.48958 79.3081 3.52781 79.2281 3.56709C79.2272 3.56755 79.2263 3.56801 79.2254 3.56846C76.49 4.9146 74.5248 7.55366 74.1541 10.6734C74.1511 10.699 74.1481 10.7245 74.1453 10.7501C74.1412 10.7872 74.1372 10.8242 74.1336 10.8614C74.1299 10.8994 74.1266 10.9375 74.1233 10.9756C74.1208 11.0047 74.1181 11.0337 74.1159 11.0627C74.1112 11.1257 74.1072 11.1889 74.1038 11.2522C74.1025 11.2759 74.1015 11.2997 74.1004 11.3234C74.0981 11.3726 74.0962 11.4219 74.0947 11.4713C74.094 11.4932 74.0933 11.5151 74.0928 11.5371C74.0911 11.607 74.0901 11.677 74.0901 11.7474C74.0901 11.5396 74.0996 11.3341 74.1135 11.1299Z" fill="#FF9300"/>
<path d="M83.3614 13.2644C82.0556 13.2644 80.8074 13.1815 79.6588 13.0306C79.6567 13.1104 79.6528 13.1898 79.6528 13.2702C79.6528 13.7827 79.7 14.284 79.7823 14.7735C77.4051 14.4482 75.4972 13.8105 74.5061 13.0088C75.4964 13.8109 77.4015 14.4502 79.7784 14.7755C80.8854 14.927 82.0945 15.0106 83.3613 15.0106C87.7407 15.0106 91.4327 14.0139 92.5871 12.6519C92.6168 12.3543 92.6326 12.0527 92.6326 11.7474C92.6326 11.5945 92.623 11.4439 92.6154 11.2929C90.9486 12.4594 87.4338 13.2644 83.3614 13.2644Z" fill="#FF7400"/>
<path d="M74.1356 12.6519C74.1354 12.6495 74.1353 12.6471 74.1351 12.6447C74.1206 12.4985 74.1093 12.3513 74.1017 12.2031C74.0942 12.0521 74.0901 11.9002 74.0901 11.7474C74.0901 12.0526 74.1059 12.3543 74.1356 12.6519C74.1356 12.6519 74.1356 12.6519 74.1356 12.6519Z" fill="#FF7400"/>
<path d="M74.2078 12.7325C74.1829 12.7058 74.1587 12.679 74.1358 12.652C74.1587 12.679 74.1829 12.7059 74.2078 12.7325Z" fill="#FF7400"/>
<path d="M74.3953 12.9149C74.3651 12.8881 74.3358 12.8612 74.3076 12.8341C74.3358 12.8612 74.3651 12.8881 74.3953 12.9149Z" fill="#FF7400"/>
<path d="M74.2957 12.8223C74.2723 12.7996 74.2498 12.7767 74.2279 12.7538C74.2497 12.7767 74.2723 12.7996 74.2957 12.8223Z" fill="#FF7400"/>
<path d="M74.4958 13.0002C74.466 12.9759 74.4371 12.9515 74.409 12.9269C74.437 12.9515 74.466 12.9759 74.4958 13.0002Z" fill="#FF7400"/>
<path d="M90.9345 17.015C91.5261 16.1905 91.982 15.2657 92.2716 14.2708C91.3799 15.0234 89.6871 15.6371 87.5515 15.9896L86.3415 16.1556C85.4033 16.2596 84.4017 16.3158 83.3614 16.3158C82.222 16.3158 81.1289 16.2484 80.1149 16.1246C80.2665 16.5788 80.4564 17.0155 80.6751 17.4351C80.5096 17.3557 80.3461 17.2767 80.1849 17.2009C80.3441 17.2758 80.5057 17.3539 80.6691 17.4323C81.5229 17.8417 82.4313 18.2599 83.3614 18.2738C86.4396 18.3197 89.1773 17.7806 90.9345 17.015Z" fill="#FFEDB9"/>
<path d="M79.6445 16.9599C79.6306 16.9541 79.6168 16.9483 79.603 16.9426C79.6168 16.9483 79.6306 16.9541 79.6445 16.9599Z" fill="#FFEDB9"/>
<path d="M79.571 16.9299C79.5576 16.9245 79.5443 16.9191 79.531 16.9138C79.5443 16.9191 79.5576 16.9244 79.571 16.9299Z" fill="#FFEDB9"/>
<path d="M79.4258 16.8734C79.4131 16.8686 79.4005 16.8639 79.3879 16.8592C79.4005 16.8639 79.4131 16.8686 79.4258 16.8734Z" fill="#FFEDB9"/>
<path d="M79.7185 16.9909C79.704 16.9847 79.6895 16.9785 79.6751 16.9724C79.6895 16.9785 79.704 16.9847 79.7185 16.9909Z" fill="#FFEDB9"/>
<path d="M79.4982 16.9011C79.4852 16.8959 79.4722 16.8909 79.4593 16.8859C79.4723 16.891 79.4852 16.896 79.4982 16.9011Z" fill="#FFEDB9"/>
<path d="M79.7929 17.0227C79.7778 17.0161 79.7626 17.0096 79.7475 17.0031C79.7627 17.0096 79.7778 17.0161 79.7929 17.0227Z" fill="#FFEDB9"/>
<path d="M79.9436 17.0895C79.9269 17.0819 79.9103 17.0745 79.8936 17.067C79.9103 17.0745 79.9269 17.0819 79.9436 17.0895Z" fill="#FFEDB9"/>
<path d="M79.8678 17.0555C79.852 17.0485 79.8362 17.0416 79.8204 17.0346C79.8362 17.0416 79.852 17.0485 79.8678 17.0555Z" fill="#FFEDB9"/>
<path d="M78.932 16.7178C78.9203 16.7149 78.9086 16.7122 78.897 16.7094C78.9086 16.7122 78.9203 16.7149 78.932 16.7178Z" fill="#FFEDB9"/>
<path d="M78.8632 16.7017C78.8514 16.6991 78.8396 16.6967 78.8279 16.6942C78.8396 16.6967 78.8514 16.6991 78.8632 16.7017Z" fill="#FFEDB9"/>
<path d="M79.001 16.7354C78.9895 16.7323 78.978 16.7294 78.9665 16.7264C78.978 16.7294 78.9895 16.7324 79.001 16.7354Z" fill="#FFEDB9"/>
<path d="M80.0208 17.1246C80.0026 17.1162 79.9844 17.108 79.9662 17.0997C79.9844 17.108 80.0026 17.1162 80.0208 17.1246Z" fill="#FFEDB9"/>
<path d="M79.0708 16.7548C79.0591 16.7514 79.0476 16.7482 79.036 16.745C79.0476 16.7482 79.0592 16.7514 79.0708 16.7548Z" fill="#FFEDB9"/>
<path d="M79.2823 16.8219C79.2703 16.8176 79.2582 16.8136 79.2462 16.8095C79.2582 16.8136 79.2703 16.8176 79.2823 16.8219Z" fill="#FFEDB9"/>
<path d="M79.3539 16.847C79.3415 16.8425 79.3292 16.8381 79.3168 16.8337C79.3292 16.8381 79.3415 16.8425 79.3539 16.847Z" fill="#FFEDB9"/>
<path d="M79.1409 16.7757C79.129 16.772 79.1172 16.7685 79.1054 16.765C79.1172 16.7685 79.1291 16.772 79.1409 16.7757Z" fill="#FFEDB9"/>
<path d="M79.2114 16.7981C79.1994 16.7941 79.1875 16.7903 79.1756 16.7865C79.1875 16.7903 79.1994 16.7941 79.2114 16.7981Z" fill="#FFEDB9"/>
<path d="M78.1761 16.7348C78.2186 16.6757 78.2878 16.6401 78.3946 16.6421C78.4164 16.6425 78.4383 16.6433 78.4602 16.6445C78.4383 16.6434 78.4164 16.6425 78.3946 16.6421C78.2878 16.6401 78.2186 16.6757 78.1761 16.7348Z" fill="#FFEDB9"/>
<path d="M78.1838 17.3242C78.1942 17.36 78.2054 17.3952 78.2169 17.4293C78.2054 17.3952 78.1942 17.36 78.1838 17.3242Z" fill="#FFEDB9"/>
<path d="M74.6474 14.4251C74.6507 14.4276 74.654 14.4301 74.6574 14.4326C74.654 14.4301 74.6507 14.4276 74.6474 14.4251Z" fill="#FFEDB9"/>
<path d="M74.7601 14.5047C74.765 14.5081 74.7699 14.5115 74.7748 14.5148C74.77 14.5115 74.765 14.5081 74.7601 14.5047Z" fill="#FFEDB9"/>
<path d="M78.353 17.7693C78.3587 17.7816 78.3629 17.7903 78.365 17.7948C78.3629 17.7903 78.3587 17.7816 78.353 17.7693Z" fill="#FFEDB9"/>
<path d="M74.54 14.3436C74.5475 14.3495 74.555 14.3554 74.5624 14.3613C74.555 14.3554 74.5475 14.3495 74.54 14.3436Z" fill="#FFEDB9"/>
<path d="M74.4513 14.2716C74.7411 15.2666 75.1973 16.1916 75.7891 17.0162C76.2514 17.2175 76.7812 17.3999 77.3671 17.5595C76.7812 17.3999 76.2514 17.2174 75.7891 17.0161C75.1973 16.1916 74.7411 15.2666 74.4513 14.2716Z" fill="#FFEDB9"/>
<path d="M74.8782 14.5827C74.8804 14.5841 74.8825 14.5855 74.8846 14.5869C74.8825 14.5855 74.8803 14.5841 74.8782 14.5827Z" fill="#FFEDB9"/>
<path d="M78.795 16.6875C78.783 16.6851 78.771 16.683 78.7591 16.6807C78.771 16.6829 78.783 16.6851 78.795 16.6875Z" fill="#FFEDB9"/>
<path d="M78.1578 17.2265C78.1657 17.2592 78.1743 17.2919 78.1838 17.3242C78.1743 17.2919 78.1657 17.2593 78.1578 17.2265Z" fill="#FFEDB9"/>
<path d="M80.0982 17.1603C80.0784 17.1511 80.0585 17.142 80.0387 17.1329C80.0585 17.142 80.0784 17.1511 80.0982 17.1603Z" fill="#FFEDB9"/>
<path d="M78.7271 16.675C78.7149 16.6729 78.7027 16.6711 78.6906 16.6691C78.7027 16.6711 78.7149 16.6729 78.7271 16.675Z" fill="#FFEDB9"/>
<path d="M80.1767 17.197C80.1551 17.1869 80.1336 17.1768 80.112 17.1668C80.1336 17.1768 80.1551 17.1868 80.1767 17.197Z" fill="#FFEDB9"/>
<path d="M78.6597 16.6644C78.6472 16.6626 78.6347 16.6611 78.6222 16.6595C78.6347 16.661 78.6472 16.6625 78.6597 16.6644Z" fill="#FFEDB9"/>
<path d="M78.5927 16.6558C78.579 16.6542 78.5654 16.6529 78.5517 16.6516C78.5654 16.6529 78.579 16.6541 78.5927 16.6558Z" fill="#FFEDB9"/>
<path d="M78.1599 16.7611C78.1494 16.7807 78.1409 16.8021 78.1348 16.8255C78.1409 16.8022 78.1494 16.7807 78.1599 16.7611Z" fill="#FFEDB9"/>
<path d="M78.5264 16.6491C78.5104 16.6478 78.4945 16.6467 78.4787 16.6458C78.4945 16.6467 78.5104 16.6478 78.5264 16.6491Z" fill="#FFEDB9"/>
<path d="M83.8041 20.8737C83.8338 20.8723 83.8635 20.8706 83.8931 20.869C83.9366 20.8666 83.98 20.8639 84.0233 20.8609C84.055 20.8586 84.0867 20.8564 84.1184 20.8538C84.1591 20.8506 84.1997 20.8469 84.2403 20.8432C84.2734 20.8401 84.3066 20.8371 84.3396 20.8337C84.3775 20.8298 84.4153 20.8253 84.4531 20.8209C84.6023 20.8036 84.7504 20.783 84.8973 20.7587C84.9166 20.7556 84.9361 20.7526 84.9554 20.7493C85.0056 20.7407 85.0555 20.7315 85.1054 20.7222C85.122 20.719 85.1386 20.716 85.1552 20.7128C85.2083 20.7025 85.2613 20.6918 85.3142 20.6806C85.3242 20.6785 85.3342 20.6763 85.3442 20.6741C86.7317 20.3755 88.0027 19.7702 89.0818 18.9349C87.4835 19.3388 85.506 19.579 83.3614 19.579C82.9685 19.579 82.5812 19.5708 82.2008 19.5552C82.6742 20.0467 83.2002 20.4886 83.7737 20.8669C83.6362 20.8729 83.5003 20.8843 83.3614 20.8843C83.4356 20.8843 83.5096 20.8832 83.5834 20.8815C83.6083 20.881 83.6331 20.8799 83.6579 20.8792C83.7067 20.8776 83.7555 20.876 83.8041 20.8737Z" fill="#FF7400"/>
<path d="M82.6351 20.8537C82.5944 20.8506 82.5536 20.8482 82.5131 20.8446C82.2817 20.8238 82.0527 20.7946 81.8265 20.7574C81.789 20.7512 81.7519 20.7443 81.7146 20.7377C81.2328 20.6523 80.7637 20.5314 80.311 20.3756C80.2966 20.3707 80.282 20.3662 80.2676 20.3612C80.0388 20.2812 79.8142 20.1924 79.594 20.0956C79.58 20.0895 79.5661 20.0831 79.5521 20.0769C79.1272 19.8876 78.7192 19.6678 78.331 19.4203C79.2484 20.006 80.2768 20.437 81.3789 20.6742C81.3887 20.6763 81.3985 20.6784 81.4083 20.6805C81.4613 20.6917 81.5145 20.7025 81.5678 20.7128C81.5841 20.716 81.6005 20.719 81.6169 20.7221C81.667 20.7315 81.7171 20.7407 81.7674 20.7493C81.7865 20.7526 81.8058 20.7555 81.8249 20.7587C81.9722 20.783 82.1207 20.8037 82.2702 20.821C82.3078 20.8253 82.3453 20.8298 82.3829 20.8337C82.4161 20.8371 82.4494 20.8401 82.4827 20.8432C82.5231 20.847 82.5636 20.8506 82.6041 20.8538C82.6359 20.8563 82.6677 20.8586 82.6995 20.8608C82.7428 20.8639 82.7862 20.8666 82.8296 20.869C82.8593 20.8706 82.8889 20.8723 82.9186 20.8737C82.9672 20.8759 83.016 20.8776 83.0648 20.8792C83.0897 20.8799 83.1144 20.8809 83.1393 20.8815C83.2131 20.8832 83.2871 20.8843 83.3614 20.8843C83.1167 20.8843 82.8749 20.8721 82.6351 20.8537Z" fill="#FF7400"/>
<path d="M77.9028 18.9988C77.891 18.996 77.8794 18.9931 77.8676 18.9903C77.8794 18.9931 77.891 18.996 77.9028 18.9988Z" fill="#FF7400"/>
<path d="M78.1435 19.0536C78.1428 19.0535 78.1422 19.0532 78.1414 19.0531C78.1422 19.0532 78.1429 19.0535 78.1435 19.0536Z" fill="#FF7400"/>
<path d="M77.641 18.9349L77.6415 18.9351L77.641 18.9349Z" fill="#FF7400"/>
<path d="M77.8861 19.1178C78.0256 19.2187 78.1681 19.3158 78.3134 19.409C78.168 19.3158 78.0256 19.2186 77.8861 19.1178Z" fill="#FF7400"/>
<path d="M77.6412 18.9351C77.7068 18.9859 77.7732 19.0354 77.8402 19.0844C77.7732 19.0354 77.7068 18.9858 77.6412 18.9351Z" fill="#FF7400"/>
<path d="M79.6564 13.0293C79.6762 12.2893 79.7866 11.5718 79.9745 10.8855C79.9745 10.8854 79.9746 10.8852 79.9746 10.8851C79.9739 10.885 79.9732 10.8849 79.9726 10.8848C77.4939 10.5667 75.5052 9.91033 74.4923 9.08112C74.4324 9.27486 74.3805 9.47199 74.3335 9.67094C74.326 9.70254 74.3184 9.73403 74.3113 9.76574C74.2656 9.96877 74.2253 10.1738 74.1935 10.3816C74.1933 10.3835 74.1931 10.3855 74.1928 10.3874C74.163 10.5834 74.1418 10.7821 74.1249 10.9819C74.1208 11.0312 74.1168 11.0804 74.1135 11.1299C74.0996 11.3341 74.0901 11.5396 74.0901 11.7474C74.0901 11.5944 74.0997 11.4439 74.1073 11.2929C75.2392 12.085 77.2244 12.7095 79.6564 13.0293Z" fill="#FF7400"/>
<path d="M74.1351 12.6447C74.1353 12.6471 74.1354 12.6495 74.1357 12.6519C74.1357 12.6519 74.1358 12.652 74.1358 12.6521C74.1587 12.6791 74.1829 12.7059 74.2078 12.7326C74.2144 12.7397 74.2211 12.7467 74.2279 12.7538C74.2498 12.7767 74.2723 12.7996 74.2956 12.8223C74.2997 12.8263 74.3035 12.8302 74.3076 12.8342C74.3358 12.8613 74.3651 12.8882 74.3953 12.915C74.3998 12.919 74.4044 12.9229 74.409 12.9269C74.4371 12.9515 74.466 12.976 74.4958 13.0003C74.4993 13.0031 74.5027 13.006 74.5062 13.0088C75.4973 13.8105 77.4052 14.4482 79.7824 14.7735C79.7 14.284 79.6528 13.7827 79.6528 13.2702C79.6528 13.1898 79.6567 13.1104 79.6588 13.0306C79.6588 13.0303 79.6588 13.03 79.6589 13.0297C79.6581 13.0296 79.6572 13.0295 79.6564 13.0294C77.2245 12.7095 75.2392 12.085 74.1074 11.2929C74.0997 11.4439 74.0901 11.5944 74.0901 11.7473C74.0901 11.9002 74.0942 12.0521 74.1018 12.2031C74.1093 12.3512 74.1206 12.4984 74.1351 12.6447Z" fill="#D55A00"/>
<path d="M80.8949 8.70171C81.1524 8.26329 81.4465 7.84882 81.7718 7.46046C81.7719 7.46035 81.772 7.46023 81.7721 7.46016C81.7717 7.46012 81.7713 7.46012 81.7709 7.46008C80.523 7.38931 79.3567 7.23687 78.321 7.01945C78.3204 7.01934 78.3198 7.01918 78.3192 7.01907C78.2646 7.00761 78.2105 6.99589 78.1567 6.98408C78.1447 6.98146 78.1328 6.97883 78.1209 6.9762C78.0707 6.96509 78.0208 6.95382 77.9713 6.94236C77.958 6.93927 77.9448 6.93615 77.9315 6.93303C77.7806 6.89782 77.6329 6.86112 77.4883 6.82308C77.4698 6.81821 77.451 6.81341 77.4326 6.80846C77.3962 6.79876 77.3603 6.78886 77.3243 6.77896C77.2978 6.77169 77.2713 6.76438 77.245 6.75699C77.212 6.7477 77.1793 6.73834 77.1466 6.7289C77.1172 6.72041 77.088 6.71184 77.0589 6.7032C77.029 6.69437 76.9991 6.6855 76.9695 6.67651C76.9351 6.66608 76.9011 6.65546 76.8671 6.64484C76.8431 6.63734 76.8188 6.62995 76.7951 6.62234C76.7393 6.60456 76.6843 6.58659 76.6297 6.56839C76.6105 6.56199 76.5918 6.55541 76.5727 6.54897C76.5347 6.53607 76.4968 6.52309 76.4595 6.50995C76.438 6.50241 76.4169 6.4948 76.3956 6.48719C76.3606 6.47462 76.3258 6.46198 76.2913 6.44927C76.2708 6.44169 76.2504 6.43412 76.2301 6.42646C76.1934 6.41264 76.1571 6.39867 76.1211 6.38462C76.1044 6.37808 76.0875 6.3716 76.0708 6.36502C76.0186 6.34434 75.967 6.32348 75.9162 6.30235C75.9158 6.30289 75.9155 6.30346 75.9151 6.30399C75.8032 6.45239 75.6969 6.60505 75.5944 6.76034C75.5796 6.78265 75.5652 6.80523 75.5506 6.82769C75.4506 6.98226 75.354 7.13926 75.263 7.29973C75.263 7.29973 75.2628 7.29996 75.2628 7.30007C75.2637 7.30053 75.2646 7.30098 75.2655 7.30148C75.3125 7.32645 75.3607 7.35112 75.4096 7.37564C75.4248 7.38325 75.4403 7.39083 75.4557 7.39841C75.4926 7.41657 75.53 7.43461 75.568 7.45254C75.5839 7.46004 75.5996 7.46754 75.6157 7.47497C75.6673 7.49891 75.7196 7.52263 75.7731 7.54608C75.7754 7.54711 75.7778 7.5481 75.7801 7.54917C75.8329 7.5722 75.8867 7.59493 75.9412 7.61746C75.9587 7.6247 75.9765 7.63185 75.9941 7.63905C76.0353 7.65576 76.0769 7.67236 76.119 7.68881C76.1371 7.69589 76.1552 7.70297 76.1735 7.71001C76.2308 7.73202 76.2888 7.75383 76.3478 7.7753C76.3519 7.77679 76.356 7.77824 76.3601 7.77968C76.4174 7.80047 76.4757 7.82091 76.5346 7.84117C76.5545 7.84802 76.5747 7.85476 76.5947 7.86153C76.6395 7.87665 76.6848 7.89165 76.7304 7.9065C76.7509 7.91316 76.7714 7.91986 76.7921 7.92645C76.8539 7.94617 76.9162 7.9657 76.9795 7.98485C76.9868 7.98705 76.9942 7.98919 77.0014 7.99139C77.0621 8.00963 77.1236 8.0276 77.1856 8.04534C77.2081 8.05177 77.2308 8.05813 77.2535 8.06449C77.3011 8.07785 77.3491 8.09106 77.3975 8.10416C77.4207 8.1104 77.4438 8.11668 77.4671 8.12289C77.5322 8.14014 77.5979 8.15715 77.6643 8.17383C77.6759 8.17676 77.6876 8.17961 77.6993 8.18251C77.762 8.19812 77.8255 8.21346 77.8894 8.22857C77.9148 8.23455 77.9403 8.24045 77.9658 8.24635C78.0158 8.25793 78.0661 8.26931 78.1167 8.28058C78.1424 8.28629 78.1681 8.29204 78.194 8.29767C78.2618 8.31244 78.3302 8.32699 78.3992 8.34115C78.4153 8.34446 78.4316 8.34773 78.4477 8.35101C78.5122 8.3641 78.5772 8.37693 78.6427 8.3895C78.6707 8.3949 78.6989 8.40016 78.7271 8.40545C78.7788 8.41516 78.8308 8.42471 78.883 8.43408C78.9116 8.43922 78.94 8.44436 78.9687 8.44938C79.0386 8.46164 79.109 8.47363 79.1799 8.48532C79.2007 8.48875 79.2216 8.4921 79.2425 8.49549C79.3082 8.50611 79.3743 8.5165 79.4408 8.52667C79.4713 8.53131 79.502 8.5358 79.5326 8.54037C79.5861 8.54829 79.6399 8.55606 79.694 8.56367C79.7246 8.56797 79.7553 8.57235 79.7861 8.57654C79.8587 8.58644 79.9317 8.59607 80.0051 8.6054C80.029 8.6084 80.0529 8.61134 80.0768 8.6143C80.1442 8.62264 80.212 8.63075 80.2801 8.63863C80.3125 8.64236 80.3452 8.64598 80.3778 8.6496C80.4331 8.65576 80.4886 8.6617 80.5444 8.66753C80.5769 8.67092 80.6095 8.67434 80.6422 8.67762C80.7175 8.68515 80.7932 8.69243 80.8693 8.69939C80.8779 8.70008 80.8864 8.70092 80.8949 8.70171Z" fill="#FFD042"/>
<path d="M83.7737 20.8669C83.2002 20.4886 82.6741 20.0467 82.2008 19.5552C82.1999 19.5543 82.1989 19.5534 82.198 19.5524C82.1964 19.5524 82.1948 19.5523 82.1932 19.5522C80.7131 19.4908 79.3361 19.3164 78.1423 19.0533C78.142 19.0533 78.1418 19.0532 78.1415 19.0531C78.0611 19.0354 77.9816 19.0172 77.9028 18.9987C77.8911 18.9959 77.8794 18.9931 77.8677 18.9904C77.7914 18.9722 77.7158 18.9539 77.6412 18.9351C77.6411 18.9351 77.6411 18.935 77.641 18.935C77.6411 18.9351 77.6412 18.9351 77.6413 18.9352C77.7068 18.9859 77.7733 19.0355 77.8402 19.0845C77.8555 19.0956 77.8708 19.1067 77.8861 19.1178C78.0257 19.2186 78.1681 19.3159 78.3134 19.409C78.3193 19.4128 78.3252 19.4166 78.3311 19.4203C78.7193 19.6678 79.1273 19.8877 79.5522 20.077C79.5662 20.0832 79.58 20.0895 79.5941 20.0957C79.8142 20.1925 80.0388 20.2813 80.2677 20.3613C80.282 20.3663 80.2966 20.3708 80.311 20.3757C80.7638 20.5315 81.233 20.6523 81.7147 20.7377C81.752 20.7443 81.7891 20.7513 81.8266 20.7575C82.0528 20.7947 82.2817 20.8239 82.5132 20.8447C82.5537 20.8483 82.5945 20.8507 82.6351 20.8538C82.875 20.8721 83.1167 20.8843 83.3614 20.8843C83.5003 20.8843 83.6362 20.8729 83.7737 20.8669Z" fill="#D55A00"/>
<path d="M80.58 18.4478C80.5993 18.01 80.3353 17.7498 79.9619 17.5341C79.4903 17.2617 78.6678 17.0773 78.7257 17.5341C78.7837 17.9909 80.5607 18.8856 80.58 18.4478Z" fill="#FFD042"/>
<path d="M83.8249 11.1382C84.081 11.1382 84.2885 11.0019 84.2885 10.8337C84.2885 10.6655 84.081 10.5291 83.8249 10.5291C83.5689 10.5291 83.3614 10.6655 83.3614 10.8337C83.3614 11.0019 83.5689 11.1382 83.8249 11.1382Z" fill="#FF9300"/>
</g>
<defs>
<clipPath id="clip0">
<rect x="65.203" y="12.8105" width="17.7741" height="17.7741" fill="white"/>
</clipPath>
<clipPath id="clip1">
<rect x="74.0901" y="2.61041" width="18.5426" height="18.2739" fill="white"/>
</clipPath>
</defs>
</svg>
