<svg width="9" height="9" viewBox="0 0 9 9" fill="none" xmlns="http://www.w3.org/2000/svg">
<path d="M7.73749 1.37488C7.7523 1.39022 7.76698 1.40568 7.78157 1.42125C7.76698 1.40568 7.7523 1.39022 7.73749 1.37488Z" fill="#FFD042"/>
<path d="M7.93176 1.58948C7.95899 1.62154 7.98578 1.65401 8.01211 1.68685C7.98578 1.65401 7.95899 1.62156 7.93176 1.58948Z" fill="#FFD042"/>
<path d="M7.79327 1.43384C7.82112 1.46373 7.84859 1.49399 7.87561 1.52464C7.84857 1.49399 7.82112 1.46373 7.79327 1.43384Z" fill="#FFD042"/>
<path d="M7.16504 0.874023C7.17919 0.884448 7.19333 0.894874 7.20736 0.905449C7.19331 0.894855 7.17918 0.88443 7.16504 0.874023Z" fill="#FFD042"/>
<path d="M7.58636 1.22546C7.60127 1.23953 7.61605 1.25372 7.63076 1.26797C7.61605 1.25372 7.60127 1.23953 7.58636 1.22546Z" fill="#FFD042"/>
<path d="M7.23981 0.930298C7.26227 0.947567 7.2846 0.965023 7.30673 0.982704C7.2846 0.965023 7.26227 0.947567 7.23981 0.930298Z" fill="#FFD042"/>
<path d="M8.01819 1.69446C8.03223 1.71205 8.04616 1.72975 8.05996 1.74756C8.04616 1.72975 8.03223 1.71205 8.01819 1.69446Z" fill="#FFD042"/>
<path d="M7.33258 1.00354C7.36408 1.0291 7.39528 1.05501 7.42605 1.08137C7.39526 1.05501 7.36408 1.0291 7.33258 1.00354Z" fill="#FFD042"/>
<path d="M7.49323 1.14026C7.52278 1.16662 7.55201 1.19332 7.58086 1.22043C7.55202 1.1933 7.52279 1.1666 7.49323 1.14026Z" fill="#FFD042"/>
<path d="M7.42834 1.08325C7.44316 1.09596 7.45784 1.10883 7.4725 1.12173C7.45784 1.10883 7.44316 1.09596 7.42834 1.08325Z" fill="#FFD042"/>
<path d="M7.88153 1.53125C7.89604 1.54777 7.91043 1.56438 7.92469 1.58111C7.91041 1.5644 7.89604 1.54777 7.88153 1.53125Z" fill="#FFD042"/>
<path d="M5.24545 8.93823C5.17415 8.95016 5.10226 8.96032 5.02985 8.96885C5.10226 8.96034 5.17415 8.95012 5.24545 8.93823Z" fill="#FFD042"/>
<path d="M4.97478 8.9751C4.95875 8.97681 4.94264 8.97827 4.92657 8.97982C4.94264 8.97829 4.95875 8.97681 4.97478 8.9751Z" fill="#FFD042"/>
<path d="M5.34645 8.92017C5.32224 8.92478 5.29802 8.92928 5.27368 8.93351C5.29802 8.92932 5.32224 8.92478 5.34645 8.92017Z" fill="#FFD042"/>
<path d="M4.86747 8.98499C4.85209 8.98624 4.8367 8.9874 4.82129 8.98851C4.8367 8.9874 4.85209 8.98626 4.86747 8.98499Z" fill="#FFD042"/>
<path d="M4.75809 8.99243C4.74371 8.99325 4.72932 8.99409 4.7149 8.99477C4.72932 8.99409 4.74371 8.99325 4.75809 8.99243Z" fill="#FFD042"/>
<path d="M5.44774 8.89966C5.42211 8.90517 5.39641 8.91044 5.37061 8.9155C5.39641 8.91044 5.42211 8.90515 5.44774 8.89966Z" fill="#FFD042"/>
<path d="M8.98383 4.11975C8.98504 4.13413 8.98636 4.14849 8.98742 4.16293C8.98636 4.14849 8.98503 4.13415 8.98383 4.11975Z" fill="#FFD042"/>
<path d="M8.99341 4.2561C8.99403 4.26777 8.99451 4.27945 8.99506 4.29113C8.99451 4.27945 8.99403 4.26777 8.99341 4.2561Z" fill="#FFD042"/>
<path d="M8.99774 4.36401C8.99806 4.37481 8.9984 4.38561 8.99866 4.39643C8.99842 4.38561 8.99806 4.37481 8.99774 4.36401Z" fill="#FFD042"/>
<path d="M8.97321 4.00879C8.97519 4.02707 8.97711 4.04537 8.97887 4.06373C8.97711 4.04537 8.97519 4.02707 8.97321 4.00879Z" fill="#FFD042"/>
<path d="M6.81104 0.638306C6.82407 0.646124 6.83708 0.653962 6.85004 0.661912C6.83708 0.653962 6.82407 0.646124 6.81104 0.638306Z" fill="#FFD042"/>
<path d="M5.6156 0.139404C5.62413 0.141611 5.63261 0.143913 5.6411 0.146158C5.63261 0.143913 5.62413 0.141611 5.6156 0.139404Z" fill="#FFD042"/>
<path d="M5.50055 0.111816C5.50844 0.113624 5.51636 0.115393 5.52423 0.117258C5.51636 0.115412 5.50844 0.113643 5.50055 0.111816Z" fill="#FFD042"/>
<path d="M5.82715 0.198975C5.8366 0.201943 5.84601 0.204968 5.85544 0.207993C5.84601 0.204968 5.8366 0.201924 5.82715 0.198975Z" fill="#FFD042"/>
<path d="M5.39984 0.0900879C5.40732 0.091629 5.41477 0.0932652 5.42223 0.0948443C5.41475 0.0932652 5.4073 0.091629 5.39984 0.0900879Z" fill="#FFD042"/>
<path d="M7.07892 0.812134C7.09739 0.825071 7.11574 0.838159 7.13401 0.851378C7.11574 0.838159 7.09739 0.825071 7.07892 0.812134Z" fill="#FFD042"/>
<path d="M5.92578 0.230713C5.93369 0.233396 5.94166 0.236002 5.94956 0.238723C5.94166 0.236002 5.93369 0.233396 5.92578 0.230713Z" fill="#FFD042"/>
<path d="M4.95667 0.0229492C4.96135 0.0234249 4.96604 0.0239956 4.97073 0.0244903C4.96604 0.0239956 4.96135 0.0234249 4.95667 0.0229492Z" fill="#FFD042"/>
<path d="M4.72986 0.00585938C4.73281 0.00600209 4.73574 0.00622636 4.7387 0.00636907C4.73574 0.00622636 4.73281 0.00600209 4.72986 0.00585938Z" fill="#FFD042"/>
<path d="M5.18005 0.0511475C5.18632 0.0521178 5.19254 0.0531642 5.1988 0.0541535C5.19254 0.0531642 5.18632 0.0521178 5.18005 0.0511475Z" fill="#FFD042"/>
<path d="M5.28156 0.067749C5.28954 0.069176 5.29755 0.0705458 5.30552 0.0720108C5.29755 0.0705458 5.28954 0.0691569 5.28156 0.067749Z" fill="#FFD042"/>
<path d="M5.71533 0.16626C5.72321 0.168486 5.73112 0.170655 5.73898 0.172938C5.73112 0.170655 5.72321 0.168486 5.71533 0.16626Z" fill="#FFD042"/>
<path d="M6.03412 0.268433C6.04443 0.272164 6.05469 0.275989 6.06496 0.279795C6.05471 0.27597 6.04443 0.272164 6.03412 0.268433Z" fill="#FFD042"/>
<path d="M6.52808 0.482056C6.54287 0.489537 6.55759 0.497112 6.57227 0.504743C6.55757 0.497112 6.54285 0.489537 6.52808 0.482056Z" fill="#FFD042"/>
<path d="M6.625 0.532593C6.63745 0.539268 6.64986 0.54598 6.66224 0.552787C6.64986 0.54598 6.63745 0.539268 6.625 0.532593Z" fill="#FFD042"/>
<path d="M6.99115 0.752197C7.00474 0.761254 7.01832 0.770329 7.03182 0.779516C7.01832 0.77031 7.00474 0.761254 6.99115 0.752197Z" fill="#FFD042"/>
<path d="M6.90179 0.694214C6.91931 0.705295 6.93671 0.716489 6.95405 0.727814C6.93671 0.716489 6.91931 0.705276 6.90179 0.694214Z" fill="#FFD042"/>
<path d="M6.7179 0.583984C6.73428 0.593284 6.75058 0.602715 6.76683 0.612203C6.75058 0.602715 6.73428 0.593284 6.7179 0.583984Z" fill="#FFD042"/>
<path d="M6.13171 0.305176C6.13963 0.308251 6.14758 0.311232 6.15547 0.314363C6.14759 0.311251 6.13963 0.308251 6.13171 0.305176Z" fill="#FFD042"/>
<path d="M6.43329 0.435547C6.44506 0.441153 6.4568 0.446816 6.46852 0.452534C6.4568 0.446816 6.44506 0.441153 6.43329 0.435547Z" fill="#FFD042"/>
<path d="M6.23621 0.347412C6.24727 0.352043 6.25831 0.35675 6.26934 0.361475C6.25831 0.35675 6.24729 0.352062 6.23621 0.347412Z" fill="#FFD042"/>
<path d="M6.3324 0.388916C6.34477 0.394428 6.35713 0.399997 6.36943 0.405622C6.35711 0.399997 6.34475 0.394428 6.3324 0.388916Z" fill="#FFD042"/>
<path d="M7.73188 1.36912C7.70393 1.34026 7.67556 1.3118 7.64685 1.28369C7.67556 1.31182 7.70393 1.34026 7.73188 1.36912Z" fill="#FFD042"/>
<path d="M8.19859 1.93671C8.22011 1.96772 8.24132 1.99898 8.26209 2.03053C8.22499 1.97413 8.1867 1.9186 8.14716 1.86401C8.16444 1.88788 8.18141 1.91198 8.19823 1.9362C8.19834 1.93637 8.19846 1.93654 8.19859 1.93671Z" fill="#FFD042"/>
<path d="M4.5 6.10714C3.88512 6.10714 3.29824 6.06598 2.76094 5.99136C2.79863 6.21862 2.85329 6.44016 2.92369 6.65454C1.83055 6.51896 0.925767 6.24726 0.385054 5.89806C0.384191 5.89749 0.383366 5.89695 0.382523 5.89639C0.36531 5.88525 0.348529 5.874 0.332066 5.86269C0.329779 5.86112 0.327473 5.85956 0.325204 5.85801C0.308123 5.84617 0.291417 5.83429 0.27516 5.82229C0.273585 5.82113 0.272066 5.81994 0.270491 5.81878C0.25641 5.80834 0.242723 5.7978 0.229279 5.78724C0.225641 5.78438 0.222004 5.78151 0.218404 5.77864C0.203704 5.76688 0.189267 5.75509 0.175354 5.74318C0.315998 6.23325 0.537416 6.6888 0.824667 7.09489C1.04903 7.19402 1.3062 7.28387 1.59059 7.36249C1.68981 7.38992 1.79217 7.41604 1.89782 7.44062C1.95619 7.45419 2.0155 7.46734 2.07572 7.47999C2.07572 7.47999 2.07544 7.47943 2.07494 7.47834C2.0739 7.47617 2.07188 7.47189 2.06909 7.46578C2.0593 7.44442 2.04 7.40072 2.02007 7.34679C2.01437 7.33138 2.00864 7.31514 2.00305 7.29834C1.99746 7.28154 1.99202 7.2642 1.98696 7.24658C1.98239 7.23069 1.97817 7.21459 1.97434 7.19848C1.9633 7.15202 1.95591 7.10544 1.95593 7.06369C1.95593 7.05566 1.95621 7.04781 1.95679 7.04018C1.95784 7.02628 1.96002 7.01321 1.96319 7.00097C1.96615 6.98949 1.97027 6.97894 1.97537 6.96924C1.97775 6.96471 1.98038 6.96037 1.98327 6.95631C2.00389 6.92719 2.03747 6.90966 2.0893 6.91067C2.09989 6.91087 2.1105 6.91127 2.12117 6.91185C2.12414 6.912 2.12712 6.91228 2.13008 6.91247C2.13779 6.91296 2.14549 6.91342 2.15324 6.91408C2.15732 6.91444 2.16145 6.91492 2.16554 6.91532C2.17217 6.91596 2.17877 6.91657 2.18543 6.91734C2.19019 6.91791 2.19497 6.91858 2.19974 6.9192C2.20579 6.91999 2.21185 6.92072 2.21794 6.9216C2.22291 6.92231 2.22792 6.92318 2.2329 6.92396C2.23881 6.9249 2.2447 6.92578 2.25064 6.92681C2.2558 6.92771 2.26099 6.92873 2.26617 6.92968C2.27198 6.93075 2.27777 6.9318 2.2836 6.93296C2.28891 6.93401 2.29424 6.93519 2.29956 6.93632C2.30528 6.93752 2.31098 6.9387 2.31672 6.93997C2.32217 6.94119 2.32765 6.94252 2.33312 6.94382C2.33879 6.94515 2.34443 6.94646 2.35011 6.94787C2.35568 6.94926 2.36129 6.95074 2.36687 6.9522C2.37246 6.95364 2.37803 6.95507 2.38362 6.95659C2.38926 6.95812 2.39494 6.95974 2.4006 6.96133C2.40623 6.96291 2.41184 6.96446 2.41746 6.96611C2.42307 6.96774 2.42867 6.96947 2.43428 6.97116C2.44002 6.97288 2.44574 6.97459 2.45149 6.97639C2.4571 6.97813 2.4627 6.97995 2.46831 6.98177C2.4741 6.98362 2.4799 6.98548 2.48571 6.98739C2.49134 6.98925 2.49696 6.99118 2.5026 6.99309C2.50845 6.99508 2.5143 6.99705 2.52015 6.99909C2.52572 7.00102 2.53131 7.00303 2.5369 7.00504C2.5429 7.00717 2.54888 7.00929 2.55488 7.01149C2.56037 7.01349 2.56587 7.01556 2.57138 7.0176C2.57751 7.01989 2.58362 7.02216 2.58977 7.0245C2.59519 7.02656 2.60061 7.02866 2.60603 7.03076C2.61233 7.0332 2.61861 7.03564 2.62493 7.03813C2.63022 7.04021 2.63552 7.04235 2.64083 7.04447C2.6473 7.04706 2.65377 7.04966 2.66025 7.05231C2.66543 7.05441 2.6706 7.05656 2.67578 7.0587C2.68249 7.06147 2.6892 7.06425 2.69592 7.06708C2.70085 7.06914 2.7058 7.07126 2.71073 7.07334C2.71774 7.07632 2.72477 7.07931 2.7318 7.08234C2.73649 7.08437 2.7412 7.08641 2.7459 7.08846C2.75324 7.09164 2.76059 7.09485 2.76794 7.09809C2.77236 7.10004 2.7768 7.10201 2.78125 7.104C2.7889 7.10741 2.79659 7.11082 2.80427 7.11429C2.80845 7.11617 2.81264 7.11806 2.81684 7.11997C2.8249 7.12363 2.833 7.12731 2.8411 7.13102C2.84475 7.13269 2.84841 7.13437 2.85205 7.13606C2.86086 7.14011 2.86969 7.1442 2.87854 7.14832C2.88145 7.14967 2.88434 7.15102 2.88724 7.15239C2.89684 7.15687 2.90648 7.16139 2.91612 7.16593C2.91835 7.16698 2.9206 7.16803 2.92283 7.1691C2.93327 7.17403 2.94372 7.179 2.9542 7.18399C2.95553 7.18462 2.95686 7.18526 2.95817 7.18588C3.03642 7.22321 3.11577 7.26214 3.19611 7.30123C3.08995 7.09455 2.99775 6.87953 2.9242 6.6558C3.41644 6.71678 3.94697 6.75 4.5 6.75C5.00492 6.75 5.49111 6.72231 5.94647 6.6711L6.53376 6.58933C7.57034 6.41571 8.39194 6.11346 8.82477 5.74282C8.6842 6.2328 8.46289 6.68827 8.17575 7.09434C7.32284 7.47142 5.99408 7.73692 4.5 7.71429C4.04858 7.70745 3.60767 7.50152 3.19326 7.29984C3.38978 7.68302 3.6396 8.03432 3.93302 8.34396C3.93381 8.34399 3.93458 8.34403 3.93535 8.34407C3.93578 8.34454 3.93625 8.34497 3.93668 8.34544C4.12133 8.35314 4.3093 8.35716 4.5 8.35716C5.54093 8.35716 6.50072 8.23882 7.27649 8.03996C6.75274 8.45134 6.13581 8.74941 5.4624 8.89652C7.48519 8.45572 9 6.65492 9 4.5C9 4.65036 8.9923 4.79891 8.97788 4.94548C8.41757 5.61628 6.62562 6.10714 4.5 6.10714Z" fill="#FFD042"/>
<path d="M4.62809 0.0019516C4.61997 0.00172329 4.61184 0.00151401 4.6037 0.00134277C4.60434 0.0013618 4.60497 0.00138082 4.60559 0.00139985C4.61309 0.00155206 4.62059 0.00172329 4.62809 0.0019516Z" fill="#FFD042"/>
<path d="M8.11312 1.81758C8.11455 1.81952 8.1159 1.8215 8.11732 1.82343C8.12531 1.83422 8.13332 1.84498 8.14121 1.85583C8.11522 1.82012 8.08877 1.78479 8.06177 1.74988C8.07909 1.77227 8.09614 1.7949 8.11303 1.81762C8.11307 1.8176 8.11309 1.8176 8.11312 1.81758Z" fill="#FFD042"/>
<path d="M4.85713 0.0140842C4.85135 0.0136276 4.84558 0.0131329 4.83978 0.0126953C4.84299 0.0129426 4.84618 0.0132471 4.84938 0.0134944C4.85199 0.0137037 4.85456 0.0138939 4.85713 0.0140842Z" fill="#FFD042"/>
<path d="M8.341 2.15663C8.37177 2.20712 8.40192 2.25803 8.43081 2.30976C7.60321 2.75693 6.15243 3.05365 4.50001 3.05365C4.08595 3.05365 3.68457 3.03501 3.30246 3.00004C3.10936 3.33373 2.95789 3.69446 2.85516 4.07528C2.8555 4.07531 2.85582 4.07537 2.85616 4.07541C2.85614 4.07548 2.85612 4.07556 2.8561 4.07563C3.01259 4.09599 3.17292 4.11366 3.33696 4.12819L3.33693 4.12806C4.19264 4.18605 4.75201 4.54834 5.28049 4.64299C5.42178 4.6683 5.52499 4.51328 5.44444 4.39448L5.28278 4.15605C6.88045 4.06288 8.20034 3.68912 8.80486 3.18711C8.88184 3.43984 8.93723 3.70194 8.96894 3.97131C8.88619 3.26447 8.63972 2.60779 8.26834 2.04004C8.29345 2.07842 8.31801 2.1172 8.34197 2.1564C8.34164 2.1565 8.34132 2.15655 8.341 2.15663ZM4.72501 4.20008C4.60075 4.20008 4.50001 4.13291 4.50001 4.05008C4.50001 3.96724 4.60075 3.90008 4.72501 3.90008C4.84926 3.90008 4.95001 3.96724 4.95001 4.05008C4.95001 4.13291 4.84926 4.20008 4.72501 4.20008Z" fill="#FFD042"/>
<path d="M5.08295 0.03759C5.07493 0.0365436 5.06688 0.0355543 5.05884 0.0345459C5.06632 0.0354782 5.0738 0.0364104 5.08126 0.0373807C5.08183 0.0374568 5.08239 0.0375329 5.08295 0.03759Z" fill="#FFD042"/>
<path d="M4.60779 8.99862C4.61986 8.99833 4.63188 8.99782 4.64394 8.99744C4.63188 8.99782 4.61986 8.99833 4.60779 8.99862Z" fill="#FFD042"/>
<path d="M3.62946 8.91556C3.60359 8.91048 3.57777 8.90519 3.55206 8.89966C3.57779 8.90519 3.60359 8.9105 3.62946 8.91556Z" fill="#FF9300"/>
<path d="M4.39223 8.99862C4.38015 8.99833 4.36814 8.99782 4.35608 8.99744C4.36814 8.99782 4.38015 8.99833 4.39223 8.99862Z" fill="#FF9300"/>
<path d="M3.72635 8.93345C3.70194 8.92921 3.6776 8.92469 3.65332 8.92004C3.6776 8.92468 3.70192 8.92921 3.72635 8.93345Z" fill="#FF9300"/>
<path d="M3.9704 8.96878C3.89782 8.96025 3.82575 8.95005 3.75427 8.93811C3.82577 8.95003 3.89782 8.96027 3.9704 8.96878Z" fill="#FF9300"/>
<path d="M4.17878 8.98851C4.16335 8.9874 4.1479 8.98624 4.13251 8.98499C4.1479 8.98626 4.16333 8.9874 4.17878 8.98851Z" fill="#FF9300"/>
<path d="M4.07358 8.97984C4.05741 8.97829 4.04125 8.97681 4.02515 8.9751C4.04125 8.97681 4.05743 8.97829 4.07358 8.97984Z" fill="#FF9300"/>
<path d="M4.28513 8.99477C4.27071 8.99409 4.25632 8.99325 4.24194 8.99243C4.25632 8.99325 4.27071 8.99409 4.28513 8.99477Z" fill="#FF9300"/>
<path d="M2.04986 8.2734C1.97934 8.22748 1.91019 8.17965 1.84247 8.12998C1.83503 8.12453 1.82762 8.11905 1.82019 8.11356C1.7877 8.08941 1.75541 8.06501 1.72361 8.04002C1.72358 8.04 1.72354 8.03996 1.7235 8.03995C1.72352 8.03995 1.72356 8.03996 1.72358 8.03996C1.75978 8.04925 1.79651 8.0583 1.83351 8.06721C1.83919 8.06858 1.84485 8.06996 1.85057 8.07131C1.8888 8.08045 1.92737 8.08941 1.96641 8.09813C1.96654 8.09816 1.96665 8.09818 1.96678 8.0982C2.54623 8.22776 3.21459 8.31366 3.933 8.34392C3.63958 8.03428 3.38976 7.68298 3.19324 7.29981C3.11389 7.26118 3.03551 7.22273 2.95823 7.18586C2.95689 7.18523 2.95556 7.18459 2.95425 7.18397C2.94377 7.17898 2.93333 7.17401 2.92288 7.16908C2.92065 7.16803 2.9184 7.16696 2.91617 7.16591C2.90653 7.16136 2.89689 7.15686 2.88729 7.15238C2.88439 7.15103 2.88148 7.14966 2.87859 7.14831C2.86974 7.14418 2.86091 7.14011 2.8521 7.13604C2.84844 7.13436 2.84479 7.13267 2.84115 7.131C2.83305 7.12729 2.82497 7.12361 2.81689 7.11996C2.81271 7.11806 2.80851 7.11617 2.80433 7.11428C2.79664 7.11081 2.78897 7.10739 2.7813 7.10398C2.77686 7.10201 2.77241 7.10003 2.76799 7.09808C2.76062 7.09483 2.75329 7.09163 2.74596 7.08844C2.74125 7.08639 2.73654 7.08433 2.73186 7.08233C2.72483 7.07929 2.71779 7.07631 2.71078 7.07333C2.70583 7.07123 2.7009 7.06913 2.69597 7.06706C2.68924 7.06423 2.68253 7.06146 2.67583 7.05868C2.67066 7.05655 2.66546 7.05439 2.66031 7.05229C2.65382 7.04964 2.64735 7.04704 2.64088 7.04445C2.63558 7.04233 2.63027 7.04019 2.62498 7.03811C2.61866 7.03562 2.61238 7.03318 2.60608 7.03074C2.60066 7.02864 2.59524 7.02655 2.58983 7.02448C2.58368 7.02214 2.57756 7.01987 2.57143 7.01758C2.56594 7.01554 2.56043 7.01348 2.55493 7.01147C2.54893 7.00928 2.54293 7.00716 2.53695 7.00502C2.53136 7.00303 2.52578 7.00103 2.52021 6.99908C2.51434 6.99703 2.50851 6.99506 2.50266 6.99308C2.49703 6.99116 2.49139 6.98923 2.48576 6.98738C2.47995 6.98545 2.47416 6.98361 2.46836 6.98175C2.46276 6.97995 2.45713 6.97813 2.45154 6.97637C2.44581 6.97457 2.44007 6.97286 2.43433 6.97114C2.42873 6.96945 2.4231 6.96773 2.41751 6.96609C2.41187 6.96444 2.40626 6.96289 2.40066 6.96131C2.39499 6.95972 2.38931 6.95809 2.38367 6.95657C2.37806 6.95505 2.37249 6.95364 2.36693 6.95218C2.36134 6.95074 2.35573 6.94924 2.35016 6.94785C2.34448 6.94644 2.33884 6.94515 2.33318 6.9438C2.3277 6.94251 2.32223 6.94118 2.31677 6.93996C2.31103 6.93866 2.30533 6.9375 2.29961 6.9363C2.29429 6.93518 2.28896 6.93399 2.28366 6.93294C2.27783 6.93178 2.27203 6.93075 2.26622 6.92966C2.26104 6.92871 2.25585 6.92768 2.25069 6.92679C2.24477 6.92576 2.23886 6.92488 2.23296 6.92394C2.22797 6.92316 2.22296 6.92229 2.21799 6.92158C2.2119 6.9207 2.20586 6.91997 2.19979 6.91918C2.19503 6.91856 2.19023 6.91787 2.18548 6.91733C2.17883 6.91656 2.17221 6.91596 2.16559 6.9153C2.16148 6.91491 2.15738 6.91442 2.15329 6.91406C2.14554 6.91341 2.13784 6.91292 2.13013 6.91245C2.12717 6.91226 2.12419 6.912 2.12123 6.91183C2.11056 6.91127 2.09993 6.91086 2.08935 6.91065C2.03753 6.90964 2.00394 6.92717 1.98332 6.95629C1.98043 6.96038 1.97783 6.96471 1.97543 6.96923C1.97033 6.97892 1.96622 6.98946 1.96324 7.00095C1.96007 7.01321 1.95789 7.02626 1.95684 7.04016C1.95626 7.04779 1.956 7.05564 1.95598 7.06367C1.95596 7.10541 1.96335 7.15198 1.97439 7.19846C1.97822 7.21457 1.98244 7.23068 1.98701 7.24656C1.99209 7.26418 1.99751 7.28153 2.0031 7.29833C2.00869 7.31513 2.01443 7.33136 2.02013 7.34678C2.04006 7.4007 2.05935 7.44441 2.06914 7.46576C2.07193 7.47186 2.07396 7.47615 2.07499 7.47833C2.07551 7.47941 2.07578 7.47998 2.07578 7.47998C2.01555 7.4673 1.95624 7.45418 1.89788 7.4406C1.79222 7.41602 1.68984 7.3899 1.59064 7.36247C1.30626 7.28385 1.04908 7.194 0.824719 7.09489C0.53745 6.68878 0.31605 6.23323 0.175406 5.74316C0.175406 5.74316 0.175406 5.74316 0.175406 5.74314C0.189319 5.75505 0.203756 5.76684 0.218456 5.7786C0.222056 5.78147 0.225694 5.78434 0.229331 5.78721C0.242775 5.79778 0.256463 5.8083 0.270544 5.81874C0.272119 5.81991 0.273638 5.82109 0.275213 5.82225C0.291469 5.83425 0.308175 5.84614 0.325256 5.85797C0.327525 5.85954 0.329831 5.8611 0.332119 5.86266C0.348581 5.87396 0.365363 5.88519 0.382575 5.89635C0.383419 5.89689 0.384263 5.89746 0.385106 5.89802C0.925819 6.24722 1.8306 6.51893 2.92374 6.65451C2.85334 6.44012 2.79868 6.21859 2.76099 5.99132C1.60734 5.8311 0.682669 5.51625 0.202031 5.12121C0.200325 5.1198 0.198675 5.11839 0.196969 5.11701C0.182513 5.10503 0.168469 5.09299 0.154838 5.08088C0.152625 5.07893 0.150375 5.07698 0.148181 5.07501C0.133538 5.06183 0.119306 5.04857 0.105638 5.03522C0.10365 5.03329 0.101794 5.03134 0.099825 5.02939C0.0885 5.01819 0.07755 5.00693 0.0669188 4.99562C0.0636563 4.99215 0.0603938 4.98866 0.0571875 4.98518C0.0451125 4.97201 0.0333563 4.95881 0.0222375 4.94552C0.0222188 4.9455 0.0222 4.94548 0.0221813 4.94544C0.00770625 4.79891 0 4.65036 0 4.5C0 6.65498 1.51491 8.45582 3.53777 8.89654C3.00285 8.77971 2.50369 8.56746 2.05845 8.27897C2.05558 8.27711 2.05271 8.27526 2.04986 8.2734ZM2.85 7.35C3.03126 7.45626 3.15938 7.58438 3.15 7.8C3.14063 8.01563 2.27813 7.575 2.25 7.35C2.22188 7.125 2.6211 7.21581 2.85 7.35Z" fill="#FF9300"/>
<path d="M4.77014 0.00830078C4.78799 0.00938525 4.80582 0.0105268 4.82362 0.0118015C4.80582 0.0105268 4.78799 0.00936622 4.77014 0.00830078Z" fill="#FF9300"/>
<path d="M4.5 0C4.52693 0 4.55379 0.00026636 4.58063 0.000761029C4.55379 0.00026636 4.52693 0 4.5 0Z" fill="#FF9300"/>
<path d="M4.17316 0.0119522C4.19466 0.0103731 4.21621 0.00896515 4.23781 0.00769043C4.21623 0.00896515 4.19468 0.0103921 4.17316 0.0119522Z" fill="#FF9300"/>
<path d="M4.5 0C4.47359 0 4.44722 0.000285386 4.4209 0.000742004C4.42461 0.000684927 4.42834 0.000703952 4.43207 0.000627849C4.45467 0.000228309 4.47732 0 4.5 0Z" fill="#FF9300"/>
<path d="M8.34101 2.15649C8.34133 2.15643 8.34167 2.15636 8.34199 2.1563C8.31803 2.11711 8.29346 2.07834 8.26836 2.03994C8.2663 2.03677 8.2642 2.03362 8.26211 2.03047C8.24136 1.9989 8.22013 1.96764 8.19861 1.93665C8.24826 2.00835 8.29551 2.08181 8.34101 2.15649Z" fill="#FF9300"/>
<path d="M6.5124 0.475223C6.5145 0.476273 6.5166 0.477304 6.5187 0.478354C6.53374 0.485929 6.5487 0.493598 6.56363 0.501323C6.57452 0.506948 6.5854 0.512591 6.59623 0.518291C6.60388 0.522323 6.61152 0.526391 6.61913 0.530479C6.63735 0.54021 6.65548 0.550054 6.67356 0.560029C6.67562 0.561172 6.67768 0.562316 6.67975 0.56346C6.6901 0.569198 6.70052 0.574841 6.71082 0.580673C6.71447 0.582735 6.7183 0.584516 6.72195 0.586598C6.81381 0.638873 6.90357 0.694391 6.99124 0.752797C6.99242 0.753585 6.99355 0.754466 6.99473 0.755254C6.86683 0.760991 6.7404 0.772279 6.61551 0.788497C6.52275 0.804866 6.42825 0.820185 6.33205 0.834435C5.2906 1.03797 4.37807 1.60088 3.72803 2.38851C3.72821 2.38851 3.72842 2.38853 3.72861 2.38855C3.72857 2.3886 3.72853 2.38864 3.72848 2.3887C3.97945 2.40313 4.23713 2.41075 4.5 2.41075C4.82567 2.41075 5.14354 2.39923 5.45037 2.37732C5.50898 2.37313 5.56718 2.36856 5.62497 2.36363L6.17318 2.30408C6.93808 2.2026 7.60401 2.03305 8.11303 1.81767C8.09614 1.79494 8.07908 1.77233 8.06177 1.74992C8.06117 1.74915 8.06059 1.74837 8.05999 1.7476C8.04619 1.72978 8.03226 1.71208 8.01822 1.6945C8.01619 1.69197 8.01415 1.68945 8.01214 1.68694C7.9858 1.65411 7.95902 1.62163 7.9318 1.58957C7.92943 1.58678 7.92709 1.58398 7.92471 1.58119C7.91044 1.56447 7.89606 1.54783 7.88155 1.53133C7.87958 1.52908 7.87757 1.52687 7.8756 1.52464C7.84857 1.49398 7.82112 1.46374 7.79327 1.43383C7.78937 1.42965 7.78549 1.42543 7.78157 1.42127C7.76698 1.40571 7.7523 1.39024 7.73749 1.3749C7.73565 1.37299 7.73378 1.37112 7.73194 1.36922C7.70398 1.34037 7.67562 1.3119 7.64691 1.2838C7.64155 1.27855 7.63618 1.27328 7.63078 1.26805C7.61607 1.2538 7.60129 1.23958 7.58638 1.22554C7.58457 1.22382 7.58271 1.22215 7.58089 1.22044C7.55203 1.19333 7.5228 1.16663 7.49325 1.14027C7.48633 1.1341 7.47942 1.12795 7.47246 1.12182C7.45782 1.10892 7.44313 1.09603 7.4283 1.08334C7.42755 1.0827 7.4268 1.08207 7.42605 1.08143C7.39527 1.05505 7.36407 1.02913 7.33258 1.0036C7.324 0.996641 7.31539 0.989704 7.30677 0.982804C7.28464 0.965122 7.26231 0.947666 7.23985 0.930397C7.22903 0.922072 7.21825 0.91371 7.20735 0.905497C7.19333 0.894922 7.17919 0.884498 7.16503 0.874072C7.15472 0.866479 7.14437 0.858941 7.13398 0.851441C7.11572 0.838223 7.09737 0.825154 7.0789 0.812197C7.06326 0.801247 7.04758 0.790316 7.0318 0.779554C7.01832 0.770348 7.00472 0.761291 6.99113 0.752235C6.97881 0.744022 6.96643 0.735904 6.95402 0.727822C6.93668 0.716516 6.91926 0.705304 6.90177 0.694223C6.88459 0.683348 6.86736 0.672548 6.85002 0.661916C6.83708 0.653966 6.82405 0.646129 6.81102 0.63831C6.79635 0.629516 6.78162 0.620835 6.76684 0.612191C6.75058 0.602685 6.73429 0.593273 6.7179 0.583973C6.6994 0.573472 6.68083 0.563066 6.66218 0.55281C6.6498 0.546023 6.63739 0.53931 6.62494 0.532616C6.60745 0.523223 6.58986 0.513979 6.57223 0.50481C6.55755 0.497179 6.54282 0.489604 6.52804 0.482123C6.50828 0.472129 6.48846 0.462266 6.46853 0.452554C6.45681 0.446854 6.44507 0.441191 6.4333 0.435566C6.41209 0.42546 6.39077 0.415504 6.36938 0.405716C6.35706 0.400091 6.3447 0.394523 6.33235 0.38901C6.31144 0.379673 6.29044 0.370485 6.26937 0.361448C6.25834 0.356723 6.2473 0.352035 6.23623 0.347385C6.20942 0.336154 6.18252 0.325091 6.15544 0.314385C6.14757 0.311254 6.1396 0.308273 6.13168 0.305198C6.1095 0.296573 6.08725 0.288098 6.06492 0.27981C6.05464 0.276004 6.04438 0.272198 6.03407 0.268448C6.00602 0.258285 5.97786 0.24831 5.94956 0.238673C5.94167 0.235991 5.9337 0.233423 5.92579 0.230779C5.90241 0.222979 5.87895 0.215348 5.8554 0.207923C5.84597 0.204941 5.83656 0.20196 5.82711 0.199035C5.79786 0.190016 5.76851 0.18126 5.73902 0.172841C5.73116 0.170591 5.72325 0.168454 5.71538 0.16626C5.6907 0.15936 5.66595 0.152648 5.64109 0.14616C5.6326 0.143929 5.6241 0.14166 5.61559 0.139504C5.58525 0.13176 5.5548 0.124316 5.52424 0.11721C5.51637 0.115373 5.50845 0.113629 5.50056 0.111848C5.47452 0.105941 5.4484 0.100241 5.42218 0.0947851C5.41472 0.0932289 5.40728 0.0916164 5.3998 0.0900976C5.36848 0.0837414 5.33706 0.0777414 5.30552 0.0720414C5.29755 0.0705976 5.28955 0.0692476 5.28156 0.0678414C5.25405 0.0630226 5.22647 0.0584476 5.19878 0.0541352C5.19253 0.0531602 5.18629 0.0521102 5.18003 0.0511727C5.14782 0.0462789 5.11547 0.0417977 5.08303 0.0375977C5.59105 0.103485 6.07223 0.254441 6.5124 0.475223Z" fill="#FF9300"/>
<path d="M8.19822 1.93623C8.1814 1.912 8.16443 1.88791 8.14714 1.86404C8.14517 1.86131 8.14318 1.8586 8.1412 1.85589C8.1333 1.84503 8.1253 1.83427 8.11731 1.82349C8.14483 1.86063 8.17185 1.89819 8.19822 1.93623Z" fill="#FF9300"/>
<path d="M4.74225 0.00662374C4.74087 0.00654763 4.73948 0.0064525 4.73809 0.0063764C4.73533 0.0062242 4.7326 0.00603394 4.72984 0.00590076C4.7164 0.00521583 4.70292 0.00472116 4.68945 0.00415039C4.70708 0.00489239 4.72468 0.00567245 4.74225 0.00662374Z" fill="#FF9300"/>
<path d="M4.90616 0.0182222C4.88985 0.0167382 4.87352 0.0153303 4.85715 0.0140175C4.85458 0.0138082 4.852 0.013637 4.84943 0.0134277C4.86836 0.0149308 4.88728 0.0165099 4.90616 0.0182222Z" fill="#FF9300"/>
<path d="M5.08122 0.037292C5.07376 0.0363357 5.06628 0.035417 5.05879 0.0344982C5.04111 0.0323045 5.02341 0.0301857 5.00568 0.0281982C5.03091 0.0310295 5.05611 0.0340482 5.08122 0.037292Z" fill="#FF9300"/>
<path d="M4.99093 0.0266674C4.9842 0.0259254 4.97745 0.0251644 4.97071 0.0244414C4.96603 0.0239467 4.96134 0.023376 4.95665 0.0229003C4.94705 0.021911 4.93741 0.0210739 4.9278 0.0201416C4.94889 0.0221774 4.96993 0.0243463 4.99093 0.0266674Z" fill="#FF9300"/>
<path d="M4.66135 0.00292191C4.65029 0.00252237 4.63919 0.00223698 4.62809 0.00191355C4.62059 0.00170426 4.61309 0.00151401 4.60559 0.00134277C4.62421 0.00179939 4.64281 0.00225601 4.66135 0.00292191Z" fill="#FF9300"/>
<path d="M4.3976 0.0012207C4.39713 0.0012207 4.39666 0.00123973 4.39619 0.00125875C4.38898 0.00142999 4.38176 0.00158219 4.37454 0.00177245C4.3634 0.00207686 4.35224 0.00241932 4.34113 0.00281886C4.35991 0.00215296 4.37874 0.0016583 4.3976 0.0012207Z" fill="#FF9300"/>
<path d="M4.31604 0.00390625C4.3022 0.00447702 4.28836 0.00502877 4.27456 0.00571369C4.26899 0.00599908 4.26342 0.00632252 4.25787 0.00662693C4.27722 0.00558051 4.29663 0.0046863 4.31604 0.00390625Z" fill="#FF9300"/>
<path d="M4.5 0C4.47731 0 4.45466 0.000228309 4.43207 0.000627849C4.45468 0.000304412 4.47731 0 4.5 0Z" fill="#FF7400"/>
<path d="M6.67351 0.559946C6.65544 0.549971 6.63731 0.540127 6.61908 0.530396C6.63729 0.540146 6.65546 0.549952 6.67351 0.559946Z" fill="#FF7400"/>
<path d="M6.9947 0.75527C6.99352 0.754483 6.99239 0.753602 6.99121 0.752814C6.90354 0.694408 6.81378 0.638889 6.72192 0.586614C6.71827 0.584533 6.71444 0.582752 6.71079 0.580689C6.70047 0.574858 6.69007 0.569214 6.67972 0.563477C6.77082 0.614064 6.86 0.667708 6.94709 0.724277C6.83947 0.747227 6.72864 0.768545 6.61548 0.788514C6.74035 0.772295 6.8668 0.761008 6.9947 0.75527Z" fill="#FF7400"/>
<path d="M6.51927 0.47869C6.51698 0.477526 6.51468 0.476363 6.51239 0.47522C6.51468 0.476383 6.51698 0.477526 6.51927 0.47869Z" fill="#FF7400"/>
<path d="M6.5962 0.518311C6.58537 0.512611 6.57449 0.506968 6.5636 0.501343C6.57449 0.506987 6.58537 0.512593 6.5962 0.518311Z" fill="#FF7400"/>
<path d="M0.985832 1.8588C1.00331 1.86572 1.02089 1.8726 1.03871 1.87941C1.04855 1.88318 1.05849 1.88691 1.06843 1.89064C1.08515 1.89692 1.10204 1.90314 1.11905 1.90931C1.12936 1.91306 1.13964 1.91681 1.15004 1.92053C1.16819 1.92699 1.18657 1.93339 1.20502 1.93974C1.21426 1.94293 1.22338 1.94616 1.2327 1.94931C1.25913 1.95827 1.28589 1.96714 1.31295 1.97588C1.32449 1.97961 1.33627 1.98326 1.34791 1.98696C1.36439 1.99219 1.38089 1.9974 1.3976 2.00256C1.41196 2.00698 1.42648 2.01133 1.44099 2.0157C1.45511 2.01994 1.4693 2.02416 1.48357 2.02836C1.49941 2.03301 1.51531 2.03762 1.53133 2.04219C1.54408 2.04583 1.55694 2.04941 1.56982 2.05301C1.58728 2.05789 1.60471 2.06276 1.62238 2.06754C1.63132 2.06996 1.64041 2.07233 1.64941 2.07474C1.71956 2.09348 1.79126 2.11155 1.86451 2.12889C1.87096 2.13043 1.87738 2.13197 1.88386 2.13349C1.9079 2.13911 1.93211 2.14466 1.95646 2.15016C1.96224 2.15145 1.96801 2.15274 1.97381 2.15404C1.99995 2.15987 2.02621 2.16563 2.05271 2.17127C2.05301 2.17133 2.05329 2.1714 2.05359 2.17146C2.55628 2.27856 3.1224 2.35363 3.72804 2.38847C4.37808 1.60084 5.29061 1.03793 6.33206 0.834394C5.76971 0.9177 5.15098 0.964275 4.50001 0.964275C3.6026 0.964275 2.76579 0.87615 2.05462 0.724594C2.35284 0.530906 2.67532 0.371475 3.01646 0.251831C2.9759 0.265912 2.9355 0.28035 2.89552 0.295631C2.87248 0.304425 2.84962 0.313575 2.82676 0.322725C2.76815 0.346237 2.71014 0.370969 2.65278 0.396862C2.63317 0.405712 2.61343 0.414337 2.59396 0.42345C2.52211 0.457125 2.45113 0.492319 2.38141 0.529631C2.37817 0.531356 2.37481 0.532912 2.37159 0.534656C2.29434 0.576244 2.21846 0.6201 2.144 0.665981C2.1381 0.669619 2.13236 0.673537 2.12647 0.677213C2.06081 0.718106 1.99633 0.760725 1.93297 0.804844C1.9194 0.814294 1.90601 0.823988 1.89254 0.833588C1.83506 0.874575 1.77855 0.916819 1.7231 0.960394C1.71138 0.9696 1.69959 0.978694 1.68796 0.987994C1.48663 1.14951 1.29937 1.3278 1.12856 1.52102C1.12203 1.52841 1.11568 1.53593 1.10919 1.54337C1.05884 1.60106 1.00996 1.66007 0.962582 1.72031C0.955551 1.72926 0.948482 1.73814 0.941507 1.74713C0.923207 1.77075 0.905357 1.79477 0.887451 1.81871C0.911732 1.82897 0.936445 1.83911 0.961439 1.84916C0.969482 1.85239 0.977695 1.85558 0.985832 1.8588Z" fill="#FF7400"/>
<path d="M3.40324 0.135256C3.39651 0.136944 3.38961 0.138237 3.38288 0.139944C3.29965 0.161225 3.21747 0.185169 3.13615 0.211025C3.11704 0.2171 3.09829 0.223944 3.0793 0.230262C3.07742 0.230881 3.07559 0.231556 3.07373 0.232175C3.18797 0.19385 3.30424 0.159931 3.42237 0.130737C3.41603 0.132294 3.4096 0.133662 3.40324 0.135256Z" fill="#FF7400"/>
<path d="M8.43077 2.3096C8.40188 2.25787 8.37173 2.20696 8.34096 2.15647C8.29545 2.0818 8.24821 2.00832 8.19856 1.9366C8.19844 1.93644 8.19833 1.93627 8.1982 1.9361C8.17184 1.89805 8.14482 1.86052 8.11729 1.82335C8.11587 1.82142 8.11454 1.81944 8.11309 1.8175C8.11307 1.81752 8.11304 1.81752 8.113 1.81754C7.60397 2.03292 6.93805 2.20248 6.17314 2.30395L5.62493 2.3635C5.56714 2.36845 5.50894 2.37301 5.45033 2.37719C5.14351 2.39911 4.82564 2.41062 4.49997 2.41062C4.23709 2.41062 3.97943 2.40301 3.72844 2.38857C3.57055 2.57984 3.42779 2.78397 3.30284 2.9999C3.29867 2.99952 3.29457 2.99909 3.29041 2.99872C3.29444 2.99909 3.29839 2.99951 3.30242 2.99988C3.68453 3.03485 4.08591 3.05349 4.49997 3.05349C6.15239 3.05349 7.60317 2.75677 8.43077 2.3096Z" fill="#FFEDB9"/>
<path d="M0.924167 2.47657C0.915599 2.47303 0.906974 2.4695 0.898499 2.46594C0.906974 2.4695 0.915599 2.47303 0.924167 2.47657Z" fill="#FFEDB9"/>
<path d="M0.821425 2.43282C0.819915 2.43214 0.81838 2.43146 0.816895 2.43079C0.81838 2.43149 0.819915 2.43214 0.821425 2.43282Z" fill="#FFEDB9"/>
<path d="M0.740484 2.39581C0.732702 2.39215 0.725052 2.38846 0.717346 2.38477C0.725034 2.38846 0.732684 2.39215 0.740484 2.39581Z" fill="#FFEDB9"/>
<path d="M2.50081 2.89839C2.49067 2.8967 2.4805 2.89502 2.4704 2.89331C2.4805 2.89502 2.49067 2.8967 2.50081 2.89839Z" fill="#FFEDB9"/>
<path d="M1.01124 2.51154C1.00235 2.50809 0.993596 2.50459 0.984802 2.5011C0.993596 2.50459 1.00235 2.50809 1.01124 2.51154Z" fill="#FFEDB9"/>
<path d="M2.36796 2.87581C2.35403 2.8733 2.34021 2.87071 2.32635 2.86816C2.34019 2.87073 2.35401 2.8733 2.36796 2.87581Z" fill="#FFEDB9"/>
<path d="M2.25063 2.85416C2.23696 2.85152 2.22325 2.84889 2.20966 2.84619C2.22325 2.84889 2.23694 2.85152 2.25063 2.85416Z" fill="#FFEDB9"/>
<path d="M0.569214 2.30969C0.570044 2.31015 0.570987 2.31061 0.571855 2.31107C0.570987 2.31061 0.570082 2.31015 0.569214 2.30969Z" fill="#FFEDB9"/>
<path d="M1.99191 2.80102C1.97934 2.79821 1.96689 2.79533 1.95441 2.79248C1.96689 2.79533 1.97934 2.79821 1.99191 2.80102Z" fill="#FFEDB9"/>
<path d="M1.75179 2.74433C1.74613 2.74288 1.74045 2.74146 1.7348 2.73999C1.74043 2.74146 1.74613 2.74288 1.75179 2.74433Z" fill="#FFEDB9"/>
<path d="M1.88114 2.77585C1.86877 2.7729 1.85636 2.76995 1.84406 2.76697C1.85636 2.76995 1.86877 2.7729 1.88114 2.77585Z" fill="#FFEDB9"/>
<path d="M2.1151 2.82732C2.10725 2.82568 2.09937 2.82404 2.09155 2.82239C2.09937 2.82404 2.10725 2.82568 2.1151 2.82732Z" fill="#FFEDB9"/>
<path d="M1.63913 2.71479C1.62781 2.71174 1.6166 2.70864 1.60535 2.70557C1.6166 2.70864 1.62781 2.71174 1.63913 2.71479Z" fill="#FFEDB9"/>
<path d="M2.64164 2.92055C2.62677 2.91828 2.61188 2.91602 2.59711 2.9137C2.61188 2.91602 2.62677 2.91828 2.64164 2.92055Z" fill="#FFEDB9"/>
<path d="M1.10204 2.54599C1.09998 2.54521 1.09788 2.54446 1.09583 2.5437C1.09788 2.54446 1.09998 2.54521 1.10204 2.54599Z" fill="#FFEDB9"/>
<path d="M1.21568 2.5862C1.20595 2.58287 1.19618 2.57955 1.18652 2.57617C1.19618 2.57953 1.20595 2.58285 1.21568 2.5862Z" fill="#FFEDB9"/>
<path d="M1.31148 2.6181C1.30143 2.61484 1.29151 2.61156 1.28156 2.60828C1.29153 2.61154 1.30145 2.61484 1.31148 2.6181Z" fill="#FFEDB9"/>
<path d="M1.5354 2.68619C1.5244 2.68306 1.51335 2.67993 1.50244 2.67676C1.51335 2.67993 1.5244 2.68304 1.5354 2.68619Z" fill="#FFEDB9"/>
<path d="M1.41355 2.65027C1.40987 2.64912 1.40615 2.648 1.40247 2.64685C1.40615 2.648 1.40987 2.64912 1.41355 2.65027Z" fill="#FFEDB9"/>
<path d="M0.662811 2.35814C0.655329 2.35441 0.647811 2.35067 0.640442 2.34692C0.647829 2.35067 0.655329 2.35439 0.662811 2.35814Z" fill="#FFEDB9"/>
<path d="M0.708939 2.07699C0.716008 2.06592 0.72302 2.05482 0.730202 2.04382C0.779945 1.96734 0.831527 1.89215 0.885845 1.81906C0.886052 1.8188 0.88622 1.81852 0.886408 1.81826C0.911027 1.82866 0.936095 1.83894 0.961445 1.84912C0.936452 1.83907 0.911739 1.82894 0.887458 1.81867C0.887102 1.81852 0.886745 1.81839 0.886389 1.81824C0.77027 1.97444 0.664633 2.13877 0.569214 2.30962C0.569251 2.30956 0.569326 2.30945 0.569326 2.30945C0.613501 2.23044 0.660376 2.15309 0.708939 2.07699Z" fill="#FFEDB9"/>
<path d="M3.05184 2.97435C3.03601 2.97254 3.02019 2.97074 3.00446 2.96887C3.02019 2.97074 3.03601 2.97254 3.05184 2.97435Z" fill="#FFEDB9"/>
<path d="M2.76469 2.93844C2.74973 2.93633 2.73486 2.93416 2.71997 2.93201C2.73486 2.93416 2.74973 2.93633 2.76469 2.93844Z" fill="#FFEDB9"/>
<path d="M3.18023 2.9882C3.16435 2.98656 3.14856 2.98485 3.13275 2.98315C3.14856 2.98485 3.16435 2.98656 3.18023 2.9882Z" fill="#FFEDB9"/>
<path d="M2.90577 2.95697C2.89417 2.95548 2.88252 2.95402 2.87097 2.95251C2.88254 2.95402 2.89417 2.95548 2.90577 2.95697Z" fill="#FFEDB9"/>
<path d="M1.97376 2.15408C1.96797 2.15277 1.9622 2.15146 1.95642 2.15015C1.9622 2.15146 1.96797 2.15277 1.97376 2.15408Z" fill="#FFEDB9"/>
<path d="M1.20506 1.93975C1.18661 1.93339 1.16822 1.927 1.15009 1.92053C1.16822 1.927 1.18661 1.93339 1.20506 1.93975Z" fill="#FFEDB9"/>
<path d="M1.31292 1.97591C1.28586 1.96715 1.2591 1.9583 1.23267 1.94934C1.25912 1.9583 1.28586 1.96717 1.31292 1.97591Z" fill="#FFEDB9"/>
<path d="M1.11911 1.9093C1.1021 1.90311 1.08521 1.89689 1.06848 1.89062C1.08519 1.89689 1.10208 1.90311 1.11911 1.9093Z" fill="#FFEDB9"/>
<path d="M1.64941 2.07481C1.64041 2.07238 1.63132 2.06998 1.62238 2.0675C1.63132 2.06998 1.64041 2.07238 1.64941 2.07481Z" fill="#FFEDB9"/>
<path d="M1.03871 1.87937C1.0209 1.87256 1.00331 1.86568 0.98584 1.85876C1.00331 1.86568 1.0209 1.87256 1.03871 1.87937Z" fill="#FFEDB9"/>
<path d="M1.88385 2.13357C1.87738 2.13203 1.87095 2.13047 1.8645 2.12891C1.87097 2.13047 1.87738 2.13203 1.88385 2.13357Z" fill="#FFEDB9"/>
<path d="M1.39765 2.00254C1.38094 1.9974 1.36444 1.99217 1.34796 1.98694C1.36444 1.99217 1.38094 1.9974 1.39765 2.00254Z" fill="#FFEDB9"/>
<path d="M1.48356 2.02828C1.46929 2.0241 1.4551 2.01988 1.44098 2.01562C1.4551 2.01988 1.46927 2.0241 1.48356 2.02828Z" fill="#FFEDB9"/>
<path d="M1.56987 2.05305C1.557 2.04945 1.54412 2.04587 1.53137 2.04224C1.54414 2.04587 1.557 2.04947 1.56987 2.05305Z" fill="#FFEDB9"/>
<path d="M2.0538 2.17151C2.05341 2.17143 2.05306 2.17134 2.05267 2.17126C2.05306 2.17134 2.05341 2.17143 2.0538 2.17151Z" fill="#FFEDB9"/>
<path d="M3.42236 0.130725C3.30422 0.159919 3.18797 0.193819 3.07373 0.232163C3.05458 0.238594 3.0355 0.245156 3.01646 0.251831C2.67533 0.371475 2.35285 0.530906 2.05463 0.724594C2.76578 0.87615 3.60259 0.964275 4.5 0.964275C5.15096 0.964275 5.76969 0.9177 6.33204 0.834394C6.42823 0.820144 6.52275 0.804806 6.61551 0.788456C6.72866 0.768488 6.83949 0.747188 6.94712 0.724219C6.86002 0.66765 6.77083 0.614006 6.67974 0.563419C6.67768 0.562275 6.67562 0.561131 6.67356 0.559988C6.6555 0.549994 6.63733 0.540188 6.61912 0.530438C6.61151 0.52635 6.60388 0.522281 6.59623 0.51825C6.58539 0.512531 6.57452 0.506925 6.56363 0.501281C6.5487 0.493556 6.53374 0.485869 6.5187 0.478313C6.5166 0.477263 6.5145 0.476231 6.5124 0.475181C6.07223 0.254419 5.59104 0.103463 5.08307 0.0375563C5.08303 0.0375563 5.08301 0.0375563 5.08298 0.0375375C5.08241 0.0374625 5.08185 0.0374063 5.08129 0.0373313C5.05618 0.0340875 5.03098 0.0310688 5.00573 0.0282375C5.00081 0.0276938 4.99588 0.0271875 4.99097 0.0266438C4.96997 0.0243563 4.94893 0.0222188 4.92784 0.0202125C4.92062 0.0195375 4.91342 0.0188813 4.9062 0.0182438C4.88732 0.0165563 4.8684 0.0149813 4.84946 0.0135188C4.84626 0.013275 4.84307 0.0129563 4.83986 0.0127313C4.83448 0.0123375 4.82906 0.0119813 4.82366 0.0116063C4.80587 0.0103313 4.78804 0.00920625 4.77019 0.00815625C4.76089 0.0076125 4.75159 0.00703125 4.74227 0.00654375C4.7247 0.00560625 4.70709 0.0048375 4.68947 0.00410625C4.68011 0.0037125 4.67076 0.00328125 4.66138 0.00294375C4.64284 0.0022875 4.62424 0.00181875 4.60564 0.0013875C4.605 0.00136875 4.60438 0.00135 4.60374 0.00133125C4.59604 0.00114375 4.58835 0.0009 4.58064 0.00075C4.55379 0.0002625 4.52693 0 4.5 0C4.47731 0 4.45468 0.0003 4.43207 0.00061875C4.42836 0.000675 4.42463 0.00065625 4.42089 0.00073125C4.41311 0.0008625 4.40537 0.00110625 4.39761 0.001275C4.37876 0.0016875 4.35992 0.00219375 4.34113 0.00283125C4.33275 0.00313125 4.32439 0.0034875 4.31603 0.003825C4.2966 0.0046125 4.27721 0.005475 4.25786 0.006525C4.25119 0.00688125 4.24449 0.00725625 4.23782 0.00763125C4.21624 0.0088875 4.19468 0.010275 4.17317 0.0118313C4.16955 0.0120938 4.16593 0.0123188 4.16233 0.0125813C3.90919 0.0314813 3.66199 0.0715125 3.42236 0.130725Z" fill="#D55A00"/>
<path d="M5.28279 4.15606L5.44445 4.39448C5.525 4.51328 5.4218 4.66831 5.2805 4.64299C4.75202 4.54834 4.19265 4.18606 3.33693 4.12806L3.33697 4.1282C3.17293 4.11366 3.0126 4.09598 2.85611 4.07564C2.76493 4.41361 2.71134 4.76701 2.70172 5.13147C2.70211 5.13153 2.70251 5.13158 2.7029 5.13164C2.7029 5.13179 2.7029 5.13194 2.70288 5.13209C3.26036 5.20641 3.86621 5.24721 4.49998 5.24721C6.4766 5.24721 8.18259 4.85076 8.9916 4.27621C8.99533 4.35061 9.00002 4.42474 9.00002 4.50006C9.00002 4.46545 8.99949 4.43095 8.9987 4.39653C8.99846 4.38571 8.99812 4.37491 8.99778 4.36411C8.99705 4.33977 8.99613 4.31549 8.99501 4.29126C8.99447 4.27958 8.994 4.26788 8.99336 4.25624C8.99169 4.2251 8.98976 4.19401 8.98745 4.16301C8.98637 4.14858 8.98507 4.13421 8.98385 4.11983C8.98228 4.10114 8.98068 4.08245 8.97888 4.06383C8.9771 4.04549 8.97521 4.02717 8.97322 4.00889C8.97185 3.99635 8.97039 3.98384 8.96893 3.97133C8.93722 3.70197 8.88183 3.43985 8.80485 3.18713C8.20035 3.68913 6.88046 4.06289 5.28279 4.15606Z" fill="#FF9300"/>
<path d="M0.0113625 4.1959C0.0129938 4.17155 0.0148875 4.14729 0.0169125 4.12304C0.025125 4.0246 0.0354 3.92677 0.0498563 3.83024C0.0499875 3.82929 0.0500813 3.82831 0.0502313 3.82737C0.0656438 3.72502 0.0851813 3.62405 0.107363 3.52405C0.110813 3.50844 0.114525 3.49291 0.118144 3.47737C0.140981 3.3794 0.166163 3.28229 0.195225 3.18687C0.686888 3.59529 1.65212 3.91855 2.85518 4.07521C2.95791 3.6944 3.10937 3.33367 3.30248 2.99997C3.29844 2.9996 3.29449 2.99919 3.29046 2.99881C3.25352 2.9954 3.21677 2.99182 3.18021 2.98809C3.16433 2.98647 3.14854 2.98479 3.13273 2.98312C3.10568 2.98025 3.07871 2.97732 3.05186 2.97429C3.03604 2.9725 3.02021 2.97074 3.00448 2.96889C2.97141 2.96502 2.93854 2.96103 2.9058 2.9569C2.89419 2.95544 2.88257 2.954 2.871 2.95252C2.83534 2.94792 2.79992 2.94318 2.76469 2.9383C2.74973 2.93622 2.73486 2.93409 2.71997 2.93197C2.69374 2.92822 2.66764 2.92441 2.64165 2.92049C2.62678 2.91826 2.61189 2.91603 2.59712 2.91374C2.56483 2.90875 2.53275 2.90364 2.50086 2.89839C2.49071 2.89672 2.48055 2.89507 2.47044 2.89338C2.43604 2.88762 2.40191 2.88172 2.36798 2.87568C2.35404 2.8732 2.34023 2.87065 2.32637 2.86814C2.301 2.86351 2.27576 2.85882 2.25068 2.85404C2.23701 2.85144 2.2233 2.84885 2.20971 2.84619C2.17794 2.83998 2.14641 2.83368 2.11509 2.82723C2.10724 2.82562 2.09936 2.824 2.09154 2.82237C2.05804 2.81538 2.02487 2.80822 1.99193 2.80096C1.97936 2.79819 1.96691 2.79535 1.95443 2.79254C1.92984 2.78701 1.90545 2.78139 1.88119 2.77569C1.86881 2.77278 1.8564 2.76987 1.8441 2.76693C1.81307 2.75949 1.78228 2.75193 1.75181 2.74424C1.74615 2.74282 1.74047 2.74141 1.73483 2.73997C1.70259 2.73175 1.67074 2.72337 1.63914 2.71488C1.62782 2.71182 1.61661 2.70873 1.60536 2.70565C1.58186 2.69922 1.55856 2.69272 1.53544 2.68612C1.52443 2.68299 1.51339 2.67985 1.50248 2.67669C1.47238 2.66795 1.44253 2.6591 1.41309 2.65012C1.40957 2.64903 1.40601 2.64798 1.40248 2.64689C1.37175 2.63746 1.34149 2.62784 1.31149 2.61813C1.30144 2.61487 1.29152 2.61159 1.28156 2.6083C1.2594 2.60099 1.23744 2.59362 1.21569 2.58616C1.20596 2.58282 1.19619 2.5795 1.18654 2.57613C1.15794 2.56615 1.12963 2.55609 1.10181 2.54585C1.09984 2.54512 1.09783 2.5444 1.09586 2.54369C1.06719 2.53312 1.03907 2.52237 1.01124 2.51154C1.00236 2.50809 0.993619 2.50458 0.984806 2.50109C0.964369 2.49299 0.944156 2.48482 0.924188 2.47659C0.915619 2.47304 0.906994 2.46952 0.898519 2.46595C0.872063 2.45485 0.845925 2.44366 0.820331 2.43232C0.819188 2.43181 0.818025 2.4313 0.8169 2.4308C0.790931 2.41927 0.765563 2.40757 0.740494 2.39577C0.732713 2.39212 0.725063 2.38842 0.717356 2.38473C0.698925 2.37592 0.680756 2.36703 0.662831 2.35807C0.65535 2.35434 0.647831 2.3506 0.640463 2.34685C0.616725 2.33478 0.593325 2.32263 0.570525 2.31033C0.570094 2.3101 0.569644 2.30988 0.569213 2.30965C0.664613 2.1388 0.770269 1.97446 0.886388 1.81827C0.886744 1.81842 0.8871 1.81857 0.887456 1.8187C0.905344 1.79474 0.923194 1.77074 0.941513 1.74712C0.948488 1.73814 0.955575 1.72923 0.962588 1.7203C1.00999 1.66008 1.05885 1.60107 1.10919 1.54336C1.11568 1.53594 1.12204 1.5284 1.12856 1.52101C1.29938 1.32777 1.48665 1.1495 1.68797 0.987986C1.69959 0.978667 1.71139 0.969592 1.72311 0.960386C1.77855 0.916811 1.83506 0.874567 1.89255 0.83358C1.90601 0.82398 1.9194 0.814286 1.93298 0.804836C1.99633 0.760717 2.06079 0.718098 2.12648 0.677205C2.13236 0.67353 2.1381 0.669611 2.14401 0.665973C2.21846 0.620092 2.29434 0.576236 2.37159 0.534648C2.37482 0.532905 2.37819 0.531348 2.38142 0.529623C2.45113 0.49233 2.52212 0.457117 2.59397 0.423442C2.61345 0.414329 2.63318 0.405705 2.65279 0.396855C2.71016 0.370961 2.76816 0.346248 2.82677 0.322717C2.84963 0.313548 2.87248 0.304417 2.89553 0.295623C2.93552 0.280342 2.97591 0.265923 3.01646 0.251823C3.03549 0.245148 3.05458 0.238567 3.07373 0.232154C3.07558 0.231536 3.07744 0.230861 3.07929 0.230242C3.09829 0.223923 3.11704 0.21708 3.13614 0.211005C3.21746 0.185167 3.29963 0.161204 3.38288 0.139923C3.38961 0.138198 3.39651 0.136923 3.40324 0.135236C3.40958 0.133642 3.41601 0.132292 3.42238 0.130717C3.66201 0.0715045 3.90921 0.0314732 4.16233 0.0125732C4.158 0.012892 4.15365 0.0131732 4.14932 0.0135107C4.11654 0.016042 4.0839 0.0189857 4.05135 0.0222107C4.04329 0.0229982 4.03524 0.023842 4.0272 0.0246857C3.99474 0.0280795 3.96236 0.031717 3.93011 0.0357857C3.9255 0.036367 3.92093 0.0370232 3.91633 0.0376232C3.88751 0.0413545 3.85879 0.0454045 3.83014 0.0496795C3.82178 0.0509357 3.81339 0.0521545 3.80505 0.0534482C3.77449 0.058192 3.74404 0.0632357 3.71368 0.0685795C3.70459 0.0701732 3.69553 0.0718795 3.68646 0.0735295C3.66069 0.0782357 3.63499 0.0831482 3.60938 0.0882857C3.60221 0.0897295 3.59501 0.0910795 3.58787 0.092542C3.55877 0.098542 3.5298 0.104917 3.50091 0.111479C3.48984 0.113992 3.4788 0.116523 3.46778 0.119111C3.43988 0.125654 3.41207 0.132386 3.38438 0.139454C3.37363 0.142192 3.36294 0.145098 3.35224 0.147911C3.33216 0.153198 3.31215 0.158617 3.29218 0.164167C3.27999 0.167561 3.26777 0.170898 3.25562 0.174404C3.23014 0.181717 3.20477 0.189292 3.17948 0.197054C3.16549 0.201348 3.15154 0.205755 3.13763 0.210161C3.12116 0.215392 3.10474 0.220736 3.08835 0.226154C3.06621 0.233467 3.04416 0.240948 3.02216 0.248598C3.00806 0.253492 2.99398 0.258423 2.97996 0.263467C2.96379 0.269261 2.94767 0.275111 2.9316 0.281092C2.91936 0.285648 2.90717 0.290354 2.89496 0.295004C2.86785 0.305355 2.84087 0.315948 2.81402 0.326805C2.80528 0.330348 2.79654 0.333911 2.78784 0.337511C2.75166 0.352417 2.71569 0.367754 2.67998 0.383561C2.67866 0.384142 2.67733 0.384705 2.676 0.385305C2.65596 0.394211 2.63599 0.403267 2.61609 0.412455C2.61446 0.413204 2.61283 0.413992 2.6112 0.414742C2.57177 0.433004 2.53266 0.451829 2.49386 0.47118C2.49341 0.471404 2.49296 0.47163 2.49251 0.471855C1.16484 1.13484 0.211031 2.43459 0.0311063 3.97109C0.029625 3.98367 0.0281625 3.99625 0.0267938 4.00887C0.024825 4.02712 0.0228938 4.04536 0.0211313 4.06368C0.0193313 4.08239 0.0177188 4.10116 0.0161438 4.11993C0.0149438 4.13424 0.0136313 4.1485 0.0125625 4.16283C0.0102563 4.19384 0.008325 4.22497 0.00665625 4.25615C0.0060375 4.26781 0.00555 4.27951 0.00500625 4.29119C0.00388125 4.31542 0.0029625 4.3397 0.00225 4.36404C0.00193125 4.37484 0.001575 4.38562 0.00133125 4.39645C0.000525 4.43088 0 4.46538 0 4.50001C0 4.39769 0.0046125 4.2965 0.0113625 4.1959Z" fill="#FF9300"/>
<path d="M4.50001 5.24711C3.86624 5.24711 3.26037 5.20629 2.70292 5.13199C2.70188 5.17129 2.70001 5.2104 2.70001 5.24996C2.70001 5.50239 2.72288 5.74925 2.76286 5.99036C1.60904 5.83016 0.682997 5.51608 0.201965 5.12122C0.682603 5.51627 1.60728 5.83112 2.76093 5.99134C3.29825 6.06596 3.8851 6.10712 4.49999 6.10712C6.6256 6.10712 8.41756 5.61626 8.97787 4.94546C8.99228 4.79887 8.99999 4.65034 8.99999 4.49998C8.99999 4.42466 8.9953 4.35052 8.99163 4.27612C8.18262 4.85064 6.47663 5.24711 4.50001 5.24711Z" fill="#FF7400"/>
<path d="M0.022125 4.9455C0.0220125 4.94432 0.0219563 4.94314 0.0218438 4.94196C0.0148125 4.86992 0.0093375 4.79743 0.0056625 4.72444C0.002025 4.65008 0 4.57528 0 4.5C0 4.65036 0.00770625 4.79891 0.022125 4.9455C0.022125 4.94548 0.022125 4.94548 0.022125 4.9455Z" fill="#FF7400"/>
<path d="M0.0571058 4.98521C0.0450308 4.97205 0.0332745 4.95885 0.0221558 4.94556C0.0332745 4.95885 0.0450495 4.97207 0.0571058 4.98521Z" fill="#FF7400"/>
<path d="M0.148135 5.07494C0.133472 5.06176 0.11926 5.04851 0.105591 5.03516C0.11926 5.04851 0.133472 5.06176 0.148135 5.07494Z" fill="#FF7400"/>
<path d="M0.0998008 5.02949C0.0884758 5.0183 0.0775258 5.00703 0.0668945 4.99573C0.077507 5.00703 0.0884758 5.0183 0.0998008 5.02949Z" fill="#FF7400"/>
<path d="M0.196916 5.11706C0.18246 5.1051 0.168435 5.09304 0.154785 5.08093C0.168416 5.09304 0.18246 5.10508 0.196916 5.11706Z" fill="#FF7400"/>
<path d="M8.17574 7.09432C8.46287 6.68825 8.68418 6.23277 8.82475 5.7428C8.39192 6.11345 7.5703 6.4157 6.53374 6.5893L5.94645 6.67107C5.49109 6.7223 5.0049 6.74999 4.49999 6.74999C3.94696 6.74999 3.41642 6.71677 2.92426 6.65581C2.99781 6.87952 3.09001 7.09456 3.19617 7.30124C3.11582 7.26215 3.03647 7.22322 2.95823 7.18589C3.03552 7.22277 3.11391 7.26123 3.19324 7.29984C3.60766 7.50151 4.04856 7.70744 4.49999 7.71428C5.99408 7.73692 7.32284 7.4714 8.17574 7.09432Z" fill="#FFEDB9"/>
<path d="M2.69598 7.06722C2.68925 7.06435 2.68254 7.06153 2.67584 7.05872C2.68254 7.06153 2.68925 7.06435 2.69598 7.06722Z" fill="#FFEDB9"/>
<path d="M2.66029 7.05239C2.65381 7.0497 2.64734 7.04706 2.64087 7.04443C2.64734 7.04706 2.65381 7.04968 2.66029 7.05239Z" fill="#FFEDB9"/>
<path d="M2.58981 7.02458C2.58365 7.0222 2.57754 7.0199 2.57141 7.01758C2.57754 7.0199 2.58365 7.0222 2.58981 7.02458Z" fill="#FFEDB9"/>
<path d="M2.73183 7.0825C2.7248 7.07942 2.71777 7.07639 2.71075 7.07336C2.71777 7.07637 2.72478 7.07942 2.73183 7.0825Z" fill="#FFEDB9"/>
<path d="M2.62498 7.03824C2.61866 7.03571 2.61236 7.03323 2.60608 7.03076C2.61238 7.03325 2.61866 7.03573 2.62498 7.03824Z" fill="#FFEDB9"/>
<path d="M2.768 7.09814C2.76065 7.09489 2.7533 7.09169 2.74597 7.0885C2.75332 7.09169 2.76065 7.09489 2.768 7.09814Z" fill="#FFEDB9"/>
<path d="M2.84116 7.13104C2.83306 7.12733 2.82498 7.12365 2.81689 7.12C2.82498 7.12365 2.83306 7.12733 2.84116 7.13104Z" fill="#FFEDB9"/>
<path d="M2.80434 7.1143C2.79665 7.11083 2.78898 7.10742 2.78131 7.104C2.78898 7.10742 2.79665 7.11083 2.80434 7.1143Z" fill="#FFEDB9"/>
<path d="M2.35012 6.94796C2.34444 6.94653 2.33879 6.94522 2.33313 6.94385C2.33879 6.94522 2.34444 6.94653 2.35012 6.94796Z" fill="#FFEDB9"/>
<path d="M2.31672 6.94011C2.31098 6.9388 2.30528 6.93762 2.29956 6.9364C2.30528 6.93762 2.31098 6.9388 2.31672 6.94011Z" fill="#FFEDB9"/>
<path d="M2.38363 6.95672C2.37802 6.95518 2.37245 6.95375 2.36688 6.95227C2.37247 6.95375 2.37804 6.9552 2.38363 6.95672Z" fill="#FFEDB9"/>
<path d="M2.87861 7.14837C2.86976 7.14425 2.86092 7.14018 2.85211 7.13611C2.86092 7.14018 2.86976 7.14425 2.87861 7.14837Z" fill="#FFEDB9"/>
<path d="M2.41749 6.96615C2.41185 6.96448 2.40624 6.9629 2.40063 6.9613C2.40624 6.9629 2.41187 6.96448 2.41749 6.96615Z" fill="#FFEDB9"/>
<path d="M2.52017 6.99925C2.51431 6.99718 2.50847 6.99518 2.50262 6.99316C2.50847 6.99518 2.51432 6.99718 2.52017 6.99925Z" fill="#FFEDB9"/>
<path d="M2.55491 7.01167C2.54891 7.00945 2.54291 7.0073 2.53693 7.00513C2.54291 7.0073 2.54891 7.00945 2.55491 7.01167Z" fill="#FFEDB9"/>
<path d="M2.45148 6.9765C2.44572 6.97467 2.44 6.97294 2.43427 6.97119C2.44 6.97294 2.44574 6.97467 2.45148 6.9765Z" fill="#FFEDB9"/>
<path d="M2.48572 6.98752C2.47991 6.98556 2.47412 6.9837 2.46832 6.98181C2.47412 6.9837 2.47989 6.98556 2.48572 6.98752Z" fill="#FFEDB9"/>
<path d="M1.98328 6.95633C2.0039 6.92721 2.03748 6.90967 2.08931 6.91069C2.0999 6.91089 2.11053 6.91129 2.12118 6.91187C2.11051 6.9113 2.0999 6.91089 2.08931 6.91069C2.0375 6.90967 2.00392 6.92721 1.98328 6.95633Z" fill="#FFEDB9"/>
<path d="M1.987 7.24658C1.99208 7.26421 1.9975 7.28155 2.00309 7.29835C1.9975 7.28155 1.99206 7.26421 1.987 7.24658Z" fill="#FFEDB9"/>
<path d="M0.270508 5.81885C0.272154 5.82008 0.273742 5.82133 0.275388 5.82257C0.273742 5.82133 0.272154 5.82008 0.270508 5.81885Z" fill="#FFEDB9"/>
<path d="M0.325195 5.85803C0.327566 5.8597 0.329975 5.86135 0.332365 5.863C0.329995 5.86135 0.327566 5.8597 0.325195 5.85803Z" fill="#FFEDB9"/>
<path d="M2.06909 7.46582C2.07189 7.47191 2.07391 7.47621 2.07494 7.47838C2.07391 7.47621 2.07189 7.47191 2.06909 7.46582Z" fill="#FFEDB9"/>
<path d="M0.218445 5.77869C0.222045 5.7816 0.225682 5.78451 0.22932 5.78742C0.225682 5.78451 0.222045 5.7816 0.218445 5.77869Z" fill="#FFEDB9"/>
<path d="M0.175354 5.74316C0.315998 6.23323 0.537398 6.68878 0.824667 7.09489C1.04903 7.19402 1.3062 7.28385 1.59059 7.36247C1.3062 7.28385 1.04903 7.194 0.824667 7.09487C0.537417 6.68878 0.315998 6.23323 0.175354 5.74316Z" fill="#FFEDB9"/>
<path d="M0.382507 5.89636C0.383806 5.89722 0.385048 5.89805 0.386318 5.89891C0.385048 5.89805 0.383778 5.89722 0.382507 5.89636Z" fill="#FFEDB9"/>
<path d="M2.28361 6.93302C2.27778 6.93184 2.27199 6.93079 2.26617 6.92969C2.27199 6.93077 2.27778 6.93184 2.28361 6.93302Z" fill="#FFEDB9"/>
<path d="M1.9743 7.19849C1.97813 7.21459 1.98235 7.2307 1.98692 7.24658C1.98235 7.2307 1.97813 7.21461 1.9743 7.19849Z" fill="#FFEDB9"/>
<path d="M2.91614 7.16588C2.90651 7.16133 2.89687 7.15683 2.88727 7.15234C2.89689 7.15683 2.90651 7.16133 2.91614 7.16588Z" fill="#FFEDB9"/>
<path d="M2.25065 6.92684C2.24472 6.9258 2.23882 6.9249 2.23291 6.92395C2.23882 6.9249 2.2447 6.9258 2.25065 6.92684Z" fill="#FFEDB9"/>
<path d="M2.95428 7.18396C2.9438 7.17897 2.93336 7.174 2.92291 7.16907C2.93336 7.174 2.9438 7.17895 2.95428 7.18396Z" fill="#FFEDB9"/>
<path d="M2.21797 6.92162C2.21188 6.92073 2.20584 6.91999 2.19977 6.91919C2.20582 6.91997 2.21188 6.92071 2.21797 6.92162Z" fill="#FFEDB9"/>
<path d="M2.18548 6.91746C2.17883 6.91668 2.17221 6.91607 2.16559 6.91541C2.17223 6.91605 2.17883 6.91666 2.18548 6.91746Z" fill="#FFEDB9"/>
<path d="M1.97538 6.96924C1.97028 6.97893 1.96618 6.98947 1.9632 7.00096C1.96616 6.98949 1.97028 6.97893 1.97538 6.96924Z" fill="#FFEDB9"/>
<path d="M2.15328 6.91411C2.14554 6.91345 2.13783 6.91295 2.13013 6.91248C2.13781 6.91295 2.14552 6.91345 2.15328 6.91411Z" fill="#FFEDB9"/>
<path d="M4.71491 8.99476C4.72933 8.99409 4.74371 8.99326 4.75809 8.99245C4.77918 8.99125 4.80026 8.98994 4.82128 8.98844C4.83669 8.98735 4.85208 8.98623 4.86746 8.98497C4.88722 8.98338 4.90691 8.98158 4.92659 8.97972C4.94268 8.97821 4.95877 8.97676 4.9748 8.97507C4.99321 8.97314 5.01153 8.97093 5.02989 8.96877C5.1023 8.96026 5.17419 8.95008 5.24549 8.93815C5.25489 8.93658 5.26432 8.93512 5.27371 8.93349C5.29805 8.92927 5.32228 8.92475 5.34648 8.92014C5.35454 8.9186 5.36263 8.91708 5.37069 8.9155C5.39647 8.91044 5.42219 8.90517 5.44783 8.89966C5.4527 8.89861 5.45758 8.89754 5.46243 8.89647C6.13584 8.74938 6.75277 8.45129 7.27651 8.03992C6.50075 8.2388 5.54096 8.35711 4.50003 8.35711C4.30931 8.35711 4.12134 8.3531 3.93671 8.34539C4.16647 8.58747 4.42179 8.80509 4.70013 8.99142C4.63342 8.99439 4.56744 8.99999 4.50001 8.99999C4.53605 8.99999 4.57196 8.99947 4.60779 8.99862C4.61986 8.99834 4.63188 8.99784 4.64394 8.99746C4.66764 8.99671 4.6913 8.99589 4.71491 8.99476Z" fill="#FF7400"/>
<path d="M4.14744 8.98492C4.12772 8.98339 4.1079 8.9822 4.08825 8.98042C3.97592 8.9702 3.86479 8.95582 3.755 8.93747C3.73682 8.93443 3.71878 8.93102 3.70069 8.92775C3.46685 8.8857 3.23915 8.82619 3.0194 8.74946C3.01241 8.74704 3.00532 8.74481 2.99835 8.74234C2.88729 8.70294 2.77828 8.65922 2.6714 8.61154C2.66462 8.60852 2.65787 8.6054 2.6511 8.60235C2.44485 8.50909 2.24679 8.40082 2.05841 8.27893C2.50367 8.56742 3.00283 8.77967 3.53773 8.8965C3.54249 8.89753 3.54724 8.89858 3.55202 8.89961C3.57774 8.90514 3.60354 8.91043 3.62942 8.91551C3.63737 8.91707 3.64532 8.91857 3.65329 8.92009C3.67757 8.92472 3.7019 8.92924 3.72632 8.93349C3.7356 8.9351 3.74494 8.93657 3.75424 8.93812C3.82573 8.95009 3.89779 8.96027 3.97037 8.9688C3.98859 8.97094 4.0068 8.97313 4.02508 8.97506C4.04119 8.97675 4.05735 8.97821 4.07351 8.97973C4.09312 8.98159 4.11275 8.98337 4.13244 8.98496C4.14784 8.9862 4.16327 8.98734 4.17872 8.98843C4.19974 8.98991 4.22079 8.99124 4.24189 8.99244C4.25627 8.99325 4.27065 8.99407 4.28507 8.99475C4.30867 8.99585 4.33234 8.9967 4.35604 8.99745C4.36809 8.99782 4.38011 8.99833 4.39219 8.99861C4.42802 8.99945 4.46392 8.99998 4.49998 8.99998C4.3812 8.99998 4.26388 8.99396 4.14744 8.98492Z" fill="#FF7400"/>
<path d="M1.85056 8.07143C1.84486 8.07004 1.8392 8.06865 1.8335 8.06726C1.8392 8.06865 1.84486 8.07004 1.85056 8.07143Z" fill="#FF7400"/>
<path d="M1.96737 8.09835C1.96702 8.0983 1.96672 8.0982 1.96637 8.09814C1.96672 8.0982 1.96707 8.0983 1.96737 8.09835Z" fill="#FF7400"/>
<path d="M1.72351 8.03992L1.72404 8.04005L1.72351 8.03992Z" fill="#FF7400"/>
<path d="M1.84247 8.13C1.91019 8.17969 1.97934 8.2275 2.04986 8.27342C1.97931 8.22754 1.91019 8.17965 1.84247 8.13Z" fill="#FF7400"/>
<path d="M1.72363 8.04004C1.75545 8.06503 1.78772 8.08945 1.82021 8.11358C1.78772 8.08945 1.75545 8.06501 1.72363 8.04004Z" fill="#FF7400"/>
<path d="M2.70173 5.13142C2.71134 4.76695 2.76493 4.41357 2.85611 4.07558C2.85613 4.07551 2.85615 4.07543 2.85617 4.07536C2.85583 4.07532 2.85549 4.07526 2.85518 4.07523C1.65212 3.91857 0.686888 3.59528 0.195225 3.18689C0.166163 3.28231 0.140981 3.3794 0.118144 3.47738C0.114525 3.49295 0.110813 3.50845 0.107363 3.52407C0.0851813 3.62406 0.0656438 3.72503 0.0502313 3.82739C0.0501 3.82835 0.0500063 3.82932 0.0498562 3.83026C0.0354 3.92678 0.025125 4.02464 0.0169125 4.12306C0.0149063 4.1473 0.0129938 4.17156 0.0113625 4.19592C0.0046125 4.29651 0 4.39771 0 4.50003C0 4.42471 0.0046875 4.35057 0.00838125 4.27619C0.557738 4.6663 1.5213 4.97388 2.70173 5.13142Z" fill="#FF7400"/>
<path d="M0.0218625 4.94192C0.021975 4.9431 0.0220125 4.94428 0.0221438 4.94546C0.0221625 4.94548 0.0221813 4.9455 0.0222 4.94554C0.0333188 4.95883 0.045075 4.97203 0.05715 4.98519C0.0603563 4.98868 0.0636187 4.99215 0.0668813 4.99564C0.0775125 5.00694 0.0884625 5.01821 0.0997875 5.0294C0.101738 5.03134 0.103613 5.03329 0.1056 5.03524C0.119269 5.04859 0.133481 5.06184 0.148144 5.07502C0.150319 5.07699 0.152588 5.07894 0.1548 5.08089C0.16845 5.093 0.182456 5.10506 0.196931 5.11702C0.198619 5.11843 0.200269 5.11984 0.201994 5.12122C0.683025 5.5161 1.60907 5.83016 2.76289 5.99036C2.72288 5.74925 2.7 5.50239 2.7 5.24996C2.7 5.2104 2.70187 5.17129 2.70291 5.13199C2.70291 5.13184 2.70291 5.13168 2.70293 5.13153C2.70253 5.13148 2.70214 5.13142 2.70174 5.13137C1.52134 4.97383 0.557756 4.66625 0.0084 4.27612C0.0046875 4.3505 0 4.42464 0 4.49996C0 4.57524 0.002025 4.65004 0.00568125 4.7244C0.0093375 4.79737 0.0148313 4.86986 0.0218625 4.94192Z" fill="#D55A00"/>
<path d="M3.30289 3.00006C3.42784 2.78413 3.5706 2.58 3.7285 2.38873C3.72853 2.38868 3.72857 2.38862 3.72863 2.38858C3.72844 2.38857 3.72823 2.38857 3.72805 2.38855C3.12238 2.35369 2.55626 2.27862 2.0536 2.17153C2.0533 2.17148 2.05301 2.1714 2.05271 2.17135C2.02622 2.1657 1.99995 2.15993 1.97381 2.15412C1.96802 2.15282 1.96225 2.15153 1.95647 2.15023C1.93211 2.14476 1.90789 2.13921 1.88387 2.13357C1.8774 2.13205 1.87097 2.13051 1.86452 2.12897C1.79126 2.11163 1.71958 2.09355 1.64942 2.07482C1.64042 2.07242 1.63133 2.07006 1.62238 2.06762C1.60472 2.06284 1.58728 2.05797 1.56983 2.05309C1.55695 2.04951 1.5441 2.04591 1.53133 2.04227C1.51532 2.0377 1.49942 2.03308 1.48358 2.02843C1.46931 2.02425 1.45513 2.02003 1.441 2.01578C1.42648 2.01143 1.41197 2.00706 1.39761 2.00263C1.3809 1.9975 1.3644 1.99227 1.34792 1.98703C1.33626 1.98334 1.32448 1.9797 1.31295 1.97595C1.2859 1.9672 1.25916 1.95835 1.2327 1.94938C1.22338 1.94623 1.21427 1.94299 1.20503 1.93982C1.18658 1.93347 1.16818 1.92707 1.15005 1.9206C1.13965 1.91689 1.12937 1.91314 1.11906 1.90939C1.10205 1.9032 1.08516 1.89698 1.06843 1.89072C1.05848 1.88698 1.04856 1.88325 1.03871 1.87948C1.0209 1.87268 1.00331 1.8658 0.985839 1.85888C0.977701 1.85565 0.969489 1.85247 0.961426 1.84922C0.936076 1.83904 0.911008 1.82877 0.886389 1.81836C0.886183 1.81862 0.886014 1.8189 0.885826 1.81917C0.831508 1.89225 0.779926 1.96744 0.730183 2.04392C0.723001 2.05491 0.716008 2.06603 0.70892 2.07709C0.660358 2.15322 0.613483 2.23054 0.569326 2.30957C0.569326 2.30957 0.569251 2.30968 0.569214 2.30974C0.569645 2.30997 0.570095 2.31019 0.570526 2.31043C0.593326 2.32273 0.616726 2.33488 0.640464 2.34696C0.647851 2.35071 0.65537 2.35444 0.662833 2.35817C0.680758 2.36712 0.698926 2.376 0.717358 2.38483C0.725064 2.38853 0.732714 2.39222 0.740495 2.39588C0.765564 2.40767 0.790933 2.41935 0.816901 2.4309C0.818045 2.43141 0.819208 2.4319 0.820333 2.43242C0.845926 2.44377 0.872064 2.45496 0.89852 2.46606C0.907014 2.46962 0.91562 2.47315 0.924189 2.47669C0.944158 2.48492 0.96437 2.4931 0.984808 2.5012C0.993601 2.50468 1.00236 2.50817 1.01125 2.51164C1.03907 2.52248 1.0672 2.53322 1.09586 2.5438C1.09783 2.54453 1.09984 2.54524 1.10181 2.54595C1.12965 2.55619 1.15795 2.56626 1.18654 2.57623C1.1962 2.57961 1.20596 2.58293 1.2157 2.58627C1.23745 2.59371 1.2594 2.6011 1.28156 2.60841C1.29152 2.61169 1.30144 2.61499 1.31149 2.61823C1.34149 2.62795 1.37175 2.63757 1.40248 2.647C1.40601 2.64808 1.40957 2.64913 1.4131 2.65022C1.44255 2.6592 1.47238 2.66805 1.50248 2.67679C1.51341 2.67996 1.52443 2.68309 1.53544 2.68622C1.55856 2.6928 1.58186 2.69931 1.60536 2.70576C1.61661 2.70883 1.62782 2.71193 1.63915 2.71498C1.67074 2.72348 1.7026 2.73186 1.73483 2.74007C1.74047 2.74152 1.74615 2.74292 1.75181 2.74435C1.78228 2.75203 1.81307 2.75959 1.8441 2.76703C1.8564 2.76998 1.8688 2.77288 1.88119 2.77579C1.90543 2.78149 1.92985 2.7871 1.95443 2.79265C1.96691 2.79546 1.97936 2.79829 1.99193 2.80107C2.02487 2.80834 2.05806 2.8155 2.09155 2.82248C2.09936 2.82411 2.10726 2.82572 2.1151 2.82733C2.14639 2.83378 2.17795 2.8401 2.20971 2.84629C2.2233 2.84895 2.23701 2.85154 2.25068 2.85415C2.27576 2.85893 2.301 2.86363 2.32637 2.86825C2.34023 2.87078 2.35405 2.87331 2.36798 2.87578C2.4019 2.88182 2.43604 2.88773 2.47045 2.89348C2.48055 2.89517 2.49071 2.89682 2.50086 2.89849C2.53275 2.90372 2.56483 2.90884 2.59712 2.91385C2.61191 2.91613 2.6268 2.91835 2.64165 2.9206C2.66764 2.9245 2.69374 2.92832 2.71997 2.93207C2.73486 2.93419 2.74973 2.93635 2.76469 2.93841C2.79992 2.94328 2.83534 2.94803 2.871 2.95262C2.88257 2.9541 2.8942 2.95555 2.9058 2.95701C2.93852 2.96112 2.97141 2.96511 3.00448 2.96899C3.02021 2.97083 3.03606 2.97261 3.05186 2.97439C3.07871 2.97743 3.10568 2.98035 3.13273 2.98322C3.14854 2.98489 3.16433 2.98658 3.18021 2.98819C3.21677 2.9919 3.25352 2.99548 3.29046 2.99892C3.29462 2.99925 3.29873 2.99967 3.30289 3.00006Z" fill="#FFD042"/>
<path d="M4.70009 8.9914C4.42175 8.80505 4.16643 8.58745 3.93667 8.34537C3.93624 8.3449 3.93577 8.34447 3.93534 8.344C3.93455 8.34397 3.93378 8.34393 3.93301 8.34389C3.21461 8.31363 2.54624 8.22774 1.96679 8.09817C1.96666 8.09815 1.96655 8.09812 1.96642 8.0981C1.92738 8.08936 1.88881 8.0804 1.85058 8.07129C1.84488 8.06992 1.83922 8.06855 1.83352 8.06718C1.7965 8.05825 1.75979 8.04922 1.72359 8.03994C1.72357 8.03994 1.72353 8.03992 1.72351 8.03992C1.72355 8.03994 1.72359 8.03997 1.72362 8.03999C1.75544 8.06499 1.78771 8.0894 1.8202 8.11353C1.82761 8.11902 1.83504 8.1245 1.84248 8.12995C1.91022 8.1796 1.97934 8.22751 2.04987 8.27337C2.05274 8.27523 2.05559 8.27709 2.05846 8.27894C2.24686 8.40084 2.4449 8.5091 2.65115 8.60236C2.65792 8.60542 2.66465 8.60853 2.67145 8.61155C2.77831 8.65923 2.88732 8.70295 2.9984 8.74235C3.00537 8.74482 3.01246 8.74703 3.01946 8.74947C3.23922 8.8262 3.46692 8.88571 3.70074 8.92777C3.71883 8.93101 3.73687 8.93444 3.75506 8.93748C3.86484 8.95583 3.97597 8.9702 4.0883 8.98043C4.10795 8.98222 4.12775 8.9834 4.14749 8.98493C4.26389 8.99393 4.38121 8.99995 4.49999 8.99995C4.56742 8.99995 4.6334 8.99435 4.70009 8.9914Z" fill="#D55A00"/>
<path d="M3.15001 7.80004C3.15938 7.58441 3.03126 7.45629 2.85001 7.35004C2.62111 7.21586 2.22188 7.12504 2.25001 7.35004C2.27813 7.57504 3.14063 8.01566 3.15001 7.80004Z" fill="#FFD042"/>
<path d="M4.725 4.20002C4.84926 4.20002 4.95 4.13287 4.95 4.05002C4.95 3.96718 4.84926 3.90002 4.725 3.90002C4.60074 3.90002 4.5 3.96718 4.5 4.05002C4.5 4.13287 4.60074 4.20002 4.725 4.20002Z" fill="#FF9300"/>
</svg>
