<svg width="24" height="20" viewBox="0 0 24 20" fill="none" xmlns="http://www.w3.org/2000/svg">
<path d="M5.19999 9.90672C4.48888 9.90672 3.84888 9.80005 3.27999 9.58672C2.7111 9.35561 2.22221 9.0445 1.81333 8.65339C1.40444 8.26227 1.08444 7.80005 0.853325 7.26672C0.639992 6.71561 0.533325 6.11116 0.533325 5.45338V4.54672C0.533325 3.88894 0.639992 3.29338 0.853325 2.76005C1.08444 2.20894 1.40444 1.73783 1.81333 1.34672C2.22221 0.955607 2.7111 0.653385 3.27999 0.440051C3.84888 0.20894 4.48888 0.0933838 5.19999 0.0933838C5.9111 0.0933838 6.5511 0.20894 7.11999 0.440051C7.68888 0.653385 8.17777 0.955607 8.58666 1.34672C8.99555 1.73783 9.30666 2.20894 9.51999 2.76005C9.7511 3.29338 9.86666 3.88894 9.86666 4.54672V5.45338C9.86666 6.11116 9.7511 6.71561 9.51999 7.26672C9.30666 7.80005 8.99555 8.26227 8.58666 8.65339C8.17777 9.0445 7.68888 9.35561 7.11999 9.58672C6.5511 9.80005 5.9111 9.90672 5.19999 9.90672ZM5.19999 7.61338C5.78666 7.61338 6.25777 7.42672 6.61333 7.05338C6.98666 6.66227 7.17333 6.12894 7.17333 5.45338V4.54672C7.17333 3.87116 6.98666 3.34672 6.61333 2.97338C6.25777 2.58227 5.78666 2.38672 5.19999 2.38672C4.59555 2.38672 4.10666 2.58227 3.73333 2.97338C3.37777 3.34672 3.19999 3.87116 3.19999 4.54672V5.45338C3.19999 6.12894 3.37777 6.66227 3.73333 7.05338C4.10666 7.42672 4.59555 7.61338 5.19999 7.61338ZM18.8 19.2401C18.0889 19.2401 17.4489 19.1334 16.88 18.9201C16.3111 18.6889 15.8222 18.3778 15.4133 17.9867C15.0044 17.5956 14.6844 17.1334 14.4533 16.6001C14.24 16.0489 14.1333 15.4445 14.1333 14.7867V13.8801C14.1333 13.2223 14.24 12.6267 14.4533 12.0934C14.6844 11.5423 15.0044 11.0712 15.4133 10.6801C15.8222 10.2889 16.3111 9.98672 16.88 9.77338C17.4489 9.54227 18.0889 9.42672 18.8 9.42672C19.5111 9.42672 20.1511 9.54227 20.72 9.77338C21.2889 9.98672 21.7778 10.2889 22.1867 10.6801C22.5955 11.0712 22.9067 11.5423 23.12 12.0934C23.3511 12.6267 23.4667 13.2223 23.4667 13.8801V14.7867C23.4667 15.4445 23.3511 16.0489 23.12 16.6001C22.9067 17.1334 22.5955 17.5956 22.1867 17.9867C21.7778 18.3778 21.2889 18.6889 20.72 18.9201C20.1511 19.1334 19.5111 19.2401 18.8 19.2401ZM18.8 16.9467C19.3867 16.9467 19.8578 16.7601 20.2133 16.3867C20.5867 15.9956 20.7733 15.4623 20.7733 14.7867V13.8801C20.7733 13.2045 20.5867 12.6801 20.2133 12.3067C19.8578 11.9156 19.3867 11.7201 18.8 11.7201C18.1955 11.7201 17.7067 11.9156 17.3333 12.3067C16.9778 12.6801 16.8 13.2045 16.8 13.8801V14.7867C16.8 15.4623 16.9778 15.9956 17.3333 16.3867C17.7067 16.7601 18.1955 16.9467 18.8 16.9467ZM16 0.333384H18.9333L7.99999 19.0001H5.06666L16 0.333384Z" fill="#FF7400"/>
</svg>
