<?xml version="1.0" encoding="utf-8"?><svg xmlns="http://www.w3.org/2000/svg" xmlns:xlink="http://www.w3.org/1999/xlink"><symbol viewBox="0 0 24 24" id="1-click" xmlns="http://www.w3.org/2000/svg"><path d="M23.794 19.817l-4.055-4.055 1.989-1.99a.703.703 0 00-.275-1.163L9.521 8.63a.703.703 0 00-.89.89l3.978 11.932a.703.703 0 001.164.275l1.989-1.989 4.055 4.055a.7.7 0 00.994 0l2.983-2.983a.703.703 0 000-.994zm-3.48 2.486l-4.055-4.055a.703.703 0 00-.994 0l-1.682 1.681-3.173-9.519 9.52 3.173-1.682 1.681a.703.703 0 000 .995l4.055 4.055-1.989 1.989zM9.14 5.625a.703.703 0 00.704-.703V.703a.703.703 0 00-1.406 0v4.219c0 .388.314.703.703.703zM3.671 2.677a.703.703 0 10-.994.995L5.66 6.655a.703.703 0 10.995-.995L3.67 2.677zm1.989 8.95L2.677 14.61a.703.703 0 10.994.994l2.984-2.983a.703.703 0 00-.995-.995zm6.96-4.972l2.984-2.983a.703.703 0 00-.994-.995L11.626 5.66a.703.703 0 10.995.995zM5.625 9.14a.703.703 0 00-.703-.703H.703a.703.703 0 000 1.407h4.219a.703.703 0 00.703-.703z"/></symbol><symbol viewBox="0 0 24 24" id="basket" xmlns="http://www.w3.org/2000/svg"><g clip-path="url(#bclip0)"><path d="M7.781 15.516h12.704a.7.7 0 00.675-.51l2.813-9.844a.703.703 0 00-.676-.896H6.158l-.503-2.262a.703.703 0 00-.686-.55H.703a.703.703 0 100 1.405h3.701l2.54 11.426a2.11 2.11 0 00-1.272 1.934c0 1.163.946 2.11 2.11 2.11h12.703a.703.703 0 100-1.407H7.78a.704.704 0 010-1.406z"/><path d="M7.078 20.438c0 1.163.946 2.11 2.11 2.11 1.163 0 2.11-.947 2.11-2.11 0-1.163-.947-2.11-2.11-2.11-1.164 0-2.11.947-2.11 2.11zm9.891 0c0 1.163.946 2.11 2.11 2.11a2.112 2.112 0 002.109-2.11c0-1.163-.946-2.11-2.11-2.11-1.163 0-2.11.947-2.11 2.11z"/></g><defs><clipPath id="bclip0"><path d="M0 0h24v24H0z"/></clipPath></defs></symbol><symbol viewBox="0 0 344.96 344.96" id="check" xmlns="http://www.w3.org/2000/svg"><g data-name="Слой 2"><path d="M321.85 86.24l-40-23.11-23.1-40H212.5L172.48 0l-40 23.11H86.24l-23.11 40-40 23.1v46.21L0 172.48l23.11 40v46.21l40 23.11 23.11 40h46.21l40 23.1 40-23.11h46.21l23.11-40 40-23.11V212.5l23.11-40-23.11-40V86.24zM156.91 243.07a16.79 16.79 0 01-23.34 0l-50.45-50.44a16.19 16.19 0 010-22.89l13.35-13.35a16.19 16.19 0 0122.89 0l25.87 25.87 80.34-80.35a16.19 16.19 0 0122.89 0l13.35 13.35a16.19 16.19 0 010 22.89z" data-name="Capa 1"/></g></symbol><symbol viewBox="0 0 24 24" id="click" xmlns="http://www.w3.org/2000/svg"><g clip-path="url(#dclip0)"><path d="M23.794 19.817l-4.055-4.055 1.989-1.99a.703.703 0 00-.275-1.163L9.52 8.63a.703.703 0 00-.889.89l3.978 11.932a.703.703 0 001.164.275l1.989-1.989 4.055 4.055a.701.701 0 00.994 0l2.983-2.983a.703.703 0 000-.994zm-3.48 2.486l-4.055-4.055a.703.703 0 00-.995 0l-1.681 1.681-3.173-9.519 9.519 3.173-1.682 1.681a.703.703 0 000 .995l4.055 4.055-1.988 1.989zM9.14 5.625a.703.703 0 00.704-.703V.703a.703.703 0 00-1.406 0v4.219c0 .388.314.703.703.703zM3.672 2.677a.703.703 0 10-.995.995L5.66 6.655a.703.703 0 10.995-.995L3.672 2.677zm1.988 8.95L2.677 14.61a.703.703 0 00.995.994l2.983-2.983a.703.703 0 10-.995-.995zm6.96-4.972l2.984-2.983a.703.703 0 10-.994-.995L11.627 5.66a.703.703 0 10.994.995zM5.625 9.14a.703.703 0 00-.703-.703H.703a.703.703 0 000 1.407h4.219a.703.703 0 00.703-.703z"/></g><defs><clipPath id="dclip0"><path d="M0 0h24v24H0z"/></clipPath></defs></symbol><symbol viewBox="0 0 10 16" id="fb" xmlns="http://www.w3.org/2000/svg"><path d="M9 .003L6.923 0c-2.33 0-3.837 1.546-3.837 3.938v1.815H1.001a.326.326 0 00-.326.327v2.63c0 .18.146.326.326.326h2.086v6.638c0 .18.146.326.326.326h2.722c.18 0 .326-.146.326-.326V9.036h2.44c.18 0 .326-.146.326-.326V6.08a.327.327 0 00-.326-.327h-2.44V4.214c0-.74.177-1.115 1.14-1.115H9c.18 0 .326-.147.326-.327V.33A.326.326 0 009 .003z"/></symbol><symbol viewBox="0 0 16 16" id="instagram" xmlns="http://www.w3.org/2000/svg"><path d="M11 0H5a5 5 0 00-5 5v6a5 5 0 005 5h6a5 5 0 005-5V5a5 5 0 00-5-5zm3.5 11c0 1.93-1.57 3.5-3.5 3.5H5c-1.93 0-3.5-1.57-3.5-3.5V5c0-1.93 1.57-3.5 3.5-3.5h6c1.93 0 3.5 1.57 3.5 3.5v6z"/><path d="M8 4a4 4 0 100 8 4 4 0 000-8zm0 6.5A2.503 2.503 0 015.5 8c0-1.379 1.122-2.5 2.5-2.5s2.5 1.121 2.5 2.5c0 1.378-1.122 2.5-2.5 2.5zm4.3-6.267a.533.533 0 100-1.066.533.533 0 000 1.066z"/></symbol><symbol viewBox="0 0 19 20" id="search" xmlns="http://www.w3.org/2000/svg"><path d="M18.842 7.943c0 1.38-.35 2.738-1.01 3.93a.725.725 0 01-1.005.283.768.768 0 01-.274-1.032 6.569 6.569 0 00.817-3.181c0-3.546-2.806-6.43-6.256-6.43s-6.256 2.884-6.256 6.43 2.806 6.43 6.256 6.43a6.125 6.125 0 003.062-.821.726.726 0 011.002.288c.2.365.074.826-.28 1.03a7.57 7.57 0 01-3.784 1.016 7.567 7.567 0 01-4.898-1.804l-4.961 5.064a.724.724 0 01-1.041-.004.772.772 0 01.003-1.07l4.955-5.057a8.04 8.04 0 01-1.786-5.072C3.386 3.563 6.853 0 11.114 0c4.261 0 7.728 3.563 7.728 7.943z"/></symbol><symbol viewBox="0 0 24 24" id="shopping-cart" xmlns="http://www.w3.org/2000/svg"><g clip-path="url(#hclip0)"><path d="M7.781 15.516h12.704a.7.7 0 00.675-.51l2.813-9.844a.703.703 0 00-.676-.896H6.158l-.503-2.262a.703.703 0 00-.686-.55H.703a.703.703 0 100 1.405h3.701l2.54 11.426a2.11 2.11 0 00-1.272 1.934c0 1.163.946 2.11 2.11 2.11h12.703a.703.703 0 100-1.407H7.78a.704.704 0 010-1.406z"/><path d="M7.078 20.438c0 1.163.946 2.11 2.11 2.11 1.163 0 2.11-.947 2.11-2.11 0-1.163-.947-2.11-2.11-2.11-1.164 0-2.11.947-2.11 2.11zm9.891 0c0 1.163.946 2.11 2.11 2.11a2.112 2.112 0 002.108-2.11c0-1.163-.946-2.11-2.109-2.11s-2.11.947-2.11 2.11z"/></g><defs><clipPath id="hclip0"><path d="M0 0h24v24H0z"/></clipPath></defs></symbol><symbol viewBox="0 0 16 15" id="star" xmlns="http://www.w3.org/2000/svg"><path d="M8 0l2.633 4.376 4.976 1.152-3.348 3.856.441 5.088L8 12.48l-4.702 1.992.441-5.088L.392 5.528l4.975-1.152L8 0z"/></symbol><symbol viewBox="0 0 32 32" id="telegram" xmlns="http://www.w3.org/2000/svg"><path d="M16 32c8.839 0 16-7.161 16-16S24.839 0 16 0 0 7.161 0 16s7.161 16 16 16zM7.321 15.653l15.427-5.948c.716-.258 1.341.175 1.11 1.258v-.002l-2.626 12.375c-.195.877-.716 1.09-1.445.677l-4-2.948-1.93 1.859c-.213.213-.393.393-.806.393l.284-4.07 7.413-6.698c.323-.284-.072-.444-.497-.161l-9.162 5.768-3.949-1.232c-.857-.272-.876-.857.181-1.27z"/></symbol><symbol viewBox="0 0 14 14" id="user" xmlns="http://www.w3.org/2000/svg"><g clip-path="url(#kclip0)"><path d="M7.1 6.744a3.263 3.263 0 01-2.384-.988 3.263 3.263 0 01-.988-2.384c0-.926.332-1.729.988-2.384A3.263 3.263 0 017.1 0c.926 0 1.728.332 2.384.988.655.655.988 1.457.988 2.384 0 .926-.333 1.729-.988 2.384a3.263 3.263 0 01-2.384.988zm-5.9 4.021a8.33 8.33 0 01.113-.884 6.97 6.97 0 01.218-.89c.09-.282.213-.562.365-.83a3.13 3.13 0 01.552-.718c.217-.208.484-.375.792-.497a2.737 2.737 0 011.01-.183c.144 0 .282.058.549.232l.57.368c.184.117.432.226.74.326.299.096.603.146.903.146.3 0 .604-.05.903-.146.307-.1.555-.209.739-.326l.571-.368c.267-.174.405-.232.548-.232.364 0 .704.061 1.01.183.309.122.575.289.793.497.208.2.393.441.551.719.152.267.275.546.366.83.087.273.16.572.217.889.056.313.095.611.114.885.018.268.028.546.028.826 0 .731-.233 1.323-.69 1.76-.453.43-1.052.648-1.78.648H3.641c-.728 0-1.327-.218-1.78-.649-.457-.436-.69-1.028-.69-1.759 0-.282.01-.56.029-.827z"/></g><defs><clipPath id="kclip0"><path transform="matrix(-1 0 0 1 14 0)" d="M0 0h14v14H0z"/></clipPath></defs></symbol><symbol viewBox="0 0 16 10" id="vk" xmlns="http://www.w3.org/2000/svg"><path d="M15.857 8.578c-.043-.072-.309-.65-1.589-1.838-1.34-1.244-1.16-1.042.454-3.193.983-1.31 1.376-2.11 1.253-2.452-.117-.326-.84-.24-.84-.24l-2.404.014s-.178-.024-.311.055c-.129.078-.212.258-.212.258s-.381 1.014-.89 1.876c-1.07 1.819-1.5 1.915-1.674 1.802-.407-.263-.305-1.058-.305-1.622 0-1.763.267-2.498-.521-2.688C8.556.487 8.364.445 7.695.438 6.837.428 6.11.44 5.699.642c-.274.134-.486.433-.357.45.16.02.52.097.71.357.248.335.239 1.089.239 1.089s.142 2.075-.331 2.333c-.325.177-.77-.184-1.726-1.835-.489-.845-.859-1.78-.859-1.78s-.07-.174-.198-.267c-.154-.113-.37-.15-.37-.15L.521.855s-.343.01-.469.159c-.112.133-.009.407-.009.407s1.79 4.187 3.816 6.298c1.86 1.935 3.97 1.808 3.97 1.808h.956s.289-.032.436-.19c.136-.147.13-.42.13-.42s-.018-1.284.578-1.473c.587-.186 1.34 1.24 2.14 1.79.604.414 1.063.323 1.063.323l2.137-.03s1.118-.069.588-.948z"/></symbol><symbol viewBox="0 0 32 32" id="whatsapp" xmlns="http://www.w3.org/2000/svg"><path d="M16.004 0h-.008C7.174 0 0 7.176 0 16c0 3.5 1.128 6.744 3.046 9.378l-1.994 5.944 6.15-1.966A15.862 15.862 0 0016.004 32C24.826 32 32 24.822 32 16S24.826 0 16.004 0zm9.31 22.594c-.386 1.09-1.918 1.994-3.14 2.258-.836.178-1.928.32-5.604-1.204-4.702-1.948-7.73-6.726-7.966-7.036-.226-.31-1.9-2.53-1.9-4.826S7.87 8.372 8.34 7.892c.386-.394 1.024-.574 1.636-.574.198 0 .376.01.536.018.47.02.706.048 1.016.79.386.93 1.326 3.226 1.438 3.462.114.236.228.556.068.866-.15.32-.282.462-.518.734-.236.272-.46.48-.696.772-.216.254-.46.526-.188.996.272.46 1.212 1.994 2.596 3.226 1.786 1.59 3.234 2.098 3.752 2.314.386.16.846.122 1.128-.178.358-.386.8-1.026 1.25-1.656.32-.452.724-.508 1.148-.348.432.15 2.718 1.28 3.188 1.514.47.236.78.348.894.546.112.198.112 1.128-.274 2.22z"/></symbol></svg>