<svg width="24" height="24" viewBox="0 0 24 24" fill="none" xmlns="http://www.w3.org/2000/svg">
<path d="M23.7943 19.8167L19.7392 15.7616L21.728 13.7729C21.9003 13.6006 21.9711 13.3513 21.9151 13.1141C21.8591 12.877 21.6843 12.6857 21.4531 12.6086L9.52073 8.63116C9.26812 8.54692 8.9895 8.61269 8.8012 8.80103C8.61285 8.98937 8.54709 9.26791 8.63132 9.52056L12.6088 21.453C12.6859 21.6842 12.8772 21.859 13.1143 21.915C13.3514 21.9711 13.6007 21.9002 13.773 21.7278L15.7618 19.7391L19.8169 23.7941C19.9542 23.9314 20.1341 24.0001 20.314 24.0001C20.4939 24.0001 20.6739 23.9315 20.8112 23.7941L23.7943 20.811C24.0689 20.5364 24.0689 20.0912 23.7943 19.8167ZM20.314 22.3026L16.2589 18.2476C15.9844 17.973 15.5391 17.973 15.2646 18.2476L13.5831 19.929L10.4101 10.41L19.9291 13.583L18.2477 15.2644C17.9733 15.5387 17.9731 15.9842 18.2477 16.2588L22.3027 20.3139L20.314 22.3026Z" fill="black"/>
<path d="M9.14062 5.625C9.52894 5.625 9.84375 5.31019 9.84375 4.92188V0.703125C9.84375 0.314812 9.52894 0 9.14062 0C8.75231 0 8.4375 0.314812 8.4375 0.703125V4.92188C8.4375 5.31019 8.75231 5.625 9.14062 5.625Z" fill="black"/>
<path d="M3.67149 2.67726C3.39695 2.40267 2.95173 2.40267 2.67714 2.67726C2.40254 2.95185 2.40254 3.39702 2.67714 3.67162L5.66026 6.65474C5.9348 6.92934 6.38007 6.92934 6.65461 6.65474C6.92921 6.38015 6.92921 5.93498 6.65461 5.66038L3.67149 2.67726Z" fill="black"/>
<path d="M5.66026 11.6265L2.67714 14.6097C2.40254 14.8843 2.40254 15.3294 2.67714 15.604C2.95168 15.8786 3.39695 15.8786 3.67149 15.604L6.65461 12.6209C6.92921 12.3463 6.92921 11.9011 6.65461 11.6265C6.38002 11.3519 5.9348 11.3519 5.66026 11.6265Z" fill="black"/>
<path d="M12.6207 6.65474L15.6039 3.67162C15.8784 3.39702 15.8784 2.95185 15.6039 2.67726C15.3293 2.40267 14.8841 2.40267 14.6095 2.67726L11.6264 5.66038C11.3518 5.93498 11.3518 6.38015 11.6264 6.65474C11.9009 6.92934 12.3462 6.92934 12.6207 6.65474Z" fill="black"/>
<path d="M5.625 9.14062C5.625 8.75231 5.31019 8.4375 4.92188 8.4375H0.703125C0.314812 8.4375 0 8.75231 0 9.14062C0 9.52894 0.314812 9.84375 0.703125 9.84375H4.92188C5.31019 9.84375 5.625 9.52894 5.625 9.14062Z" fill="black"/>
</svg>
