<svg width="24" height="24" viewBox="0 0 24 24" fill="none" xmlns="http://www.w3.org/2000/svg">
<g clip-path="url(#clip0)">
<path d="M23.794 19.8167L19.739 15.7616L21.7277 13.7729C21.9 13.6006 21.9709 13.3514 21.9148 13.1142C21.8588 12.877 21.6841 12.6857 21.4529 12.6087L9.52049 8.6312C9.26788 8.54697 8.98925 8.61273 8.80095 8.80108C8.61261 8.98942 8.54685 9.26795 8.63108 9.52061L12.6086 21.4531C12.6857 21.6842 12.8769 21.859 13.1141 21.915C13.3512 21.9711 13.6005 21.9002 13.7728 21.7279L15.7616 19.7392L19.8166 23.7942C19.9539 23.9315 20.1339 24.0002 20.3138 24.0002C20.4937 24.0002 20.6737 23.9315 20.8109 23.7942L23.7941 20.8111C24.0687 20.5365 24.0687 20.0913 23.794 19.8167ZM20.3137 22.3026L16.2587 18.2476C15.9841 17.973 15.5389 17.973 15.2643 18.2476L13.5829 19.9291L10.4098 10.41L19.9289 13.583L18.2474 15.2645C17.9731 15.5388 17.9728 15.9843 18.2474 16.2588L22.3025 20.3139L20.3137 22.3026Z" fill="black"/>
<path d="M9.14062 5.625C9.52894 5.625 9.84375 5.31019 9.84375 4.92188V0.703125C9.84375 0.314812 9.52894 0 9.14062 0C8.75231 0 8.4375 0.314812 8.4375 0.703125V4.92188C8.4375 5.31019 8.75231 5.625 9.14062 5.625Z" fill="black"/>
<path d="M3.67159 2.67726C3.39704 2.40267 2.95182 2.40267 2.67723 2.67726C2.40263 2.95185 2.40263 3.39702 2.67723 3.67162L5.66035 6.65474C5.93489 6.92934 6.38016 6.92934 6.65471 6.65474C6.9293 6.38015 6.9293 5.93498 6.65471 5.66038L3.67159 2.67726Z" fill="black"/>
<path d="M5.66035 11.6265L2.67723 14.6096C2.40263 14.8842 2.40263 15.3294 2.67723 15.604C2.95177 15.8786 3.39704 15.8786 3.67159 15.604L6.65471 12.6208C6.9293 12.3462 6.9293 11.9011 6.65471 11.6265C6.38011 11.3519 5.93489 11.3519 5.66035 11.6265Z" fill="black"/>
<path d="M12.6209 6.65474L15.604 3.67162C15.8786 3.39702 15.8786 2.95185 15.604 2.67726C15.3295 2.40267 14.8843 2.40267 14.6097 2.67726L11.6265 5.66038C11.3519 5.93498 11.3519 6.38015 11.6265 6.65474C11.9011 6.92934 12.3464 6.92934 12.6209 6.65474Z" fill="black"/>
<path d="M5.625 9.14062C5.625 8.75231 5.31019 8.4375 4.92188 8.4375H0.703125C0.314812 8.4375 0 8.75231 0 9.14062C0 9.52894 0.314812 9.84375 0.703125 9.84375H4.92188C5.31019 9.84375 5.625 9.52894 5.625 9.14062Z" fill="black"/>
</g>
<defs>
<clipPath id="clip0">
<rect width="24" height="24" fill="white"/>
</clipPath>
</defs>
</svg>
