<svg width="10" height="16" viewBox="0 0 10 16" fill="none" xmlns="http://www.w3.org/2000/svg">
<path d="M8.99926 0.00332907L6.92444 0C4.59345 0 3.08707 1.54552 3.08707 3.93762V5.75313H1.00093C0.820661 5.75313 0.674683 5.89927 0.674683 6.07954V8.71001C0.674683 8.89028 0.820827 9.03625 1.00093 9.03625H3.08707V15.6738C3.08707 15.854 3.23304 16 3.41331 16H6.13513C6.3154 16 6.46137 15.8539 6.46137 15.6738V9.03625H8.90056C9.08082 9.03625 9.2268 8.89028 9.2268 8.71001L9.2278 6.07954C9.2278 5.99299 9.19335 5.91009 9.13226 5.84884C9.07117 5.78758 8.98794 5.75313 8.90139 5.75313H6.46137V4.2141C6.46137 3.47438 6.63765 3.09886 7.60124 3.09886L8.99893 3.09836C9.17903 3.09836 9.32501 2.95222 9.32501 2.77211V0.329578C9.32501 0.149642 9.1792 0.00366197 8.99926 0.00332907Z" fill="white"/>
</svg>
