<svg width="24" height="24" viewBox="0 0 24 24" fill="none" xmlns="http://www.w3.org/2000/svg">
<path d="M7.44101 6.89632L8.86057 5.47676L4.43028 1.04648L0 5.47676L1.41956 6.89632L3.42671 4.88917V19.1108L1.41956 17.1037L0 18.5232L4.43028 22.9535L8.86057 18.5232L7.44101 17.1037L5.43386 19.1108V4.88917L7.44101 6.89632Z" fill="#88C057"/>
<path d="M23.9998 0.960663H10.9534V2.96781H23.9998V0.960663Z" fill="#88C057"/>
<path d="M23.9998 10.9964H10.9534V13.0036H23.9998V10.9964Z" fill="#88C057"/>
<path d="M19.9855 5.97855H10.9534V7.9857H19.9855V5.97855Z" fill="#88C057"/>
<path d="M19.9855 16.0143H10.9534V18.0215H19.9855V16.0143Z" fill="#88C057"/>
<path d="M23.9998 21.0322H10.9534V23.0393H23.9998V21.0322Z" fill="#88C057"/>
</svg>
