<svg width="19" height="20" viewBox="0 0 19 20" fill="none" xmlns="http://www.w3.org/2000/svg">
<path d="M18.8423 7.943C18.8423 9.32238 18.4927 10.6814 17.8313 11.8733C17.6299 12.2361 17.1804 12.3625 16.8273 12.1555C16.4743 11.9485 16.3512 11.4865 16.5527 11.1236C17.0875 10.1598 17.3703 9.05998 17.3703 7.943C17.3703 4.39746 14.5637 1.51295 11.114 1.51295C7.66432 1.51295 4.85777 4.39746 4.85777 7.943C4.85777 11.4885 7.66432 14.373 11.114 14.373C12.1876 14.373 13.2464 14.0891 14.1757 13.5518C14.5301 13.3471 14.9789 13.4763 15.1782 13.8404C15.3774 14.2046 15.2518 14.6659 14.8974 14.8705C13.7482 15.5349 12.4399 15.886 11.114 15.886C9.25641 15.886 7.54989 15.2087 6.21554 14.082L1.25467 19.1461C1.1112 19.2925 0.9236 19.3658 0.735999 19.3658C0.546816 19.3658 0.357633 19.2913 0.213734 19.1424C-0.0726283 18.846 -0.071047 18.367 0.217327 18.0725L5.17159 13.0154C4.05705 11.6385 3.38571 9.86994 3.38571 7.943C3.38571 3.56327 6.85267 0 11.114 0C15.3754 0 18.8423 3.56327 18.8423 7.943Z" fill="black"/>
</svg>
