<svg width="14" height="14" viewBox="0 0 14 14" fill="none" xmlns="http://www.w3.org/2000/svg">
<g clip-path="url(#clip0)">
<path d="M7.09976 6.74384C6.17328 6.74384 5.37102 6.41155 4.71552 5.75594C4.06001 5.10044 3.72772 4.2984 3.72772 3.37181C3.72772 2.44555 4.06001 1.6434 4.71562 0.987682C5.37123 0.332289 6.17339 0 7.09976 0C8.02635 0 8.8284 0.332289 9.4839 0.987789C10.1394 1.64329 10.4718 2.44544 10.4718 3.37181C10.4718 4.2984 10.1394 5.10055 9.4838 5.75605C8.82819 6.41144 8.02603 6.74384 7.09976 6.74384Z" fill="#FF7400"/>
<path d="M1.1996 10.7653C1.21851 10.4925 1.25674 10.1949 1.31303 9.88066C1.36986 9.56408 1.44302 9.26479 1.53061 8.99125C1.62108 8.70852 1.74413 8.42931 1.89622 8.16175C2.05409 7.88404 2.23952 7.64222 2.44759 7.44323C2.66516 7.23506 2.93155 7.06769 3.23959 6.9456C3.54657 6.82416 3.88676 6.76263 4.25067 6.76263C4.39359 6.76263 4.5318 6.82127 4.79872 6.99506C4.963 7.10219 5.15515 7.22609 5.36963 7.36313C5.55302 7.47998 5.80147 7.58946 6.10834 7.68858C6.40773 7.78546 6.71172 7.83459 7.01175 7.83459C7.31178 7.83459 7.61566 7.78546 7.91537 7.68858C8.22192 7.58957 8.47037 7.48008 8.65355 7.36323C8.866 7.22748 9.05826 7.10358 9.22499 6.99495C9.49159 6.82117 9.62991 6.76253 9.77283 6.76253C10.1368 6.76253 10.4769 6.82416 10.7838 6.94571C11.0916 7.06758 11.3581 7.23495 11.5759 7.44334C11.7839 7.64244 11.9694 7.88415 12.1271 8.16175C12.2791 8.42931 12.4021 8.70841 12.4927 8.99135C12.5802 9.2649 12.6533 9.56408 12.7101 9.88066C12.7664 10.1945 12.8047 10.4922 12.8236 10.7656C12.8422 11.0335 12.8516 11.3115 12.8516 11.5923C12.8516 12.3231 12.6192 12.9147 12.1611 13.3511C11.7087 13.7816 11.11 14 10.382 14H3.64088C2.91286 14 2.31439 13.7817 1.86183 13.3511C1.40361 12.9151 1.1713 12.3233 1.1713 11.5922C1.1714 11.3101 1.18091 11.0319 1.1996 10.7653Z" fill="#FF7400"/>
</g>
<defs>
<clipPath id="clip0">
<rect width="14" height="14" transform="matrix(-1 0 0 1 14 0)" fill="white"/>
</clipPath>
</defs>
</svg>
